<svg width="24" height="25" viewBox="0 0 24 25" fill="none" xmlns="http://www.w3.org/2000/svg">
<circle cx="1.5" cy="1.5" r="1.5" transform="matrix(1 0 0 -1 8.49426 14.4722)" fill="#4A4A4A"/>
<circle cx="2" cy="2" r="2" transform="matrix(1 0 0 -1 3.49561 14.9722)" fill="#4A4A4A"/>
<path d="M3.07178 21.8889C3.15543 21.9944 3.30567 22.0399 3.44092 21.9719L20.8208 13.2395C21.0412 13.1288 21.0412 12.8141 20.8208 12.7034L3.44092 3.97095C3.24143 3.87077 3.00635 4.01625 3.00635 4.2395V4.52271L3.23291 5.6311C3.25116 5.7204 3.30901 5.79661 3.39014 5.83813L17.3833 12.9836L3.40576 20.1252C3.31606 20.1711 3.25488 20.2585 3.24365 20.3586L3.07178 21.8889Z" fill="#158AC1"/>
</svg>
