<svg width="25" height="24" viewBox="0 0 25 24" fill="none" xmlns="http://www.w3.org/2000/svg">
<rect width="24" height="24" transform="translate(0.0236816)" fill="white"/>
<circle cx="1.5" cy="1.5" r="1.5" transform="matrix(-1 0 0 1 18.0117 10.4998)" fill="#4A4A4A"/>
<circle cx="2" cy="2" r="2" transform="matrix(-1 0 0 1 23.0104 9.99976)" fill="#4A4A4A"/>
<path d="M18.0132 3.28076C18.0132 3.05457 17.7725 2.90917 17.5728 3.01514L1.16357 11.7349C0.951274 11.8477 0.951274 12.1523 1.16357 12.2651L17.5728 20.9849C17.7724 21.0909 18.0129 20.9462 18.0132 20.7202V19.272C17.9855 19.213 17.9393 19.164 17.8804 19.1333L4.12549 11.9878L17.8657 4.84717C17.9389 4.80905 17.9905 4.74236 18.0132 4.66455V3.28076Z" fill="#158AC1"/>
</svg>
