<svg width="24" height="25" viewBox="0 0 24 25" fill="none" xmlns="http://www.w3.org/2000/svg">
<path d="M11.9941 2.97217C13.2118 2.97301 14.3574 10.2433 15.666 10.2446C16.7935 10.2446 22.9992 7.22695 23 8.43506C23.0007 9.44291 21.2606 16.7987 20.6836 19.2095C20.5758 19.6592 20.1735 19.9705 19.7109 19.9692L19.4014 19.9683C18.9492 19.9222 18.6286 19.4824 18.7422 19.0269L21 9.97217C20.9927 9.97598 16.3121 12.4248 15 12.4722C13.874 12.4248 12 5.97217 12 5.97217C12 5.97217 10.314 12.4722 9 12.4722C7.87489 12.4248 3.00735 9.97587 3 9.97217L5.25781 19.0269C5.3559 19.4202 5.12994 19.8008 4.77539 19.9272L4.23242 19.9263C3.77033 19.925 3.37038 19.6115 3.26465 19.1616C2.69978 16.7583 0.99985 9.44244 1 8.43506C1.00019 7.22704 7.11961 10.2443 8.33301 10.2446C9.54593 10.2446 10.7757 2.97217 11.9941 2.97217Z" fill="#158AC1"/>
<rect x="3" y="20.9719" width="18" height="2" rx="1" fill="#4A4A4A"/>
</svg>
