<svg width="25" height="24" viewBox="0 0 25 24" fill="none" xmlns="http://www.w3.org/2000/svg">
<path d="M13.0232 7.99951H16.0203V9.99951H13.0232V12.0015L16.0242 12.0005V14.0005H13.0232V16.0005H16.0242V18.0005H13.0232V19.9966H16.0203V19.9995C16.0203 20.5515 16.4684 20.9991 17.0203 20.9995H21.0203C21.5725 20.9995 22.0203 20.5518 22.0203 19.9995V7.99951H23.0232V21.9995H13.0232V22.0005H1.02319V4.00049H13.0232V7.99951ZM3.02417 20.0005H6.02417V18.0005H3.02417V20.0005ZM8.02417 20.0005H11.0242V18.0005H8.02417V20.0005ZM20.0242 18.0005H18.0242V16.0005H20.0242V18.0005ZM3.02417 16.0005H6.02417V14.0005H3.02417V16.0005ZM8.02417 16.0005H11.0242V14.0005H8.02417V16.0005ZM20.0242 14.0005H18.0242V12.0005H20.0242V14.0005ZM3.02417 12.0073L6.02417 12.0054V10.0005H3.02417V12.0073ZM8.02417 12.0044L11.0242 12.0024V10.0005H8.02417V12.0044ZM3.02417 8.00049H6.02417V6.00049H3.02417V8.00049ZM8.02417 8.00049H11.0242V6.00049H8.02417V8.00049Z" fill="#4A4A4A"/>
<path d="M19.0211 20C18.4688 20 18.0211 19.5523 18.0211 19V7C18.0211 6.44772 18.4688 6 19.0211 6C19.5734 6 20.0211 6.44772 20.0211 7V19C20.0211 19.5523 19.5734 20 19.0211 20Z" fill="#158AC1"/>
<path d="M17.9612 3.55937C18.2588 3.85312 18.613 4 19.0237 4C19.4344 4 19.7856 3.85312 20.0773 3.55937C20.3749 3.26562 20.5237 2.9125 20.5237 2.5C20.5237 2.0875 20.3749 1.73437 20.0773 1.44062C19.7856 1.14687 19.4344 1 19.0237 1C18.613 1 18.2588 1.14687 17.9612 1.44062C17.6695 1.73437 17.5237 2.0875 17.5237 2.5C17.5237 2.9125 17.6695 3.26562 17.9612 3.55937Z" fill="#158AC1"/>
</svg>
