<svg width="25" height="24" viewBox="0 0 25 24" fill="none" xmlns="http://www.w3.org/2000/svg">
<path d="M11.8408 4.87677C11.9592 4.9717 12.1064 5.02344 12.2582 5.02344C12.8444 5.02344 13.1772 5.758 12.8848 6.26612C12.8351 6.35251 12.7873 6.44015 12.7415 6.529C12.5942 6.81489 12.3082 7.01074 11.9866 7.01074H11.9081C11.6927 7.01074 11.4842 6.93459 11.3195 6.79573L8.28251 4.23544C8.10215 4.08339 7.87385 4 7.63796 4H4.01788C3.4656 4 3.01788 4.44772 3.01788 5V19C3.01788 19.5523 3.4656 20 4.01788 20H20.014C20.5663 20 21.014 19.5523 21.014 19V16.0402C21.014 15.7161 21.2148 15.4264 21.5026 15.2775C22.1302 14.9529 23.0237 15.3626 23.0237 16.0691V21C23.0237 21.5523 22.576 22 22.0237 22H2.02374C1.47146 22 1.02374 21.5523 1.02374 21V3C1.02374 2.44772 1.47146 2 2.02374 2H7.90182C8.12928 2 8.34994 2.07755 8.5274 2.21984L11.8408 4.87677Z" fill="#4A4A4A"/>
<path d="M18.0237 5C20.7849 5.00012 23.0237 7.23877 23.0237 10C23.0236 12.7611 20.7849 14.9999 18.0237 15C15.2625 15 13.0239 12.7612 13.0237 10C13.0237 7.2387 15.2624 5 18.0237 5ZM18.0237 7C16.3669 7 15.0237 8.34315 15.0237 10C15.0238 11.6568 16.3669 13 18.0237 13C19.6806 13 21.0237 11.6568 21.0237 10C21.0237 8.34315 19.6806 7 18.0237 7Z" fill="#158AC1"/>
<rect x="8.02374" y="17.9497" width="7" height="1.99937" rx="0.999683" transform="rotate(-45 8.02374 17.9497)" fill="#158AC1"/>
</svg>
