<svg width="24" height="25" viewBox="0 0 24 25" fill="none" xmlns="http://www.w3.org/2000/svg">
<g clip-path="url(#clip0_96_271)">
<circle cx="16.9978" cy="5.47192" r="1.5" fill="#4A4A4A"/>
<circle cx="19.5" cy="17.4719" r="2.5" fill="#4A4A4A"/>
<path d="M21.0227 1.87976C21.2047 1.73758 21.4725 1.8459 21.5046 2.07459L22.9895 12.6405C23.0216 12.8692 22.7942 13.0469 22.5801 12.9604L12.6872 8.96351C12.4731 8.87699 12.4328 8.591 12.6147 8.44882L13.7983 7.52412L20.3377 10.2299C20.7038 10.381 21.0917 10.0666 21.0199 9.67704L19.7615 2.86518L21.0227 1.87976Z" fill="#158AC1"/>
<path d="M12.0005 2.05298C13.6814 2.05298 15.2739 2.43153 16.6987 3.10571C15.7353 3.22626 14.9518 3.91956 14.6987 4.83521C13.8459 4.55401 12.9348 4.39966 11.9878 4.39966C7.20975 4.39994 3.33572 8.27396 3.33545 13.052C3.33545 17.8303 7.20958 21.7041 11.9878 21.7043C13.7291 21.7043 15.3492 21.1881 16.7065 20.303C17.3407 20.9287 18.1835 21.3424 19.1216 21.4309C17.2025 23.0635 14.7175 24.051 12.0005 24.051C5.92618 24.0507 1.00146 19.1264 1.00146 13.052C1.00178 6.9779 5.92638 2.05328 12.0005 2.05298Z" fill="#4A4A4A"/>
</g>
<defs>
<clipPath id="clip0_96_271">
<rect width="24" height="24" fill="white" transform="translate(0 0.971924)"/>
</clipPath>
</defs>
</svg>
