<svg width="25" height="24" viewBox="0 0 25 24" fill="none" xmlns="http://www.w3.org/2000/svg">
<path d="M11.7495 4.8036C11.927 4.94589 12.1476 5.02344 12.3751 5.02344H13.032C13.5808 5.02344 14.0256 5.46831 14.0256 6.01709C14.0256 6.56587 13.5808 7.01074 13.032 7.01074H11.9397C11.7038 7.01074 11.4755 6.92735 11.2952 6.7753L8.28245 4.23544C8.10209 4.08339 7.87379 4 7.6379 4H4.01782C3.46554 4 3.01782 4.44772 3.01782 5V19C3.01782 19.5523 3.46554 20 4.01782 20H20.0139C20.5662 20 21.0139 19.5523 21.0139 19V18C21.0139 17.4477 21.4665 17 22.0188 17C22.5711 17 23.0237 17.4477 23.0237 18V21C23.0237 21.5523 22.576 22 22.0237 22H2.02368C1.4714 22 1.02368 21.5523 1.02368 21V3C1.02368 2.44772 1.4714 2 2.02368 2H7.90175C8.12922 2 8.34988 2.07755 8.52734 2.21984L11.7495 4.8036Z" fill="#4A4A4A"/>
<path d="M17.0208 5C17.6849 5.00102 18.3099 8.99997 19.0237 9C19.6387 9 23.0232 7.34043 23.0237 8.00488C23.0239 8.67006 21.5273 15.987 21.5247 16H12.5237C12.5198 15.9809 11.0239 8.66979 11.0237 8.00488C11.0238 7.34044 14.3621 8.99998 15.0237 9C15.6853 9 16.3561 5 17.0208 5ZM17.0237 7C17.0193 7.02254 16.2376 11 15.5237 11C14.9116 10.9742 13.0323 10.0044 13.0237 10L14.0237 14H20.0237L21.0237 10C21.0123 10.0062 19.2368 10.9743 18.5237 11C17.912 10.9742 17.0288 7.02302 17.0237 7Z" fill="#158AC1"/>
</svg>
