<svg width="24" height="25" viewBox="0 0 24 25" fill="none" xmlns="http://www.w3.org/2000/svg">
<circle cx="1.5" cy="1.5" r="1.5" transform="matrix(-1 0 0 1 15.5057 11.4717)" fill="#4A4A4A"/>
<circle cx="2" cy="2" r="2" transform="matrix(-1 0 0 1 20.5044 10.9717)" fill="#4A4A4A"/>
<path d="M20.9282 4.05493C20.8446 3.94949 20.6943 3.90397 20.5591 3.97192L3.1792 12.7043C2.95878 12.8151 2.95878 13.1297 3.1792 13.2405L20.5591 21.9729C20.7586 22.0731 20.9937 21.9276 20.9937 21.7043V21.4211L20.7671 20.3127C20.7488 20.2234 20.691 20.1472 20.6099 20.1057L6.6167 12.9602L20.5942 5.8186C20.6839 5.77278 20.7451 5.6853 20.7563 5.58521L20.9282 4.05493Z" fill="#158AC1"/>
</svg>
