<svg width="24" height="25" viewBox="0 0 24 25" fill="none" xmlns="http://www.w3.org/2000/svg">
<circle cx="1.5" cy="1.5" r="1.5" transform="matrix(-1 0 0 1 17.988 11.4717)" fill="#4A4A4A"/>
<circle cx="2" cy="2" r="2" transform="matrix(-1 0 0 1 22.9867 10.9717)" fill="#4A4A4A"/>
<path d="M17.9895 4.25269C17.9895 4.02649 17.7488 3.8811 17.5491 3.98706L1.13989 12.7068C0.927593 12.8196 0.927593 13.1242 1.13989 13.2371L17.5491 21.9568C17.7488 22.0628 17.9893 21.9182 17.9895 21.6921V20.2439C17.9618 20.1849 17.9156 20.1359 17.8567 20.1052L4.10181 12.9597L17.842 5.81909C17.9152 5.78098 17.9668 5.71428 17.9895 5.63647V4.25269Z" fill="#158AC1"/>
</svg>
