<svg width="25" height="24" viewBox="0 0 25 24" fill="none" xmlns="http://www.w3.org/2000/svg">
<rect width="24" height="24" transform="translate(0.0236816)" fill="white"/>
<path d="M18.5822 22.9995C19.0261 22.5043 19.3108 21.8633 19.3468 21.1548L19.3507 20.9995H20.0323C20.5844 20.9993 21.0323 20.5516 21.0323 19.9995V12.9438C21.6892 12.3301 22.3542 11.7301 22.9982 11.0874C23.0046 11.0811 23.0104 11.0743 23.0167 11.0679V21.9995C23.0167 22.5516 22.5688 22.9993 22.0167 22.9995H18.5822ZM22.0167 0.999512C22.5686 0.999755 23.0165 1.4476 23.0167 1.99951V2.95166C22.4745 2.12665 21.782 1.4132 21.1163 0.999512H22.0167ZM1.02063 1.99951C1.02089 1.44745 1.4685 0.999512 2.02063 0.999512H12.4249C11.4994 1.49689 10.7339 2.19895 10.2325 2.99951H4.02844C3.47632 2.99951 3.0287 3.44745 3.02844 3.99951L3.02844 19.9995C3.02844 20.5518 3.47616 20.9995 4.02844 20.9995H13.3507C13.3507 21.7684 13.6417 22.4686 14.1173 22.9995H2.02063C1.46835 22.9995 1.02063 22.5518 1.02063 21.9995L1.02063 1.99951Z" fill="#4A4A4A"/>
<path d="M6.02332 9.00024C6.02333 8.44809 6.47121 8.00045 7.02332 8.00024H11.4794C11.7775 8.0723 12.0956 8.08722 12.4071 8.05396C12.5116 8.04279 12.6124 8.0228 12.7108 8.00024H15.0233C15.5756 8.00024 16.0233 8.44797 16.0233 9.00024C16.0232 9.55242 15.5755 10.0002 15.0233 10.0002H7.02332C6.47128 10 6.02345 9.55229 6.02332 9.00024ZM14.2137 7.0022C14.5456 6.57106 14.7853 6.04254 14.9315 5.47778C14.9798 5.29124 15.0475 5.13425 15.1415 5.01001C15.6382 5.06838 16.0233 5.48983 16.0233 6.0022C16.0233 6.55448 15.5756 7.0022 15.0233 7.0022H14.2137ZM6.02332 12.0002C6.02333 11.4481 6.47121 11.0004 7.02332 11.0002H15.0233C15.1646 11.0002 15.2989 11.0304 15.4208 11.0833C14.9588 11.5924 14.5595 12.1745 14.1923 13.0002H7.02332C6.47128 13 6.02345 12.5523 6.02332 12.0002ZM6.02332 15.0002C6.02333 14.4481 6.47118 14.0004 7.02332 14.0002H13.8788C13.7598 14.7754 13.8301 15.4482 14.036 16.0002H7.02332C6.47126 16.0001 6.02345 15.5523 6.02332 15.0002ZM6.02332 6.0022C6.02333 5.45005 6.47121 5.0024 7.02332 5.0022H9.59167C9.57272 5.67534 9.75306 6.35661 10.1757 7.0022H7.02332C6.4712 7.002 6.02332 6.55436 6.02332 6.0022Z" fill="#4A4A4A"/>
<path d="M16.2443 16.7739C15.5473 16.7739 14.9719 16.208 15.0218 15.5128C15.0721 14.8109 15.1809 14.1113 15.403 13.4508C15.6694 12.6585 16.048 12.017 16.5388 11.5263C17.0295 11.0355 17.6184 10.5833 18.3055 10.1697C18.7191 9.91729 19.0907 9.61933 19.4202 9.2758C19.7497 8.92526 20.0091 8.52214 20.1984 8.06643C20.3947 7.61073 20.4929 7.10595 20.4929 6.55209C20.4929 5.86503 20.3316 5.26911 20.0091 4.76433C19.6866 4.25955 19.2555 3.87045 18.7156 3.59703C18.1758 3.3236 17.5764 3.18689 16.9173 3.18689C16.3425 3.18689 15.7886 3.30608 15.2558 3.54444C14.723 3.78281 14.2778 4.15789 13.9202 4.66968C13.7597 4.89937 13.6296 5.16084 13.5299 5.45407C13.3035 6.11972 12.7538 6.67829 12.0507 6.67829V6.67829C11.2878 6.67829 10.6614 6.03344 10.8473 5.29356C11.0025 4.67562 11.2451 4.11711 11.5751 3.61806C12.143 2.76975 12.8896 2.12125 13.815 1.67255C14.7475 1.22386 15.7816 0.999512 16.9173 0.999512C18.1513 0.999512 19.2239 1.24489 20.1353 1.73565C21.0537 2.22641 21.7618 2.89945 22.2596 3.75477C22.7644 4.61009 23.0168 5.5846 23.0168 6.67829C23.0168 7.44948 22.8976 8.14706 22.6592 8.77102C22.4279 9.39499 22.0913 9.95235 21.6497 10.4431C21.215 10.9339 20.6892 11.3685 20.0722 11.7471C19.4553 12.1327 18.961 12.5393 18.5894 12.967C18.2179 13.3877 17.9479 13.8889 17.7797 14.4708C17.6813 14.8111 17.6157 15.1611 17.5735 15.5145C17.4908 16.2065 16.9413 16.7739 16.2443 16.7739V16.7739ZM16.3284 22.9995C15.8096 22.9995 15.3644 22.8137 14.9929 22.4422C14.6213 22.0706 14.4355 21.6254 14.4355 21.1066C14.4355 20.5878 14.6213 20.1426 14.9929 19.771C15.3644 19.3994 15.8096 19.2137 16.3284 19.2137C16.8472 19.2137 17.2924 19.3994 17.664 19.771C18.0356 20.1426 18.2214 20.5878 18.2214 21.1066C18.2214 21.4501 18.1337 21.7656 17.9585 22.053C17.7902 22.3405 17.5623 22.5719 17.2749 22.7471C16.9945 22.9154 16.679 22.9995 16.3284 22.9995Z" fill="#158AC1"/>
</svg>
