<svg width="24" height="25" viewBox="0 0 24 25" fill="none" xmlns="http://www.w3.org/2000/svg">
<circle cx="1.5" cy="1.5" r="1.5" transform="matrix(0 -1 -1 0 13.5001 16.4775)" fill="#4A4A4A"/>
<circle cx="2" cy="2" r="2" transform="matrix(0 -1 -1 0 14.0001 21.4763)" fill="#4A4A4A"/>
<path d="M20.917 21.9001C21.0224 21.8165 21.068 21.6662 21 21.531L12.2676 4.15112C12.1568 3.9307 11.8422 3.9307 11.7314 4.15112L2.99902 21.531C2.89884 21.7305 3.04433 21.9656 3.26758 21.9656H3.55078L4.65918 21.739C4.74848 21.7208 4.82469 21.6629 4.86621 21.5818L12.0117 7.58862L19.1533 21.5662C19.1991 21.6559 19.2866 21.717 19.3867 21.7283L20.917 21.9001Z" fill="#158AC1"/>
</svg>
