<svg width="24" height="25" viewBox="0 0 24 25" fill="none" xmlns="http://www.w3.org/2000/svg">
<path d="M9.66717 4.12507C10.0423 4.42592 10.0587 4.98909 9.74102 5.35008C9.43952 5.69273 8.91597 5.76096 8.56694 5.46688L8.25871 5.20719C8.07839 5.05525 7.85017 4.97192 7.61437 4.97192H3.99414C3.44186 4.97192 2.99414 5.41964 2.99414 5.97192V19.9719C2.99414 20.5242 3.44186 20.9719 3.99414 20.9719H19.9902C20.5425 20.9719 20.9902 20.5242 20.9902 19.9719V18.3418C20.9902 18.0855 21.1172 17.8468 21.3197 17.6897C21.922 17.2224 23 17.616 23 18.3783V21.9719C23 22.5242 22.5523 22.9719 22 22.9719H2C1.44772 22.9719 1 22.5242 1 21.9719V3.97192C1 3.41964 1.44772 2.97192 2 2.97192H7.878C8.1055 2.97192 8.32621 3.0495 8.50368 3.19185L9.66717 4.12507Z" fill="#4A4A4A"/>
<path d="M17 6.03735C17.7847 6.17752 18.506 6.49969 19.1182 6.96021L20.5908 5.4895L22.0049 6.90356L20.4463 8.46118C20.7111 8.91947 20.906 9.423 21.0146 9.95825H23V11.9583H21.0146C20.8787 12.6277 20.6087 13.2481 20.2344 13.7913L21.7344 15.2913L20.3203 16.7053L18.793 15.179C18.2568 15.5198 17.6519 15.7608 17.0029 15.8772V17.9719H15.0029V15.8323C14.2676 15.6651 13.594 15.3368 13.0215 14.885L11.4141 16.4934L10 15.0793L11.7256 13.3528C11.4903 12.9224 11.3164 12.4536 11.2158 11.9583H9.00488V9.95825H11.2158C11.3397 9.34806 11.5744 8.77821 11.8984 8.27075L10.2676 6.63989L11.6816 5.22583L13.2891 6.83325C13.7991 6.48307 14.3775 6.22611 15 6.08423V3.97192H17V6.03735ZM16.1152 7.95825C14.4585 7.95835 13.1152 9.30146 13.1152 10.9583C13.1154 12.6149 14.4586 13.9582 16.1152 13.9583C17.772 13.9583 19.1151 12.615 19.1152 10.9583C19.1152 9.3014 17.7721 7.95825 16.1152 7.95825Z" fill="#158AC1"/>
</svg>
