<svg width="25" height="24" viewBox="0 0 25 24" fill="none" xmlns="http://www.w3.org/2000/svg">
<path d="M1.02063 1.99951C1.02089 1.44745 1.4685 0.999512 2.02063 0.999512H22.0167C22.5686 0.999754 23.0165 1.4476 23.0167 1.99951V5.09521C22.4297 4.49767 21.7361 4.00599 20.9669 3.64893C20.8247 3.27023 20.4607 2.9997 20.0323 2.99951H4.02844C3.47632 2.99951 3.0287 3.44745 3.02844 3.99951L3.02844 19.9995C3.02844 20.5518 3.47616 20.9995 4.02844 20.9995H20.0323C20.5844 20.9993 21.0323 20.5516 21.0323 19.9995V16.3218C21.7757 15.9674 22.4462 15.4855 23.0167 14.9048V21.9995C23.0167 22.5516 22.5688 22.9993 22.0167 22.9995H2.02063C1.46835 22.9995 1.02063 22.5518 1.02063 21.9995L1.02063 1.99951Z" fill="#4A4A4A"/>
<path d="M6.02332 6.0022C6.02333 5.45005 6.47121 5.0024 7.02332 5.0022H13.1239C12.5381 5.57657 12.0521 6.25234 11.6962 7.0022H7.02332C6.4712 7.002 6.02332 6.55436 6.02332 6.0022ZM6.02332 12.0002C6.02333 11.4481 6.47121 11.0004 7.02332 11.0002H11.0956C11.1651 11.4861 11.2832 11.9562 11.4471 12.4045L10.8514 13.0002H7.02332C6.47128 13 6.02345 12.5523 6.02332 12.0002ZM6.02332 9.00024C6.02333 8.44809 6.47121 8.00045 7.02332 8.00024H11.3153C11.1267 8.63403 11.0233 9.30518 11.0233 10.0002H7.02332C6.47128 10 6.02345 9.55229 6.02332 9.00024ZM6.02332 15.0002C6.02333 14.4481 6.47118 14.0004 7.02332 14.0002H9.85144L7.85144 16.0002H7.02332C6.47126 16.0001 6.02345 15.5523 6.02332 15.0002Z" fill="#4A4A4A"/>
<path d="M18.0237 5C20.7849 5.00012 23.0237 7.23877 23.0237 10C23.0236 12.7611 20.7848 14.9999 18.0237 15C15.2624 15 13.0238 12.7612 13.0237 10C13.0237 7.2387 15.2624 5 18.0237 5ZM18.0237 7C16.3668 7 15.0237 8.34315 15.0237 10C15.0237 11.6568 16.3668 13 18.0237 13C19.6805 13 21.0237 11.6568 21.0237 10C21.0237 8.34315 19.6805 7 18.0237 7Z" fill="#158AC1"/>
<rect x="8.02368" y="17.9497" width="7" height="1.99937" rx="0.999683" transform="rotate(-45 8.02368 17.9497)" fill="#158AC1"/>
</svg>
