<svg width="24" height="25" viewBox="0 0 24 25" fill="none" xmlns="http://www.w3.org/2000/svg">
<path d="M18.5585 23.9714C19.0025 23.4763 19.2871 22.8352 19.3231 22.1267L19.327 21.9714H20.0087C20.5607 21.9712 21.0087 21.5236 21.0087 20.9714V13.9158C21.6655 13.3021 22.3305 12.702 22.9745 12.0593C22.9809 12.053 22.9867 12.0462 22.993 12.0398V22.9714C22.993 23.5236 22.5451 23.9712 21.993 23.9714H18.5585ZM21.993 1.97144C22.545 1.97168 22.9928 2.41952 22.993 2.97144V3.92358C22.4508 3.09858 21.7583 2.38513 21.0927 1.97144H21.993ZM0.996948 2.97144C0.997206 2.41937 1.44482 1.97144 1.99695 1.97144H12.4012C11.4758 2.46881 10.7103 3.17087 10.2089 3.97144H4.00476C3.45264 3.97144 3.00502 4.41937 3.00476 4.97144L3.00476 20.9714C3.00476 21.5237 3.45248 21.9714 4.00476 21.9714H13.327C13.327 22.7403 13.618 23.4405 14.0936 23.9714H1.99695C1.44466 23.9714 0.996948 23.5237 0.996948 22.9714L0.996948 2.97144Z" fill="#4A4A4A"/>
<path d="M5.99963 9.97217C5.99964 9.42002 6.44753 8.97237 6.99963 8.97217H11.4557C11.7538 9.04422 12.072 9.05915 12.3834 9.02588C12.4879 9.01471 12.5888 8.99472 12.6871 8.97217H14.9996C15.5519 8.97217 15.9996 9.41989 15.9996 9.97217C15.9995 10.5243 15.5518 10.9722 14.9996 10.9722H6.99963C6.4476 10.972 5.99977 10.5242 5.99963 9.97217ZM14.1901 7.97412C14.5219 7.54298 14.7616 7.01447 14.9078 6.44971C14.9561 6.26317 15.0238 6.10617 15.1178 5.98193C15.6145 6.0403 15.9996 6.46175 15.9996 6.97412C15.9996 7.52641 15.5519 7.97412 14.9996 7.97412H14.1901ZM5.99963 12.9722C5.99964 12.42 6.44753 11.9724 6.99963 11.9722H14.9996C15.1409 11.9722 15.2753 12.0023 15.3971 12.0552C14.9351 12.5643 14.5359 13.1464 14.1686 13.9722H6.99963C6.4476 13.972 5.99977 13.5242 5.99963 12.9722ZM5.99963 15.9722C5.99964 15.42 6.4475 14.9723 6.99963 14.9722H13.8551C13.7361 15.7474 13.8064 16.4201 14.0123 16.9722H6.99963C6.44757 16.972 5.99977 16.5242 5.99963 15.9722ZM5.99963 6.97412C5.99964 6.42197 6.44753 5.97432 6.99963 5.97412H9.56799C9.54904 6.64727 9.72938 7.32853 10.152 7.97412H6.99963C6.44752 7.97392 5.99963 7.52628 5.99963 6.97412Z" fill="#4A4A4A"/>
<path d="M16.2206 17.7458C15.5237 17.7458 14.9482 17.1799 14.9981 16.4847C15.0484 15.7828 15.1572 15.0833 15.3793 14.4227C15.6457 13.6305 16.0243 12.989 16.5151 12.4982C17.0058 12.0074 17.5947 11.5552 18.2818 11.1416C18.6954 10.8892 19.067 10.5913 19.3965 10.2477C19.726 9.89718 19.9854 9.49406 20.1747 9.03836C20.371 8.58265 20.4692 8.07787 20.4692 7.52402C20.4692 6.83696 20.3079 6.24103 19.9854 5.73625C19.6629 5.23147 19.2318 4.84237 18.6919 4.56895C18.1521 4.29553 17.5527 4.15882 16.8937 4.15882C16.3188 4.15882 15.7649 4.278 15.2321 4.51637C14.6993 4.75474 14.2541 5.12982 13.8965 5.64161C13.7361 5.8713 13.606 6.13276 13.5062 6.426C13.2798 7.09165 12.7301 7.65021 12.027 7.65021C11.2641 7.65021 10.6377 7.00536 10.8236 6.26549C10.9788 5.64754 11.2215 5.08904 11.5514 4.58998C12.1193 3.74167 12.8659 3.09317 13.7914 2.64448C14.7238 2.19578 15.7579 1.97144 16.8937 1.97144C18.1276 1.97144 19.2002 2.21681 20.1116 2.70757C21.0301 3.19833 21.7381 3.87137 22.2359 4.72669C22.7407 5.58202 22.9931 6.55652 22.9931 7.65021C22.9931 8.4214 22.8739 9.11898 22.6355 9.74295C22.4042 10.3669 22.0677 10.9243 21.626 11.415C21.1913 11.9058 20.6655 12.3405 20.0485 12.719C19.4316 13.1046 18.9373 13.5113 18.5657 13.9389C18.1942 14.3596 17.9243 14.8609 17.756 15.4428C17.6576 15.783 17.592 16.133 17.5498 16.4864C17.4671 17.1784 16.9176 17.7458 16.2206 17.7458ZM16.3048 23.9714C15.786 23.9714 15.3408 23.7857 14.9692 23.4141C14.5976 23.0425 14.4118 22.5973 14.4118 22.0785C14.4118 21.5597 14.5976 21.1145 14.9692 20.7429C15.3408 20.3714 15.786 20.1856 16.3048 20.1856C16.8236 20.1856 17.2687 20.3714 17.6403 20.7429C18.0119 21.1145 18.1977 21.5597 18.1977 22.0785C18.1977 22.422 18.11 22.7375 17.9348 23.025C17.7665 23.3124 17.5387 23.5438 17.2512 23.719C16.9708 23.8873 16.6553 23.9714 16.3048 23.9714Z" fill="#158AC1"/>
</svg>
