<svg width="25" height="24" viewBox="0 0 25 24" fill="none" xmlns="http://www.w3.org/2000/svg">
<g clip-path="url(#clip0_131_379)">
<rect width="24" height="24" transform="translate(0.0236816)" fill="white"/>
<circle cx="17.0215" cy="4.5" r="1.5" fill="#4A4A4A"/>
<circle cx="19.5237" cy="16.5" r="2.5" fill="#4A4A4A"/>
<path d="M21.047 0.907479C21.2289 0.765717 21.4967 0.873766 21.5288 1.10231L23.0129 11.6688C23.0449 11.8974 22.8176 12.0752 22.6035 11.9887L12.7106 7.99183C12.4966 7.90534 12.4564 7.61937 12.6382 7.47714L13.8217 6.55244L20.3611 9.25818C20.7274 9.40949 21.1161 9.09448 21.0441 8.70475L19.7857 1.8929L21.047 0.907479Z" fill="#158AC1"/>
<path d="M12.0242 1.08105C13.7051 1.08105 15.2976 1.45961 16.7224 2.13379C15.7589 2.25433 14.9754 2.94764 14.7224 3.86328C13.8696 3.58208 12.9585 3.42773 12.0115 3.42773C7.23343 3.42802 3.3594 7.30203 3.35913 12.0801C3.35913 16.8584 7.23327 20.7321 12.0115 20.7324C13.7528 20.7324 15.3728 20.2162 16.7302 19.3311C17.3643 19.9568 18.2072 20.3704 19.1453 20.459C17.2261 22.0916 14.7412 23.0791 12.0242 23.0791C5.94986 23.0788 1.02515 18.1545 1.02515 12.0801C1.02547 6.00597 5.95006 1.08135 12.0242 1.08105Z" fill="#4A4A4A"/>
</g>
<defs>
<clipPath id="clip0_131_379">
<rect width="24" height="24" fill="white" transform="translate(0.0236816)"/>
</clipPath>
</defs>
</svg>
