<svg width="25" height="25" viewBox="0 0 25 25" fill="none" xmlns="http://www.w3.org/2000/svg">
<circle cx="18.3246" cy="7.5" r="4.5" fill="white"/>
<path d="M18.3246 2.5C15.5632 2.5 13.3246 4.73858 13.3246 7.5C13.3247 10.2613 15.5632 12.5 18.3246 12.5C21.0859 12.5 23.3245 10.2613 23.3246 7.5C23.3246 4.73861 21.086 2.50005 18.3246 2.5ZM19.9896 10.5781C19.4943 10.8466 18.9275 11 18.3246 11C16.3916 11 14.8246 9.433 14.8246 7.5C14.8246 6.89706 14.978 6.33024 15.2465 5.83496L19.9896 10.5781ZM18.3246 4C20.2576 4 21.8246 5.56701 21.8246 7.5C21.8246 8.10247 21.6718 8.66906 21.4037 9.16406L16.6605 4.4209C17.1555 4.15282 17.7221 4 18.3246 4Z" fill="#F57C00"/>
</svg>
