<svg width="24" height="24" viewBox="0 0 24 24" fill="none" xmlns="http://www.w3.org/2000/svg">
<path d="M9.9879 3.40998C10.6312 3.92585 10.2665 4.96387 9.44184 4.96387C9.23596 4.96387 9.03671 4.89109 8.87929 4.75841L8.25875 4.23538C8.0784 4.08337 7.85013 4 7.61427 4H3.99414C3.44186 4 2.99414 4.44772 2.99414 5V19C2.99414 19.5523 3.44186 20 3.99414 20H4.875C5.42728 20 5.875 20.4477 5.875 21C5.875 21.5523 5.42728 22 4.875 22H2C1.44772 22 1 21.5523 1 21V3C1 2.44772 1.44772 2 2 2H7.87808C8.10554 2 8.3262 2.07754 8.50365 2.21984L9.9879 3.40998Z" fill="#555555"/>
<path d="M16 9.98633H23V21H7V6H16V9.98633ZM16 13H18V14H16V16H18V17H16V19.0264H21.0371V12H16V13ZM9 19H11V17H9V19ZM12 19H14V17H12V19ZM20 17H19V16H20V17ZM9 16H11V14H9V16ZM12 16H14V14H12V16ZM20 14H19V13H20V14ZM9 13H11V11H9V13ZM12 13H14V11H12V13ZM9 10H11V8H9V10ZM12 10H14V8H12V10Z" fill="#757575"/>
<circle cx="19" cy="5" r="4.5" fill="white"/>
<path d="M19 0C16.2386 0 14 2.23858 14 5C14.0001 7.76132 16.2386 10 19 10C21.7613 9.99995 23.9999 7.76129 24 5C24 2.23861 21.7614 4.69632e-05 19 0ZM20.665 8.07812C20.1698 8.3466 19.6029 8.5 19 8.5C17.067 8.5 15.5 6.933 15.5 5C15.5 4.39706 15.6534 3.83024 15.9219 3.33496L20.665 8.07812ZM19 1.5C20.933 1.5 22.5 3.06701 22.5 5C22.5 5.60247 22.3472 6.16906 22.0791 6.66406L17.3359 1.9209C17.8309 1.65282 18.3975 1.5 19 1.5Z" fill="#F57C00"/>
</svg>
