<svg width="24" height="24" viewBox="0 0 24 24" fill="none" xmlns="http://www.w3.org/2000/svg">
<g clip-path="url(#clip0_169_515)">
<path d="M11.7258 4.8036C11.9033 4.94589 12.124 5.02344 12.3514 5.02344H22C22.5523 5.02344 23 5.47115 23 6.02344V7.00391C23 7.55619 22.5523 8.00391 22 8.00391H21.4868C21.2126 8.00391 20.9902 7.78158 20.9902 7.50732C20.9902 7.23307 20.7679 7.01074 20.4937 7.01074H11.9161C11.6802 7.01074 11.4519 6.92735 11.2715 6.7753L8.25877 4.23544C8.07841 4.08339 7.85011 4 7.61421 4H3.99414C3.44186 4 2.99414 4.44772 2.99414 5V19.5488C2.99414 19.798 3.19614 20 3.44531 20H3.89307C3.89495 20 3.89648 20.0015 3.89648 20.0034C3.89648 20.0053 3.89801 20.0068 3.8999 20.0068H22.0034C22.5538 20.0068 23 20.453 23 21.0034C23 21.5538 22.5538 22 22.0034 22H2C1.44772 22 1 21.5523 1 21V3C1 2.44772 1.44772 2 2 2H7.87807C8.10553 2 8.3262 2.07755 8.50365 2.21984L11.7258 4.8036Z" fill="#555555"/>
<path d="M15 14.2651V9.40791C15 9.13327 15.1963 9 15.5341 9H16.6346C16.9725 9 17.0099 9.14993 17.0099 9.42457V14.2114C17.0099 15.8773 17.3769 16.9339 19.015 16.9339C20.7128 16.9339 21.0021 15.8718 21.0021 14.2114V9.42591C21.0021 9.15127 21.0608 9.00134 21.3986 9.00134H22.4991C22.837 9.00134 23.0059 9.13866 23.0059 9.41329V14.2692C23.0059 16.0169 22.6488 17.2428 21.9344 17.9468C21.22 18.6459 20.2475 18.9954 19.0166 18.9954C17.7858 18.9954 16.8132 18.6459 16.0989 17.9468C15.3845 17.2428 15 16.0128 15 14.2651Z" fill="#757575"/>
<path d="M4.01038 13.4997C4.01038 11.8166 4.44222 10.4798 5.3059 9.48945C6.16958 8.49909 7.40203 8.00391 9.00323 8.00391C10.6044 8.00391 11.8369 8.49909 12.7006 9.48945C13.5643 10.4798 13.9961 11.8166 13.9961 13.4997C13.9961 15.1828 13.5643 16.5196 12.7006 17.5099C11.8369 18.5003 10.6044 18.9955 9.00323 18.9955C7.40203 18.9955 6.16958 18.5003 5.3059 17.5099C4.44222 16.5196 4.01038 15.1828 4.01038 13.4997ZM6.00678 13.4997C6.00678 15.4235 7.00342 17.0974 9.00323 17.0974C10.9912 17.0974 12.0117 15.4172 12.0117 13.4997C12.0117 11.477 11.0061 10.0427 9.00323 10.0427C6.98885 10.0427 6.00678 11.4709 6.00678 13.4997Z" fill="#757575"/>
<circle cx="19.003" cy="5" r="4.5" fill="white"/>
<path d="M19.003 0C16.2416 0 14.003 2.23858 14.003 5C14.0031 7.76132 16.2416 10 19.003 10C21.7643 9.99995 24.0029 7.76129 24.003 5C24.003 2.23861 21.7644 4.69632e-05 19.003 0ZM20.668 8.07812C20.1728 8.3466 19.6059 8.5 19.003 8.5C17.07 8.5 15.503 6.933 15.503 5C15.503 4.39706 15.6564 3.83024 15.9249 3.33496L20.668 8.07812ZM19.003 1.5C20.936 1.5 22.503 3.06701 22.503 5C22.503 5.60247 22.3502 6.16906 22.0821 6.66406L17.3389 1.9209C17.8339 1.65282 18.4005 1.5 19.003 1.5Z" fill="#F57C00"/>
</g>
<defs>
<clipPath id="clip0_169_515">
<rect width="24" height="24" fill="white"/>
</clipPath>
</defs>
</svg>
