<svg width="25" height="24" viewBox="0 0 25 24" fill="none" xmlns="http://www.w3.org/2000/svg">
<rect width="24" height="24" transform="translate(0.0236816)" fill="white"/>
<path d="M12.0237 2C14.785 2.00009 17.0237 4.23866 17.0237 7C17.0237 9.76132 14.785 11.9999 12.0237 12C9.2623 12 7.02371 9.76138 7.02368 7C7.02368 4.2386 9.26228 2 12.0237 2ZM12.0237 3.53418C10.1096 3.53418 8.55786 5.08595 8.55786 7C8.55786 8.91406 10.1096 10.4658 12.0237 10.4658C13.9377 10.4658 15.4895 8.91406 15.4895 7C15.4895 5.08595 13.9377 3.53418 12.0237 3.53418Z" fill="#158AC1"/>
<path d="M5.02368 22.0004L3.02368 22.0005L3.00891 17.0149C3.00891 13.5648 5.56665 12.9707 8.0122 12.9708C9.619 12.9708 10.7925 13.9627 12.0238 13.9697C13.2764 13.9769 14.7727 13.0339 16.0238 12.9708C18.4064 12.8505 21.0237 14.7414 21.0237 17.0004V22.0005H19.0237V19C19.0237 16.0005 17.4224 14.9929 16.0238 14.9929C14.3782 14.9929 14.0775 16.0006 12.0237 16.0005C9.97002 16.0004 9.03341 14.9929 8.0122 14.9929C6.57958 14.9929 5.02368 16 4.98394 19.0461C4.91318 20.4573 5.02368 22.0004 5.02368 22.0004Z" fill="#4A4A4A"/>
<rect x="7.02368" y="19.0054" width="1" height="3" rx="0.5" transform="rotate(-0.14064 7.02368 19.0054)" fill="#4A4A4A"/>
<rect x="16.0237" y="19.0054" width="1" height="3" rx="0.5" transform="rotate(-0.14064 16.0237 19.0054)" fill="#4A4A4A"/>
</svg>
