<svg width="25" height="24" viewBox="0 0 25 24" fill="none" xmlns="http://www.w3.org/2000/svg">
<rect width="24" height="24" transform="translate(0.0236816)" fill="white"/>
<path d="M9.0238 6.07666C10.9567 6.07675 12.5238 7.64372 12.5238 9.57666C12.5237 11.5095 10.9567 13.0766 9.0238 13.0767C7.09085 13.0767 5.52387 11.5096 5.5238 9.57666C5.5238 7.64366 7.09081 6.07666 9.0238 6.07666ZM9.0238 7.57666C7.91923 7.57666 7.0238 8.47209 7.0238 9.57666C7.0238 10.6812 7.91923 11.5767 9.0238 11.5767C10.1284 11.5767 11.0238 10.6812 11.0238 9.57666C11.0238 8.47209 10.1284 7.57666 9.0238 7.57666Z" fill="#4A4A4A"/>
<path d="M16.0237 2C17.9566 2.00009 19.5237 3.56706 19.5237 5.5C19.5236 7.43289 17.9566 8.99991 16.0237 9C14.0907 9 12.5237 7.43294 12.5237 5.5C12.5237 3.567 14.0907 2 16.0237 2ZM16.0237 3.5C14.9191 3.5 14.0237 4.39543 14.0237 5.5C14.0237 6.60457 14.9191 7.5 16.0237 7.5C17.1283 7.5 18.0237 6.60457 18.0237 5.5C18.0237 4.39543 17.1283 3.5 16.0237 3.5Z" fill="#4A4A4A"/>
<path d="M12.0354 14.0557C13.3709 13.9883 15.1291 14.6891 15.7727 16H6.02368C5.02279 16 4.05147 15.9491 4.02368 18.0771C3.97451 19.0578 4.02315 21.9686 4.02368 22H2.02368V17.0771C2.02375 15.0802 4.34247 14.0556 6.05103 14.0557C7.17352 14.0558 8.16354 15.0752 9.02368 15.0801C9.89873 15.085 11.1614 14.1 12.0354 14.0557ZM16.0237 22H14.0237V19.999H16.0237V22ZM19.05 10.0049C20.7147 9.92088 23.0383 11.0291 23.0383 13.0264C23.0383 13.1284 23.0238 17.9706 23.0237 18H23.0217V16H21.0315C21.0338 15.388 21.0383 14.6985 21.0383 14.0264C21.0383 12.1101 20.188 12.0264 19.0383 12.0264H14.0237V10.0049C14.039 10.0183 15.1839 11.0243 16.0383 11.0293C16.9133 11.0343 18.176 10.0493 19.05 10.0049Z" fill="#4A4A4A"/>
<rect x="5.02136" y="18.0024" width="1" height="4" rx="0.5" transform="rotate(-0.14064 5.02136 18.0024)" fill="#4A4A4A"/>
<rect x="12.0214" y="18.0024" width="1" height="4" rx="0.5" transform="rotate(-0.14064 12.0214 18.0024)" fill="#4A4A4A"/>
<path d="M19.0237 14.0513C19.576 14.0513 20.0237 14.499 20.0237 15.0513V17.0513H22.0237C22.576 17.0513 23.0237 17.499 23.0237 18.0513C23.0237 18.6036 22.576 19.0513 22.0237 19.0513H20.0237V21.0513C20.0237 21.6036 19.576 22.0513 19.0237 22.0513C18.4714 22.0513 18.0237 21.6036 18.0237 21.0513V19.0513H16.0237C15.4714 19.0513 15.0237 18.6036 15.0237 18.0513C15.0237 17.499 15.4714 17.0513 16.0237 17.0513H18.0237V15.0513C18.0237 14.499 18.4714 14.0513 19.0237 14.0513Z" fill="#158AC1"/>
</svg>
