<svg width="24" height="25" viewBox="0 0 24 25" fill="none" xmlns="http://www.w3.org/2000/svg">
<path d="M23 17.9722C23 18.5245 22.5523 18.9722 22 18.9722H2C1.44772 18.9722 1 18.5245 1 17.9722V3.97217C1 3.41988 1.44772 2.97217 2 2.97217H22C22.5523 2.97217 23 3.41988 23 3.97217V17.9722ZM4.00293 4.97217C3.45064 4.97217 3.00293 5.41988 3.00293 5.97217V15.9722C3.00293 16.5245 3.45064 16.9722 4.00293 16.9722H20C20.5523 16.9722 21 16.5245 21 15.9722V5.97217C21 5.41988 20.5523 4.97217 20 4.97217H4.00293Z" fill="#158AC1"/>
<path d="M19 20.9719C19.5521 20.9721 20 21.4198 20 21.9719C20 22.5241 19.5521 22.9718 19 22.9719H5C4.44775 22.9719 4.00002 22.5242 4 21.9719C4 21.4197 4.44774 20.9719 5 20.9719H10.998V18.9719H13.002V20.9719H19Z" fill="#4A4A4A"/>
</svg>
