<svg width="24" height="25" viewBox="0 0 24 25" fill="none" xmlns="http://www.w3.org/2000/svg">
<path d="M11.7258 5.77552C11.9033 5.91782 12.124 5.99536 12.3514 5.99536H17.9276C18.5818 5.99536 19.0195 6.81776 19.0195 7.47192C19.0195 7.73718 18.824 7.98267 18.5588 7.98267H11.9161C11.6802 7.98267 11.4519 7.89927 11.2715 7.74722L8.25877 5.20736C8.07841 5.05532 7.85011 4.97192 7.61421 4.97192H3.99414C3.44186 4.97192 2.99414 5.41964 2.99414 5.97192V19.9719C2.99414 20.5242 3.44186 20.9719 3.99414 20.9719H19.9902C20.5425 20.9719 20.9902 20.5242 20.9902 19.9719V10.4122C20.9902 10.1474 21.2352 9.95239 21.5 9.95239C22.1609 9.95239 23 10.3952 23 11.056V21.9719C23 22.5242 22.5523 22.9719 22 22.9719H2C1.44772 22.9719 1 22.5242 1 21.9719V3.97192C1 3.41964 1.44772 2.97192 2 2.97192H7.87807C8.10553 2.97192 8.3262 3.04947 8.50365 3.19177L11.7258 5.77552Z" fill="#4A4A4A"/>
<circle cx="21.5" cy="7.47192" r="1.5" fill="#4A4A4A"/>
</svg>
