<svg width="24" height="25" viewBox="0 0 24 25" fill="none" xmlns="http://www.w3.org/2000/svg">
<path d="M11.7971 5.83269C11.9284 5.93798 12.0917 5.99536 12.26 5.99536C12.6687 5.99536 13 6.32665 13 6.73532V6.98901C13 7.53779 12.5551 7.98267 12.0063 7.98267H11.9161C11.6802 7.98267 11.4519 7.89927 11.2715 7.74722L8.25877 5.20736C8.07841 5.05532 7.85011 4.97192 7.61421 4.97192H3.99414C3.44186 4.97192 2.99414 5.41964 2.99414 5.97192V19.9719C2.99414 20.5242 3.44186 20.9719 3.99414 20.9719H19.9902C20.5425 20.9719 20.9902 20.5242 20.9902 19.9719V17.9719C20.9902 17.4196 21.4428 16.9719 21.9951 16.9719C22.5474 16.9719 23 17.4196 23 17.9719V21.9719C23 22.5242 22.5523 22.9719 22 22.9719H2C1.44772 22.9719 1 22.5242 1 21.9719V3.97192C1 3.41964 1.44772 2.97192 2 2.97192H7.87807C8.10553 2.97192 8.3262 3.04947 8.50365 3.19177L11.7971 5.83269Z" fill="#4A4A4A"/>
<path d="M17.1787 5.97144C19.9551 5.97144 22.2058 8.22243 22.2061 10.9988C22.2061 11.6213 22.0916 12.2171 21.8848 12.7673C21.3982 12.5641 20.9451 12.3019 20.5361 11.988C20.6283 11.6745 20.6787 11.3431 20.6787 10.9998C20.6787 9.06676 19.1117 7.49976 17.1787 7.49976C15.2459 7.49997 13.6787 9.06689 13.6787 10.9998C13.6788 11.3033 13.7174 11.5979 13.79 11.8787C13.3859 12.2085 12.9353 12.4865 12.4492 12.7048C12.2571 12.1722 12.1514 11.5976 12.1514 10.9988C12.1516 8.22256 14.4025 5.97165 17.1787 5.97144Z" fill="#158AC1"/>
<path d="M18.5029 8.97144C19.2076 10.9353 20.9105 12.4232 23 12.824C22.4822 14.3342 21.8349 15.9475 21.1523 16.9714C20.3576 18.5603 17.1726 19.9622 17.1494 19.9724C17.1328 19.9651 13.948 18.5618 13.1523 16.9714C12.4689 15.9461 11.8218 14.329 11.3037 12.8171C13.376 12.4057 15.0623 10.9235 15.7627 8.97144H18.5029ZM15.8086 10.9724C15.3101 12.1855 14.2311 13.0994 12.917 13.366C13.1373 14.0303 13.3698 14.7295 13.5732 15.3103C13.8402 16.0973 17.1338 18.9724 17.1338 18.9724C17.152 18.9569 20.5093 16.1067 20.75 15.3103C20.9521 14.7321 21.1754 14.0372 21.3857 13.3767C20.0434 13.1267 18.938 12.2046 18.4316 10.9724H15.8086Z" fill="#158AC1"/>
<path d="M17.1515 11.9719C17.9799 11.972 18.6515 12.6435 18.6515 13.4719C18.6513 14.1252 18.2325 14.6784 17.6495 14.884L18.6515 16.9719H15.6515L16.7247 14.9084C16.1045 14.7246 15.6517 14.1518 15.6515 13.4719C15.6515 12.6435 16.3231 11.9719 17.1515 11.9719Z" fill="#4A4A4A"/>
</svg>
