<svg width="24" height="25" viewBox="0 0 24 25" fill="none" xmlns="http://www.w3.org/2000/svg">
<path d="M11.7258 5.77552C11.9033 5.91782 12.124 5.99536 12.3514 5.99536H22C22.5523 5.99536 23 6.44308 23 6.99536V7.97583C23 8.52811 22.5523 8.97583 22 8.97583H21.4868C21.2126 8.97583 20.9902 8.7535 20.9902 8.47925C20.9902 8.20499 20.7679 7.98267 20.4937 7.98267H11.9161C11.6802 7.98267 11.4519 7.89927 11.2715 7.74722L8.25877 5.20736C8.07841 5.05532 7.85011 4.97192 7.61421 4.97192H3.99414C3.44186 4.97192 2.99414 5.41964 2.99414 5.97192V20.5208C2.99414 20.7699 3.19614 20.9719 3.44531 20.9719H3.89307C3.89495 20.9719 3.89648 20.9735 3.89648 20.9753C3.89648 20.9772 3.89801 20.9788 3.8999 20.9788H22.0034C22.5538 20.9788 23 21.4249 23 21.9753C23 22.5257 22.5538 22.9719 22.0034 22.9719H2C1.44772 22.9719 1 22.5242 1 21.9719V3.97192C1 3.41964 1.44772 2.97192 2 2.97192H7.87807C8.10553 2.97192 8.3262 3.04947 8.50365 3.19177L11.7258 5.77552Z" fill="#4A4A4A"/>
<path d="M15 15.2371V10.3798C15 10.1052 15.1963 9.97192 15.5341 9.97192H16.6346C16.9725 9.97192 17.0099 10.1219 17.0099 10.3965V15.1834C17.0099 16.8492 17.3769 17.9058 19.015 17.9058C20.7128 17.9058 21.0021 16.8437 21.0021 15.1834V10.3978C21.0021 10.1232 21.0608 9.97326 21.3986 9.97326H22.4991C22.837 9.97326 23.0059 10.1106 23.0059 10.3852V15.2411C23.0059 16.9888 22.6488 18.2147 21.9344 18.9187C21.22 19.6178 20.2475 19.9674 19.0166 19.9674C17.7858 19.9674 16.8132 19.6178 16.0989 18.9187C15.3845 18.2147 15 16.9848 15 15.2371Z" fill="#158AC1"/>
<path d="M4.01038 14.4716C4.01038 12.7885 4.44222 11.4517 5.3059 10.4614C6.16958 9.47101 7.40203 8.97583 9.00323 8.97583C10.6044 8.97583 11.8369 9.47101 12.7006 10.4614C13.5643 11.4517 13.9961 12.7885 13.9961 14.4716C13.9961 16.1548 13.5643 17.4915 12.7006 18.4819C11.8369 19.4722 10.6044 19.9674 9.00323 19.9674C7.40203 19.9674 6.16958 19.4722 5.3059 18.4819C4.44222 17.4915 4.01038 16.1548 4.01038 14.4716ZM6.00678 14.4716C6.00678 16.3954 7.00342 18.0693 9.00323 18.0693C10.9912 18.0693 12.0117 16.3891 12.0117 14.4716C12.0117 12.449 11.0061 11.0146 9.00323 11.0146C6.98885 11.0146 6.00678 12.4429 6.00678 14.4716Z" fill="#158AC1"/>
</svg>
