<svg width="24" height="25" viewBox="0 0 24 25" fill="none" xmlns="http://www.w3.org/2000/svg">
<path d="M12 2.97192C14.7613 2.97202 17 5.21058 17 7.97192C17 10.7332 14.7613 12.9718 12 12.9719C9.23862 12.9719 7.00003 10.7333 7 7.97192C7 5.21053 9.2386 2.97192 12 2.97192ZM12 4.5061C10.0859 4.5061 8.53418 6.05787 8.53418 7.97192C8.53418 9.88598 10.0859 11.4377 12 11.4377C13.9141 11.4377 15.4658 9.88598 15.4658 7.97192C15.4658 6.05787 13.9141 4.5061 12 4.5061Z" fill="#158AC1"/>
<path d="M5.00012 22.9723L3.00012 22.9724L2.98535 17.9869C2.98535 14.5367 5.54309 13.9426 7.98864 13.9427C9.59544 13.9428 10.769 14.9346 12.0002 14.9417C13.2529 14.9488 14.7491 14.0058 16.0002 13.9427C18.3828 13.8225 21.0001 15.7133 21.0001 17.9723V22.9724H19.0001V19.9719C19.0001 16.9724 17.3988 15.9648 16.0002 15.9648C14.3546 15.9648 14.0539 16.9725 12.0002 16.9724C9.94646 16.9723 9.00986 15.9648 7.98864 15.9648C6.55602 15.9648 5.00012 16.9719 4.96038 20.018C4.88962 21.4292 5.00012 22.9723 5.00012 22.9723Z" fill="#4A4A4A"/>
<rect x="7" y="19.9771" width="1" height="3" rx="0.5" transform="rotate(-0.14064 7 19.9771)" fill="#4A4A4A"/>
<rect x="16" y="19.9771" width="1" height="3" rx="0.5" transform="rotate(-0.14064 16 19.9771)" fill="#4A4A4A"/>
</svg>
