<svg width="25" height="24" viewBox="0 0 25 24" fill="none" xmlns="http://www.w3.org/2000/svg">
<path d="M11.6316 4.70855C11.8683 4.89835 12.0061 5.18535 12.0061 5.48877V6.69459C12.0061 6.86919 11.8646 7.01074 11.6899 7.01074C11.6154 7.01074 11.5432 6.98438 11.4862 6.93631L8.28245 4.23544C8.10209 4.08339 7.87379 4 7.6379 4H4.01782C3.46554 4 3.01782 4.44772 3.01782 5V19C3.01782 19.5523 3.46554 20 4.01782 20H20.0139C20.5662 20 21.0139 19.5523 21.0139 19V17.8457C21.0139 17.2934 21.4665 16.8457 22.0188 16.8457C22.5711 16.8457 23.0237 17.2934 23.0237 17.8457V21C23.0237 21.5523 22.576 22 22.0237 22H2.02368C1.4714 22 1.02368 21.5523 1.02368 21V3C1.02368 2.44772 1.4714 2 2.02368 2H7.9018C8.12924 2 8.34987 2.07752 8.52732 2.21979L11.6316 4.70855Z" fill="#4A4A4A"/>
<path d="M19.3918 4.99951C19.97 6.57683 21.2517 7.89422 22.929 8.6958C23.1313 10.4294 23.067 12.3732 22.1155 13.5718C21.0945 15.2859 17.5227 17.0005 17.5227 17.0005C17.4872 16.9834 13.9457 15.2773 12.9299 13.5718C11.9786 12.3732 11.9141 10.4293 12.1165 8.6958C13.7937 7.89422 15.0755 6.57682 15.6536 4.99951H19.3918ZM16.8918 6.71436C16.5279 8.09743 15.3685 9.2282 13.8372 9.75342C13.8799 10.8575 14.039 12.0066 14.4612 12.7144C14.9684 13.9923 17.4922 15.2702 17.5227 15.2856C17.5457 15.2741 20.0772 13.9942 20.5852 12.7144C21.0071 12.0055 21.1645 10.8567 21.2073 9.75342C19.6767 9.22799 18.5184 8.09695 18.1545 6.71436H16.8918Z" fill="#158AC1"/>
</svg>
