<svg width="25" height="24" viewBox="0 0 25 24" fill="none" xmlns="http://www.w3.org/2000/svg">
<rect width="24" height="24" transform="translate(0.0236816)" fill="white"/>
<path d="M12.0237 2C14.785 2.00009 17.0237 4.23866 17.0237 7C17.0237 9.76132 14.785 11.9999 12.0237 12C9.2623 12 7.02371 9.76138 7.02368 7C7.02368 4.2386 9.26228 2 12.0237 2ZM12.0237 3.53418C10.1096 3.53418 8.55786 5.08595 8.55786 7C8.55786 8.91406 10.1096 10.4658 12.0237 10.4658C13.9377 10.4658 15.4895 8.91406 15.4895 7C15.4895 5.08595 13.9377 3.53418 12.0237 3.53418Z" fill="#4A4A4A"/>
<path d="M16.0315 14.9922C16.0289 14.9922 16.0263 14.9922 16.0237 14.9922C14.3782 14.9922 14.0774 16.0001 12.0237 16C9.97 15.9999 9.03317 14.9922 8.01196 14.9922C6.57941 14.9923 5.02338 16 4.98364 19.0459C4.91291 20.457 5.02368 22 5.02368 22H3.02368L3.00903 17.0146C3.00903 13.5646 5.56649 12.9706 8.01196 12.9707C9.61872 12.9708 10.7925 13.9626 12.0237 13.9697C13.2763 13.9769 14.7726 13.0339 16.0237 12.9707C16.0263 12.9706 16.0289 12.9699 16.0315 12.9697V14.9922ZM21.0237 22H20.0237V19.9727H21.0237V22ZM20.0237 14.6504C20.3907 15.0499 20.6766 15.5025 20.8469 15.9883H20.0237V14.6504Z" fill="#4A4A4A"/>
<rect x="7.02368" y="19.0054" width="1" height="3" rx="0.5" transform="rotate(-0.14064 7.02368 19.0054)" fill="#4A4A4A"/>
<path d="M18.0237 14C18.576 14 19.0237 14.4477 19.0237 15V17H21.0237C21.576 17 22.0237 17.4477 22.0237 18C22.0237 18.5523 21.576 19 21.0237 19H19.0237V21C19.0237 21.5523 18.576 22 18.0237 22C17.4714 22 17.0237 21.5523 17.0237 21V19H15.0237C14.4714 19 14.0237 18.5523 14.0237 18C14.0237 17.4477 14.4714 17 15.0237 17H17.0237V15C17.0237 14.4477 17.4714 14 18.0237 14Z" fill="#158AC1"/>
</svg>
