<svg width="25" height="24" viewBox="0 0 25 24" fill="none" xmlns="http://www.w3.org/2000/svg">
<path d="M1.7334 12.0002C1.46843 12.0002 1.3334 11.6817 1.51758 11.4915L11.8066 0.893799C11.9245 0.772449 12.1195 0.772467 12.2373 0.893799L22.5293 11.4915C22.7136 11.6816 22.5793 12 22.3145 12.0002H21.1455C21.0669 11.9996 20.9912 11.968 20.9355 11.9124L12.7305 3.70735C12.34 3.31683 11.7069 3.31683 11.3163 3.70735L3.11328 11.9104C3.06694 11.9567 3.00649 11.9863 2.94238 11.9954L2.46875 11.9944L2.89746 11.9983C2.91254 11.9984 2.92763 11.9974 2.94238 11.9954L21.1455 12.0002L1.7334 12.0002Z" fill="#158AC1"/>
<path d="M20.0234 12.0005V23.0005H4.02344V11.9995L20.0234 12.0005ZM6.02344 14.0005V21.0005H11.0234L11.0488 16.48H14.0234V21.0005H18.0234V14.0005H6.02344Z" fill="#4A4A4A"/>
<circle cx="12.0237" cy="8" r="2" transform="rotate(-90 12.0237 8)" fill="#4A4A4A"/>
</svg>
