<svg width="25" height="24" viewBox="0 0 25 24" fill="none" xmlns="http://www.w3.org/2000/svg">
<path d="M11.8208 4.86076C11.9521 4.96606 12.1154 5.02344 12.2837 5.02344V5.02344C12.6924 5.02344 13.0237 5.35473 13.0237 5.7634V6.01709C13.0237 6.56587 12.5788 7.01074 12.03 7.01074H11.9397C11.7038 7.01074 11.4755 6.92735 11.2952 6.7753L8.28245 4.23544C8.10209 4.08339 7.87379 4 7.6379 4H4.01782C3.46554 4 3.01782 4.44772 3.01782 5V19C3.01782 19.5523 3.46554 20 4.01782 20H20.0139C20.5662 20 21.0139 19.5523 21.0139 19V17C21.0139 16.4477 21.4665 16 22.0188 16V16C22.5711 16 23.0237 16.4477 23.0237 17V21C23.0237 21.5523 22.576 22 22.0237 22H2.02368C1.4714 22 1.02368 21.5523 1.02368 21V3C1.02368 2.44772 1.4714 2 2.02368 2H7.90175C8.12922 2 8.34988 2.07755 8.52734 2.21984L11.8208 4.86076Z" fill="#4A4A4A"/>
<path d="M18.2571 4.99951C18.9659 7.30225 20.7539 9.13093 23.0305 9.89795C22.5429 11.7599 21.8803 13.7361 21.0374 15.0005C20.0397 16.9951 16.5557 18.99 16.5374 19.0005C16.5092 18.9843 13.0336 16.9922 12.0374 15.0005C11.1837 13.72 10.513 11.7101 10.0237 9.82764C12.2035 9.02248 13.9063 7.23346 14.594 4.99951H18.2571ZM15.637 7.00049C14.9691 8.87576 13.2132 10.2343 11.1292 10.3179C11.445 11.2671 11.7738 12.2482 12.0374 13.0005C12.3702 13.9833 16.5086 16.9797 16.5374 17.0005C16.5434 16.9962 20.7365 14.0002 21.0374 13.0005C21.3003 12.2483 21.6283 11.2692 21.9436 10.3218C21.9379 10.3218 21.9318 10.3227 21.926 10.3228C19.7534 10.3228 17.9048 8.93637 17.2151 7.00049H15.637Z" fill="#158AC1"/>
<path d="M18.3925 10C18.6104 10.0002 18.755 10.2253 18.6649 10.4238L16.6307 14.8994C16.5241 15.1338 16.1914 15.1338 16.0848 14.8994L14.0507 10.4238C13.9608 10.2253 14.1061 10 14.3241 10H15.0468L15.8905 12.252C16.0527 12.6845 16.6648 12.6845 16.827 12.252L17.6718 10H18.3925Z" fill="#158AC1"/>
</svg>
