<svg width="24" height="25" viewBox="0 0 24 25" fill="none" xmlns="http://www.w3.org/2000/svg">
<path d="M10.6443 4.90827C11.1025 5.27567 11.1138 5.97 10.9873 6.54352C10.9566 6.68271 10.9404 6.82736 10.9404 6.97583C10.9404 7.17045 10.7129 7.27622 10.5641 7.15078L8.25876 5.20735C8.07841 5.05531 7.85011 4.97192 7.61423 4.97192H3.99414C3.44186 4.97192 2.99414 5.41964 2.99414 5.97192V19.9719C2.99414 20.5242 3.44186 20.9719 3.99414 20.9719H10.2598C10.6357 20.9719 10.9404 21.2767 10.9404 21.6526C10.9405 22.2134 10.5591 22.9719 9.99822 22.9719H2C1.44772 22.9719 1 22.5242 1 21.9719V3.97192C1 3.41964 1.44772 2.97192 2 2.97192H7.87808C8.10554 2.97192 8.3262 3.04947 8.50365 3.19176L10.6443 4.90827Z" fill="#4A4A4A"/>
<circle cx="21.5" cy="7.47192" r="1.5" fill="#4A4A4A"/>
<path d="M17.8907 5.96071C18.5565 5.96211 19.0011 6.80615 19.0011 7.47192C19.0011 7.73202 18.8077 7.97192 18.5476 7.97192H15.005C14.4527 7.97192 14.005 8.41964 14.005 8.97192V19.9709C14.0051 20.5232 14.4528 20.9709 15.005 20.9709H19.9923C20.5446 20.9709 20.9923 20.5232 20.9923 19.9709V10.4296C20.9923 10.1657 21.2362 9.97095 21.5001 9.97095C22.1616 9.97092 22.9962 10.4133 22.9962 11.0748V21.97C22.9961 22.5229 22.5472 22.9711 21.9943 22.97L12.9933 22.9504C12.4418 22.9493 11.9952 22.5019 11.9952 21.9504V6.95044C11.9953 6.39742 12.4442 5.94936 12.9972 5.95044L17.8907 5.96071Z" fill="#158AC1"/>
<circle cx="21.5" cy="7.47217" r="1.5" fill="#158AC1"/>
<rect x="15.0294" y="10.9832" width="4.94855" height="0.988892" rx="0.494446" fill="#158AC1"/>
<rect x="15.0294" y="12.9658" width="4.94855" height="0.988892" rx="0.494446" fill="#158AC1"/>
<rect x="15.0294" y="14.9487" width="4.94855" height="0.988892" rx="0.494446" fill="#158AC1"/>
</svg>
