<svg width="24" height="25" viewBox="0 0 24 25" fill="none" xmlns="http://www.w3.org/2000/svg">
<path d="M11.7258 5.77552C11.9033 5.91782 12.124 5.99536 12.3514 5.99536H22C22.5523 5.99536 23 6.44308 23 6.99536V15.8264C23 16.3787 22.5523 16.8264 22 16.8264H21.4272C21.1913 16.8264 21 16.6351 21 16.3992V15.9768C21 15.9741 20.9978 15.9719 20.9951 15.9719C20.9924 15.9719 20.9902 15.9697 20.9902 15.967V8.98267C20.9902 8.43038 20.5425 7.98267 19.9902 7.98267H11.9161C11.6802 7.98267 11.4519 7.89927 11.2715 7.74722L8.25877 5.20736C8.07841 5.05532 7.85011 4.97192 7.61421 4.97192H3.99414C3.44186 4.97192 2.99414 5.41964 2.99414 5.97192V20.5208C2.99414 20.7699 3.19614 20.9719 3.44531 20.9719H3.89307C3.89495 20.9719 3.89648 20.9735 3.89648 20.9753C3.89648 20.9772 3.89801 20.9788 3.8999 20.9788H16.0034C16.5538 20.9788 17 21.4249 17 21.9753C17 22.5257 16.5538 22.9719 16.0034 22.9719H2C1.44772 22.9719 1 22.5242 1 21.9719V3.97192C1 3.41964 1.44772 2.97192 2 2.97192H7.87807C8.10553 2.97192 8.3262 3.04947 8.50365 3.19177L11.7258 5.77552ZM22 20.9788C22.5504 20.9788 23 21.4249 23 21.9753C23 22.5257 22.5504 22.9719 22 22.9719C21.4496 22.9719 21 22.5257 21 21.9753C21 21.4249 21.4496 20.9788 22 20.9788Z" fill="#4A4A4A"/>
<path d="M11.5 13.0443V9.74869C11.5 9.56235 11.6332 9.47192 11.8624 9.47192H12.6091C12.8383 9.47192 12.8637 9.57365 12.8637 9.75999V13.0079C12.8637 14.1382 13.1127 14.855 14.2242 14.855C15.3761 14.855 15.5724 14.1344 15.5724 13.0079V9.7609C15.5724 9.57456 15.6122 9.47283 15.8414 9.47283H16.5881C16.8174 9.47283 16.932 9.566 16.932 9.75234V13.047C16.932 14.2328 16.6896 15.0646 16.2049 15.5423C15.7203 16.0166 15.0604 16.2538 14.2253 16.2538C13.3902 16.2538 12.7303 16.0166 12.2456 15.5423C11.7609 15.0646 11.5 14.2301 11.5 13.0443Z" fill="#4A4A4A"/>
<path d="M4 12.7008C4 11.5588 4.293 10.6518 4.87901 9.97986C5.46501 9.3079 6.30122 8.97192 7.38763 8.97192C8.47404 8.97192 9.31025 9.3079 9.89625 9.97986C10.4823 10.6518 10.7753 11.5588 10.7753 12.7008C10.7753 13.8428 10.4823 14.7498 9.89625 15.4217C9.31025 16.0937 8.47404 16.4296 7.38763 16.4296C6.30122 16.4296 5.46501 16.0937 4.87901 15.4217C4.293 14.7498 4 13.8428 4 12.7008ZM5.35455 12.7008C5.35455 14.0061 6.03077 15.1418 7.38763 15.1418C8.73646 15.1418 9.42889 14.0018 9.42889 12.7008C9.42889 11.3284 8.74653 10.3552 7.38763 10.3552C6.02087 10.3552 5.35455 11.3243 5.35455 12.7008Z" fill="#4A4A4A"/>
<path d="M19.006 14.9697C19.5583 14.9697 20.006 15.4174 20.006 15.9697V17.9697H22.006C22.5583 17.9697 23.006 18.4174 23.006 18.9697C23.006 19.522 22.5583 19.9697 22.006 19.9697H20.006V21.9697C20.006 22.522 19.5583 22.9697 19.006 22.9697C18.4537 22.9697 18.006 22.522 18.006 21.9697V19.9697H16.006C15.4537 19.9697 15.006 19.522 15.006 18.9697C15.006 18.4174 15.4537 17.9697 16.006 17.9697H18.006V15.9697C18.006 15.4174 18.4537 14.9697 19.006 14.9697Z" fill="#158AC1"/>
</svg>
