<svg width="25" height="24" viewBox="0 0 25 24" fill="none" xmlns="http://www.w3.org/2000/svg">
<rect width="24" height="24" transform="translate(0.0236816)" fill="white"/>
<path d="M9.0238 6.07666C10.9567 6.07675 12.5238 7.64372 12.5238 9.57666C12.5237 11.5095 10.9567 13.0766 9.0238 13.0767C7.09085 13.0767 5.52387 11.5096 5.5238 9.57666C5.5238 7.64366 7.09081 6.07666 9.0238 6.07666ZM9.0238 7.57666C7.91923 7.57666 7.0238 8.47209 7.0238 9.57666C7.0238 10.6812 7.91923 11.5767 9.0238 11.5767C10.1284 11.5767 11.0238 10.6812 11.0238 9.57666C11.0238 8.47209 10.1284 7.57666 9.0238 7.57666Z" fill="#4A4A4A"/>
<path d="M16.0237 2C17.9566 2.00009 19.5237 3.56706 19.5237 5.5C19.5236 7.43289 17.9566 8.99991 16.0237 9C14.0907 9 12.5237 7.43294 12.5237 5.5C12.5237 3.567 14.0907 2 16.0237 2ZM16.0237 3.5C14.9191 3.5 14.0237 4.39543 14.0237 5.5C14.0237 6.60457 14.9191 7.5 16.0237 7.5C17.1283 7.5 18.0237 6.60457 18.0237 5.5C18.0237 4.39543 17.1283 3.5 16.0237 3.5Z" fill="#158AC1"/>
<path d="M4.02368 22.0001H2.02368V17.0771C2.02368 15.0801 4.34221 14.0557 6.0508 14.0557C7.17339 14.0558 8.16345 15.0752 9.02365 15.0801C9.89881 15.0851 11.1617 14.0998 12.0357 14.0557C13.7004 13.9717 16.0237 15.0798 16.0237 17.0771V22.0001H14.0237V18.0771C14.0237 16.1608 13.1733 16.0771 12.0236 16.0771H9.02365H6.02365C5.02274 16.0771 4.05144 15.949 4.02368 18.0771C3.97424 19.063 4.02368 22.0001 4.02368 22.0001Z" fill="#4A4A4A"/>
<path d="M16.0384 12.0258H14.0238L14.0237 10.0045C14.0237 10.0045 15.1782 11.0239 16.0384 11.0288C16.9136 11.0338 18.1765 10.0486 19.0505 10.0045C20.7151 9.92045 23.0385 11.0285 23.0385 13.0258C23.0385 13.1131 23.0237 18 23.0237 18H21.0237C21.0237 18 21.0385 15.9421 21.0385 14.0258C21.0385 12.1096 20.1881 12.0258 19.0384 12.0258H16.0384Z" fill="#158AC1"/>
<rect x="5.02136" y="18.0024" width="1" height="4" rx="0.5" transform="rotate(-0.14064 5.02136 18.0024)" fill="#4A4A4A"/>
<rect x="12.0214" y="18.0024" width="1" height="4" rx="0.5" transform="rotate(-0.14064 12.0214 18.0024)" fill="#4A4A4A"/>
<rect x="19.0237" y="14.0024" width="1" height="4" rx="0.5" transform="rotate(-0.14064 19.0237 14.0024)" fill="#158AC1"/>
</svg>
