<svg width="24" height="25" viewBox="0 0 24 25" fill="none" xmlns="http://www.w3.org/2000/svg">
<path d="M11.7258 5.77552C11.9033 5.91782 12.124 5.99536 12.3514 5.99536H18.8162C19.1032 5.99536 19.2812 6.33133 19.1801 6.59989C19.1236 6.74964 18.9855 6.86239 18.8255 6.86216L10.5715 6.85037C10.3361 6.85004 10.1084 6.76666 9.92837 6.61493L8.25877 5.20737C8.07841 5.05532 7.85011 4.97192 7.61421 4.97192H3.99414C3.44186 4.97192 2.99414 5.41964 2.99414 5.97192V19.9719C2.99414 20.5242 3.44186 20.9719 3.99414 20.9719H7.31836C7.69482 20.9719 8 21.2771 8 21.6536C8 22.2143 7.61832 22.9719 7.0576 22.9719H2C1.44772 22.9719 1 22.5242 1 21.9719V3.97192C1 3.41964 1.44772 2.97192 2 2.97192H7.87807C8.10553 2.97192 8.3262 3.04947 8.50365 3.19177L11.7258 5.77552Z" fill="#4A4A4A"/>
<path d="M17.0124 18.9719H22.9899V22.9719H21.0544V20.9719H17.0124V22.9719H15.0397V20.9719H10.9968V22.9719H8.99677V18.9719H15.0397V17.9387H17.0124V18.9719Z" fill="#158AC1"/>
<path d="M23.0045 17.939H7.99963V12.9722H23.0045V17.939ZM9.00159 16.5786H9.99963V14.3325H9.00159V16.5786ZM11.0016 16.5786H11.9996V14.3325H11.0016V16.5786ZM13.0016 14.3325V16.5786H13.9996V14.3325H13.0016ZM18.0328 14.4556C17.4806 14.4556 17.0328 14.9033 17.0328 15.4556C17.0328 16.0079 17.4806 16.4556 18.0328 16.4556C18.5851 16.4556 19.0328 16.0079 19.0328 15.4556C19.0328 14.9033 18.5851 14.4556 18.0328 14.4556ZM20.9996 14.4556C20.4475 14.4558 19.9996 14.9034 19.9996 15.4556C19.9996 16.0077 20.4475 16.4554 20.9996 16.4556C21.5519 16.4556 21.9996 16.0079 21.9996 15.4556C21.9996 14.9033 21.5519 14.4556 20.9996 14.4556Z" fill="#158AC1"/>
<path d="M23.0045 11.9387H7.99963V6.97192H23.0045V11.9387ZM9.00159 10.5784H9.99963V8.33228H9.00159V10.5784ZM11.0016 10.5784H11.9996V8.33228H11.0016V10.5784ZM13.0016 8.33228V10.5784H13.9996V8.33228H13.0016ZM18.0328 8.45532C17.4806 8.45533 17.0328 8.90304 17.0328 9.45532C17.0328 10.0076 17.4806 10.4553 18.0328 10.4553C18.5851 10.4553 19.0328 10.0076 19.0328 9.45532C19.0328 8.90304 18.5851 8.45532 18.0328 8.45532ZM20.9996 8.45532C20.4475 8.45552 19.9996 8.90316 19.9996 9.45532C19.9996 10.0075 20.4475 10.4551 20.9996 10.4553C21.5519 10.4553 21.9996 10.0076 21.9996 9.45532C21.9996 8.90304 21.5519 8.45532 20.9996 8.45532Z" fill="#158AC1"/>
</svg>
