<svg width="24" height="25" viewBox="0 0 24 25" fill="none" xmlns="http://www.w3.org/2000/svg">
<path d="M9 7.04883C10.9329 7.04891 12.5 8.61588 12.5 10.5488C12.4999 12.4817 10.9329 14.0487 9 14.0488C7.06704 14.0488 5.50007 12.4818 5.5 10.5488C5.5 8.61583 7.067 7.04883 9 7.04883ZM9 8.54883C7.89543 8.54883 7 9.44426 7 10.5488C7 11.6534 7.89543 12.5488 9 12.5488C10.1046 12.5488 11 11.6534 11 10.5488C11 9.44426 10.1046 8.54883 9 8.54883Z" fill="#4A4A4A"/>
<path d="M16 2.97192C17.9329 2.97201 19.5 4.53898 19.5 6.47192C19.4999 8.40481 17.9329 9.97184 16 9.97192C14.067 9.97192 12.5001 8.40486 12.5 6.47192C12.5 4.53893 14.067 2.97192 16 2.97192ZM16 4.47192C14.8954 4.47192 14 5.36735 14 6.47192C14 7.57649 14.8954 8.47192 16 8.47192C17.1046 8.47192 18 7.57649 18 6.47192C18 5.36735 17.1046 4.47192 16 4.47192Z" fill="#158AC1"/>
<path d="M4 22.9718H2V18.0488C2 16.0517 4.31853 15.0273 6.02711 15.0274C7.14971 15.0274 8.13977 16.0468 8.99997 16.0517C9.87513 16.0567 11.138 15.0715 12.0121 15.0274C13.6767 14.9434 16 16.0515 16 18.0487V22.9718H14V19.0488C14 17.1325 13.1497 17.0487 12 17.0487H8.99997H5.99997C4.99906 17.0487 4.02776 16.9206 4 19.0488C3.95056 20.0347 4 22.9718 4 22.9718Z" fill="#4A4A4A"/>
<path d="M16.0147 12.9977H14.0001L14 10.9764C14 10.9764 15.1545 11.9958 16.0147 12.0007C16.8899 12.0057 18.1528 11.0205 19.0268 10.9764C20.6915 10.8924 23.0148 12.0004 23.0148 13.9977C23.0148 14.0851 23 18.9719 23 18.9719H21C21 18.9719 21.0148 16.914 21.0148 14.9978C21.0148 13.0815 20.1644 12.9977 19.0147 12.9977H16.0147Z" fill="#158AC1"/>
<rect x="4.99756" y="18.9744" width="1" height="4" rx="0.5" transform="rotate(-0.14064 4.99756 18.9744)" fill="#4A4A4A"/>
<rect x="11.9976" y="18.9744" width="1" height="4" rx="0.5" transform="rotate(-0.14064 11.9976 18.9744)" fill="#4A4A4A"/>
<rect x="19" y="14.9744" width="1" height="4" rx="0.5" transform="rotate(-0.14064 19 14.9744)" fill="#158AC1"/>
</svg>
