<svg width="24" height="25" viewBox="0 0 24 25" fill="none" xmlns="http://www.w3.org/2000/svg">
<path d="M10.6443 4.88605C11.1025 5.25346 11.1138 5.94779 10.9873 6.5213C10.9566 6.66049 10.9404 6.80514 10.9404 6.95361C10.9404 7.14823 10.7129 7.254 10.5641 7.12857L8.25876 5.18514C8.07841 5.0331 7.85011 4.94971 7.61423 4.94971H3.99414C3.44186 4.94971 2.99414 5.39742 2.99414 5.94971V19.9497C2.99414 20.502 3.44186 20.9497 3.99414 20.9497H10.2598C10.6357 20.9497 10.9404 21.2544 10.9404 21.6304C10.9405 22.1912 10.5591 22.9497 9.99822 22.9497H2C1.44772 22.9497 1 22.502 1 21.9497V3.94971C1 3.39742 1.44772 2.94971 2 2.94971H7.87808C8.10554 2.94971 8.3262 3.02725 8.50365 3.16954L10.6443 4.88605Z" fill="#4A4A4A"/>
<circle cx="21.5" cy="7.44971" r="1.5" fill="#4A4A4A"/>
<path d="M22.9962 21.9478C22.996 22.5006 22.5471 22.9488 21.9943 22.9478L20.9962 22.9448C20.4458 22.9436 20.0001 22.4972 20.0001 21.9468V21.4487C20.0001 21.1727 20.2241 20.9487 20.5001 20.9487C20.7761 20.9486 21.0001 20.7247 21.0001 20.4487L20.9936 10.4073C20.9934 10.1439 21.2367 9.94873 21.5001 9.94873C22.1616 9.9487 22.9962 10.3911 22.9962 11.0526V21.9478ZM17.0001 20.9487C17.5488 20.9487 17.9999 21.3933 18.0001 21.9419C18.0001 22.4914 17.5477 22.9371 16.9982 22.936C16.4502 22.935 16.0001 22.4899 16.0001 21.9419C16.0003 21.3933 16.4515 20.9487 17.0001 20.9487ZM13.0138 20.9565C13.5581 20.9565 13.9999 21.3976 14.0001 21.9419C14.0001 22.487 13.5578 22.929 13.0128 22.9282H12.9796C12.4359 22.9272 11.9952 22.4856 11.9952 21.9419C11.9954 21.3978 12.4365 20.9568 12.9806 20.9565H13.0138ZM12.9982 16.9497C13.5506 16.9497 14.0014 17.4011 14.0011 17.9536C14.0008 18.5057 13.5502 18.9565 12.9982 18.9565C12.446 18.9564 11.9952 18.5048 11.9952 17.9526C11.9954 17.4006 12.4461 16.9498 12.9982 16.9497ZM12.9991 12.9497C13.5514 12.9498 14.0021 13.3975 14.0021 13.9497C14.0018 14.5017 13.5511 14.9496 12.9991 14.9497C12.4469 14.9497 11.9953 14.5019 11.9952 13.9497C11.9952 13.3974 12.4469 12.9497 12.9991 12.9497ZM17.8907 5.93849C18.5565 5.93989 19.0011 6.78394 19.0011 7.44971C19.0011 7.70981 18.8077 7.94971 18.5476 7.94971H15.005C14.4528 7.94971 14.0052 8.39755 14.005 8.94971L14.004 9.94971C14.0038 10.5018 13.5521 10.9495 13.0001 10.9497C12.4479 10.9497 11.9953 10.5019 11.9952 9.94971V6.92822C11.9953 6.3752 12.4442 5.92714 12.9972 5.92822L17.8907 5.93849Z" fill="#158AC1"/>
<circle cx="21.5" cy="7.44995" r="1.5" fill="#158AC1"/>
<rect x="14.9999" y="10.9609" width="4.94855" height="0.988892" rx="0.494446" fill="#158AC1"/>
<rect x="14.9999" y="12.9436" width="4.94855" height="0.988892" rx="0.494446" fill="#158AC1"/>
<rect x="14.9999" y="14.9265" width="4.94855" height="0.988892" rx="0.494446" fill="#158AC1"/>
</svg>
