<svg width="25" height="24" viewBox="0 0 25 24" fill="none" xmlns="http://www.w3.org/2000/svg">
<path d="M3.52161 4.91242C3.32723 4.95614 3.07553 4.94654 3.04227 4.7501C3.02056 4.62179 3.07693 4.48026 3.22925 4.4209L11.9138 1.04199C11.9835 1.015 12.0609 1.01498 12.1306 1.04199L20.825 4.41992C20.9775 4.4792 21.0339 4.62083 21.012 4.74921C20.9786 4.94559 20.727 4.95519 20.5326 4.91152L12.2435 3.04927C12.0991 3.01683 11.9493 3.01685 11.8049 3.04933L3.52161 4.91242Z" fill="#158AC1"/>
<path d="M7.02393 23.0005H5.02393V5.00049H7.02393V23.0005ZM19.0239 23.0005H17.0239V5.00049H19.0239V23.0005Z" fill="#4A4A4A"/>
<rect x="8.02368" y="7" width="2" height="2" fill="#158AC1"/>
<rect x="11.0272" y="7" width="2" height="2" fill="#158AC1"/>
<rect x="14.0237" y="7" width="2" height="2" fill="#158AC1"/>
<rect x="14.0237" y="11" width="2" height="2" fill="#158AC1"/>
<rect x="14.0237" y="15" width="2" height="2" fill="#158AC1"/>
<rect x="11.0237" y="11" width="2" height="2" fill="#158AC1"/>
<rect x="11.0237" y="15" width="2" height="2" fill="#158AC1"/>
<rect x="13.0237" y="19.9985" width="2" height="3.00171" fill="#158AC1"/>
<rect x="8.02368" y="11" width="2" height="2" fill="#158AC1"/>
<rect x="8.02368" y="15" width="2" height="2" fill="#158AC1"/>
</svg>
