<svg width="24" height="25" viewBox="0 0 24 25" fill="none" xmlns="http://www.w3.org/2000/svg">
<path d="M11.7971 5.83269C11.9284 5.93798 12.0917 5.99536 12.26 5.99536C12.6687 5.99536 13 6.32665 13 6.73532V6.98901C13 7.53779 12.5551 7.98267 12.0063 7.98267H11.9161C11.6802 7.98267 11.4519 7.89927 11.2715 7.74722L8.25877 5.20736C8.07841 5.05532 7.85011 4.97192 7.61421 4.97192H3.99414C3.44186 4.97192 2.99414 5.41964 2.99414 5.97192V19.9719C2.99414 20.5242 3.44186 20.9719 3.99414 20.9719H19.9902C20.5425 20.9719 20.9902 20.5242 20.9902 19.9719V17.9719C20.9902 17.4196 21.4428 16.9719 21.9951 16.9719C22.5474 16.9719 23 17.4196 23 17.9719V21.9719C23 22.5242 22.5523 22.9719 22 22.9719H2C1.44772 22.9719 1 22.5242 1 21.9719V3.97192C1 3.41964 1.44772 2.97192 2 2.97192H7.87807C8.10553 2.97192 8.3262 3.04947 8.50365 3.19177L11.7971 5.83269Z" fill="#4A4A4A"/>
<path fill-rule="evenodd" clip-rule="evenodd" d="M18.2334 5.97241C18.9423 8.27489 20.7304 10.1029 23.0068 10.8699C22.5192 12.7318 21.8566 14.708 21.0137 15.9724C20.016 17.967 16.532 19.9619 16.5137 19.9724C16.4855 19.9563 13.0099 17.9641 12.0137 15.9724C11.1601 14.6919 10.4893 12.682 10 10.7996C12.1797 9.99445 13.8825 8.2062 14.5703 5.97241H18.2334ZM15.6133 7.97241C14.9454 9.84769 13.1895 11.2063 11.1055 11.2898C11.4213 12.239 11.7502 13.2201 12.0137 13.9724C12.3465 14.9553 16.4849 17.9516 16.5137 17.9724C16.5197 17.9681 20.7129 14.9721 21.0137 13.9724C21.2767 13.2202 21.6047 12.2411 21.9199 11.2937C21.9142 11.2937 21.9081 11.2946 21.9023 11.2947C19.7297 11.2947 17.8811 9.90829 17.1914 7.97241H15.6133Z" fill="#158AC1"/>
<path d="M18.3688 10.9719C18.5868 10.9721 18.7313 11.1972 18.6412 11.3958L16.6071 15.8713C16.5004 16.1057 16.1677 16.1058 16.0612 15.8713L14.027 11.3958C13.9371 11.1972 14.0824 10.9719 14.3004 10.9719H15.0231L15.8668 13.2239C16.0291 13.6564 16.6411 13.6565 16.8033 13.2239L17.6481 10.9719H18.3688Z" fill="#158AC1"/>
</svg>
