<svg width="25" height="24" viewBox="0 0 25 24" fill="none" xmlns="http://www.w3.org/2000/svg">
<path d="M11.8208 4.86076C11.9521 4.96606 12.1154 5.02344 12.2837 5.02344C12.6924 5.02344 13.0237 5.35473 13.0237 5.7634V6.01709C13.0237 6.56587 12.5788 7.01074 12.03 7.01074H11.9397C11.7038 7.01074 11.4755 6.92735 11.2952 6.7753L8.28245 4.23544C8.10209 4.08339 7.87379 4 7.6379 4H4.01782C3.46554 4 3.01782 4.44772 3.01782 5V19C3.01782 19.5523 3.46554 20 4.01782 20H14.8859C15.1351 20 15.3196 20.2284 15.3196 20.4775C15.3196 21.1467 14.8709 22 14.2017 22H2.02368C1.4714 22 1.02368 21.5523 1.02368 21V3C1.02368 2.44772 1.4714 2 2.02368 2H7.90175C8.12922 2 8.34988 2.07755 8.52734 2.21984L11.8208 4.86076ZM23.0237 21C23.0237 21.5523 22.576 22 22.0237 22H21.4381C20.7691 22 20.3195 21.1466 20.3196 20.4775C20.3196 20.4527 20.3192 20.4279 20.3184 20.4031C20.3118 20.1927 20.4683 20 20.6789 20C20.8639 20 21.0139 19.85 21.0139 19.665V16C21.0139 15.4477 21.4665 15 22.0188 15C22.5711 15 23.0237 15.4477 23.0237 16V21Z" fill="#4A4A4A"/>
<path d="M17.8022 17.2001C17.2649 17.2001 16.8212 16.7638 16.8597 16.2278C16.8985 15.6866 16.9823 15.1473 17.1536 14.6379C17.359 14.0271 17.6509 13.5326 18.0292 13.1542C18.4076 12.7758 18.8617 12.4272 19.3914 12.1083C19.7103 11.9137 19.9968 11.6839 20.2508 11.4191C20.5049 11.1488 20.7049 10.838 20.8508 10.4867C21.0022 10.1353 21.0778 9.74613 21.0778 9.3191C21.0778 8.78938 20.9535 8.32993 20.7049 7.94075C20.4562 7.55156 20.1238 7.25157 19.7076 7.04076C19.2914 6.82995 18.8292 6.72455 18.3211 6.72455C17.8779 6.72455 17.4509 6.81644 17.0401 7.00022C16.6293 7.184 16.286 7.47319 16.0104 7.86777C15.8866 8.04486 15.7863 8.24645 15.7094 8.47253C15.5348 8.98575 15.111 9.4164 14.5689 9.4164C13.9808 9.4164 13.4978 8.91922 13.6411 8.34878C13.7608 7.87235 13.9479 7.44175 14.2023 7.05698C14.6401 6.40293 15.2158 5.90294 15.9293 5.557C16.6482 5.21106 17.4455 5.03809 18.3211 5.03809C19.2725 5.03809 20.0995 5.22727 20.8022 5.60564C21.5103 5.98402 22.0562 6.50293 22.44 7.16238C22.8292 7.82183 23.0238 8.57317 23.0238 9.4164C23.0238 10.011 22.9319 10.5488 22.7481 11.0299C22.5697 11.511 22.3103 11.9407 21.9697 12.3191C21.6346 12.6974 21.2292 13.0326 20.7535 13.3245C20.2779 13.6217 19.8968 13.9353 19.6103 14.265C19.3238 14.5893 19.1157 14.9758 18.986 15.4244C18.9101 15.6868 18.8595 15.9566 18.827 16.2291C18.7632 16.7626 18.3396 17.2001 17.8022 17.2001ZM17.8671 22C17.4671 22 17.1239 21.8568 16.8374 21.5703C16.5509 21.2838 16.4076 20.9406 16.4076 20.5406C16.4076 20.1406 16.5509 19.7973 16.8374 19.5108C17.1239 19.2244 17.4671 19.0811 17.8671 19.0811C18.2671 19.0811 18.6103 19.2244 18.8968 19.5108C19.1833 19.7973 19.3265 20.1406 19.3265 20.5406C19.3265 20.8054 19.259 21.0487 19.1238 21.2703C18.9941 21.4919 18.8184 21.6703 18.5968 21.8054C18.3806 21.9351 18.1374 22 17.8671 22Z" fill="#158AC1"/>
</svg>
