<svg width="25" height="24" viewBox="0 0 25 24" fill="none" xmlns="http://www.w3.org/2000/svg">
<path d="M10.1848 3.54902C10.5887 3.87293 10.5747 4.49233 10.1981 4.84768C9.88702 5.14127 9.40246 5.17952 9.07538 4.90381L8.28244 4.2354C8.10209 4.08338 7.87381 4 7.63793 4H4.01782C3.46554 4 3.01782 4.44772 3.01782 5V19C3.01782 19.5523 3.46554 20 4.01782 20H20.0139C20.5662 20 21.0139 19.5523 21.0139 19V18.311C21.0139 18.0622 21.1348 17.8301 21.329 17.6747C21.9245 17.1982 23.0237 17.5883 23.0237 18.351V21C23.0237 21.5523 22.576 22 22.0237 22H2.02368C1.4714 22 1.02368 21.5523 1.02368 21V3C1.02368 2.44772 1.4714 2 2.02368 2H7.90173C8.12921 2 8.34988 2.07756 8.52735 2.21987L10.1848 3.54902Z" fill="#4A4A4A"/>
<path d="M16.0237 4.03613C19.8897 4.03613 23.0237 7.17014 23.0237 11.0361C23.0234 14.9019 19.8895 18.0361 16.0237 18.0361C12.1579 18.0361 9.02394 14.9019 9.02368 11.0361C9.02368 7.17018 12.1577 4.0362 16.0237 4.03613ZM13.2776 15.2139C14.0659 15.7331 15.0092 16.0361 16.0237 16.0361C18.7851 16.0361 21.0237 13.7976 21.0237 11.0361C21.0237 10.0218 20.7214 9.07823 20.2024 8.29004L13.2776 15.2139ZM16.0237 6.03613C13.2623 6.03613 11.0237 8.27471 11.0237 11.0361C11.0237 12.0494 11.326 12.9916 11.844 13.7793L18.7668 6.85645C17.9792 6.33843 17.0369 6.03613 16.0237 6.03613Z" fill="#158AC1"/>
</svg>
