<svg width="25" height="24" viewBox="0 0 25 24" fill="none" xmlns="http://www.w3.org/2000/svg">
<path d="M12.0013 5.00549C12.0158 5.01711 12.0338 5.02344 12.0524 5.02344C12.0975 5.02344 12.134 5.06 12.134 5.10509V6.60088C12.134 6.82724 11.9505 7.01074 11.7242 7.01074C11.6275 7.01074 11.5339 6.97656 11.46 6.91424L8.28245 4.23544C8.10209 4.08339 7.87379 4 7.6379 4H4.01782C3.46554 4 3.01782 4.44772 3.01782 5V19C3.01782 19.5523 3.46554 20 4.01782 20H22.0237C22.576 20 23.0237 20.4477 23.0237 21C23.0237 21.5523 22.576 22 22.0237 22H2.02368C1.4714 22 1.02368 21.5523 1.02368 21V3C1.02368 2.44772 1.4714 2 2.02368 2H7.90175C8.12922 2 8.34988 2.07755 8.52734 2.21984L12.0013 5.00549ZM23.0237 13C23.0237 13.5523 22.5711 14 22.0188 14C21.4665 14 21.0139 13.5523 21.0139 13V8.01074C21.0139 7.45846 20.5662 7.01074 20.0139 7.01074H19.1277C18.5789 7.01074 18.134 6.56587 18.134 6.01709C18.134 5.46831 18.5789 5.02344 19.1277 5.02344H22.0237C22.576 5.02344 23.0237 5.47115 23.0237 6.02344V13Z" fill="#4A4A4A"/>
<path d="M15.0237 9C15.5711 9 16.0104 9.45234 15.9943 9.99957L15.9017 13.1474C15.8877 13.6223 15.4988 14 15.0237 14C14.5486 14 14.1596 13.6223 14.1457 13.1474L14.0531 9.99957C14.037 9.45234 14.4762 9 15.0237 9Z" fill="#158AC1"/>
<path d="M22.9061 17.4781C23.2959 18.1448 22.8151 18.9829 22.0428 18.9829H8.17448C7.40638 18.9829 6.92505 18.1529 7.30654 17.4862L14.1657 5.49986C14.5477 4.83238 15.5087 4.82788 15.8969 5.49175L22.9061 17.4781ZM10.1126 16.5785C9.80497 17.2413 10.2889 17.9995 11.0197 17.9995H19.193C19.9293 17.9995 20.4131 17.2307 20.0946 16.5669L15.9399 7.90951C15.5743 7.14765 14.4871 7.15463 14.1313 7.92112L10.1126 16.5785Z" fill="#158AC1"/>
<path d="M14.3181 16.7056C14.5144 16.9019 14.7496 17 15.0237 17C15.2089 17 15.3755 16.9556 15.5237 16.8667C15.6755 16.7741 15.7959 16.6519 15.8848 16.5C15.9774 16.3481 16.0237 16.1815 16.0237 16C16.0237 15.7259 15.9255 15.4907 15.7292 15.2944C15.5329 15.0981 15.2978 15 15.0237 15C14.7496 15 14.5144 15.0981 14.3181 15.2944C14.1218 15.4907 14.0237 15.7259 14.0237 16C14.0237 16.2741 14.1218 16.5093 14.3181 16.7056Z" fill="#158AC1"/>
</svg>
