<svg width="25" height="24" viewBox="0 0 25 24" fill="none" xmlns="http://www.w3.org/2000/svg">
<path d="M9.99812 3.39942C10.3996 3.72138 10.1719 4.36914 9.6573 4.36914H9.29205C9.19291 4.36914 9.11255 4.44951 9.11255 4.54864C9.11255 4.70128 8.93413 4.78427 8.8174 4.68593L8.16421 4.13566C8.06021 4.04805 7.9286 4 7.79262 4H4.01782C3.46554 4 3.01782 4.44772 3.01782 5V19C3.01782 19.5523 3.46554 20 4.01782 20H20.0139C20.5662 20 21.0139 19.5523 21.0139 19V14.4189C21.0139 13.8667 21.4665 13.4189 22.0188 13.4189C22.5711 13.4189 23.0237 13.8667 23.0237 14.4189V21C23.0237 21.5523 22.576 22 22.0237 22H2.02368C1.4714 22 1.02368 21.5523 1.02368 21V3C1.02368 2.44772 1.4714 2 2.02368 2H7.90171C8.1292 2 8.34989 2.07756 8.52735 2.21989L9.99812 3.39942Z" fill="#4A4A4A"/>
<path d="M17.0899 10.3589L11.9401 16.5838C10.4052 18.1187 8.64002 16.9215 10.4589 15.1027L17.0899 10.3589Z" fill="#158AC1"/>
<path d="M20.0725 7.50293C21.3305 8.57658 22.3316 9.94255 22.97 11.4961H18.4514C18.1711 11.1496 17.8687 10.8217 17.5471 10.5137L20.0725 7.50293ZM16.3069 5.44531C17.366 5.76466 18.3542 6.24669 19.2424 6.86328L16.7551 9.82715C16.2396 9.4233 15.6855 9.06644 15.0989 8.76367L16.3069 5.44531ZM10.9768 7.625C10.755 7.61096 10.5313 7.60352 10.3059 7.60352C8.37903 7.60352 6.57464 8.12537 5.02368 9.0332C6.48825 7.15816 8.57641 5.79429 10.9768 5.25488V7.625ZM13.2805 5C13.9659 5 14.6359 5.06568 15.2844 5.19141L14.1418 8.33008C13.4671 8.06408 12.7585 7.86551 12.0237 7.74414V5.07422C12.4357 5.02489 12.8552 5.00001 13.2805 5Z" fill="#158AC1"/>
</svg>
