<svg width="25" height="24" viewBox="0 0 25 24" fill="none" xmlns="http://www.w3.org/2000/svg">
<path d="M11.6316 4.70855C11.8683 4.89835 12.0061 5.18535 12.0061 5.48877V6.69459C12.0061 6.86919 11.8646 7.01074 11.6899 7.01074C11.6154 7.01074 11.5432 6.98438 11.4862 6.93631L8.28245 4.23544C8.10209 4.08339 7.87379 4 7.6379 4H4.01782C3.46554 4 3.01782 4.44772 3.01782 5V19C3.01782 19.5523 3.46554 20 4.01782 20H20.0139C20.5662 20 21.0139 19.5523 21.0139 19V17.8457C21.0139 17.2934 21.4665 16.8457 22.0188 16.8457C22.5711 16.8457 23.0237 17.2934 23.0237 17.8457V21C23.0237 21.5523 22.576 22 22.0237 22H2.02368C1.4714 22 1.02368 21.5523 1.02368 21V3C1.02368 2.44772 1.4714 2 2.02368 2H7.9018C8.12924 2 8.34987 2.07752 8.52732 2.21979L11.6316 4.70855Z" fill="#4A4A4A"/>
<path d="M19.2435 4.99951C19.8099 6.83942 21.0654 8.37683 22.7084 9.31201C22.9066 11.3345 22.8437 13.6022 21.9115 15.0005C20.9111 17.0003 17.4115 19.0005 17.4115 19.0005C17.3704 18.977 13.9058 16.9885 12.9115 15.0005C11.9794 13.6022 11.9164 11.3343 12.1146 9.31201C13.758 8.37686 15.014 6.83969 15.5804 4.99951H19.2435ZM16.6234 7.00049C16.1447 8.3447 15.1063 9.42243 13.7894 9.95654C13.8007 11.4088 13.9351 13.0476 14.4125 14.0005C14.9129 15.5003 17.4125 17.0005 17.4125 17.0005C17.4432 16.982 19.9153 15.4911 20.4125 14.0005C20.8897 13.046 21.0232 11.4079 21.0345 9.95654C19.7179 9.42246 18.6803 8.34443 18.2015 7.00049H16.6234Z" fill="#158AC1"/>
<path d="M17.4115 9.25049C18.2399 9.25049 18.9115 9.92206 18.9115 10.7505C18.9115 11.4854 18.3827 12.0955 17.6849 12.2241L19.1439 14.7505H15.6791L17.1371 12.2241C16.4398 12.0951 15.9115 11.4851 15.9115 10.7505C15.9115 9.92206 16.5831 9.25049 17.4115 9.25049Z" fill="#158AC1"/>
</svg>
