<svg width="24" height="25" viewBox="0 0 24 25" fill="none" xmlns="http://www.w3.org/2000/svg">
<path d="M11.8025 5.83696C11.9303 5.93949 12.0893 5.99536 12.2532 5.99536C12.7297 5.99536 13.074 6.45181 13.027 6.92598C13.0092 7.10527 13 7.28707 13 7.47095C13 7.74602 12.787 7.98267 12.5119 7.98267H11.9161C11.6802 7.98267 11.4519 7.89927 11.2715 7.74722L8.25877 5.20736C8.07841 5.05532 7.85011 4.97192 7.61421 4.97192H3.99414C3.44186 4.97192 2.99414 5.41964 2.99414 5.97192V19.9719C2.99414 20.5242 3.44186 20.9719 3.99414 20.9719H10.4624C10.4729 20.9719 10.4814 20.9804 10.4814 20.991C10.4814 21.0015 10.49 21.01 10.5005 21.01H22.019C22.5608 21.01 23 21.4492 23 21.991C23 22.5327 22.5608 22.9719 22.019 22.9719H2C1.44772 22.9719 1 22.5242 1 21.9719V3.97192C1 3.41964 1.44772 2.97192 2 2.97192H7.87807C8.10553 2.97192 8.3262 3.04947 8.50365 3.19177L11.8025 5.83696Z" fill="#4A4A4A"/>
<path d="M20 13.9719C21.6569 13.9719 23 15.3151 23 16.9719C23 18.6288 21.6569 19.9719 20 19.9719H7C5.34315 19.9719 4 18.6288 4 16.9719C4 15.3151 5.34315 13.9719 7 13.9719H20ZM8 14.9719C6.89543 14.9719 6 15.8674 6 16.9719C6 18.0765 6.89543 18.9719 8 18.9719H19C20.1046 18.9719 21 18.0765 21 16.9719C21 15.8674 20.1046 14.9719 19 14.9719H8ZM18 15.9719C18.5523 15.9719 19 16.4196 19 16.9719C19 17.5242 18.5523 17.9719 18 17.9719C17.4477 17.9719 17 17.5242 17 16.9719C17 16.4196 17.4477 15.9719 18 15.9719Z" fill="#158AC1"/>
<path d="M16.0039 7.97485C16.0707 9.49931 16.636 10.9525 17.749 11.7981L17.9492 11.9368C15.8885 11.6852 14.2593 10.0422 14.0293 7.97485H16.0039ZM22.9707 7.97485C22.7408 10.0419 21.112 11.6848 19.0518 11.9368C20.3238 11.1201 20.9678 9.58855 21.04 7.97485H22.9707ZM20.0234 7.97485C19.9454 9.29797 19.4364 10.5638 18.5059 11.5168C17.5949 10.5626 17.0969 9.29735 17.0205 7.97485H20.0234ZM19.04 3.00513C21.1069 3.25239 22.7425 4.89957 22.9717 6.97192H21.0117C20.8565 5.41299 20.1829 3.90241 19.04 3.00513ZM17.96 3.00513C16.8422 3.90423 16.1832 5.41426 16.0312 6.97192H14.0283C14.2575 4.89957 15.8931 3.25239 17.96 3.00513ZM18.5059 3.49829C19.3769 4.51449 19.8731 5.73974 20.001 6.97192H17.043C17.1683 5.74053 17.6533 4.51575 18.5059 3.49829Z" fill="#158AC1"/>
</svg>
