<svg width="25" height="24" viewBox="0 0 25 24" fill="none" xmlns="http://www.w3.org/2000/svg">
<path d="M10.6681 3.93635C11.1263 4.30375 11.1376 4.99808 11.0111 5.5716C10.9804 5.71078 10.9642 5.85543 10.9642 6.00391C10.9642 6.19852 10.7367 6.3043 10.5879 6.17886L8.28251 4.23543C8.10215 4.08339 7.87386 4 7.63797 4H4.01788C3.4656 4 3.01788 4.44772 3.01788 5V19C3.01788 19.5523 3.4656 20 4.01788 20H10.2835C10.6594 20 10.9642 20.3047 10.9642 20.6807C10.9642 21.2415 10.5828 22 10.022 22H2.02374C1.47146 22 1.02374 21.5523 1.02374 21V3C1.02374 2.44772 1.47146 2 2.02374 2H7.90182C8.12928 2 8.34994 2.07754 8.5274 2.21984L10.6681 3.93635Z" fill="#4A4A4A"/>
<circle cx="21.5237" cy="6.5" r="1.5" fill="#4A4A4A"/>
<path d="M17.9145 4.98879C18.5803 4.99018 19.0249 5.83423 19.0249 6.5C19.0249 6.7601 18.8315 7 18.5714 7H15.0288C14.4765 7 14.0288 7.44772 14.0288 8V18.999C14.0289 19.5513 14.4766 19.999 15.0288 19.999H20.0161C20.5684 19.999 21.0161 19.5513 21.0161 18.999V9.45772C21.0161 9.19375 21.26 8.99902 21.5239 8.99902C22.1854 8.99899 23.02 9.44138 23.02 10.1029V20.998C23.0199 21.551 22.571 21.9991 22.0181 21.998L13.0171 21.9785C12.4656 21.9773 12.019 21.53 12.019 20.9785V5.97852C12.0191 5.42549 12.468 4.97743 13.021 4.97852L17.9145 4.98879Z" fill="#158AC1"/>
<circle cx="21.5238" cy="6.50024" r="1.5" fill="#158AC1"/>
<rect x="15.0532" y="11.0112" width="4.94855" height="0.988892" rx="0.494446" fill="#158AC1"/>
<rect x="15.0532" y="12.9939" width="4.94855" height="0.988892" rx="0.494446" fill="#158AC1"/>
<rect x="15.0532" y="14.9768" width="4.94855" height="0.988892" rx="0.494446" fill="#158AC1"/>
</svg>
