<svg width="24" height="25" viewBox="0 0 24 25" fill="none" xmlns="http://www.w3.org/2000/svg">
<path d="M12 2.97192C14.7613 2.97202 17 5.21058 17 7.97192C17 10.7332 14.7613 12.9718 12 12.9719C9.23862 12.9719 7.00003 10.7333 7 7.97192C7 5.21053 9.2386 2.97192 12 2.97192ZM12 4.5061C10.0859 4.5061 8.53418 6.05787 8.53418 7.97192C8.53418 9.88598 10.0859 11.4377 12 11.4377C13.9141 11.4377 15.4658 9.88598 15.4658 7.97192C15.4658 6.05787 13.9141 4.5061 12 4.5061Z" fill="#4A4A4A"/>
<path d="M16.0078 15.9641C16.0052 15.9641 16.0026 15.9641 16 15.9641C14.3545 15.9641 14.0537 16.972 12 16.9719C9.94632 16.9718 9.00949 15.9641 7.98828 15.9641C6.55572 15.9642 4.9997 16.9719 4.95996 20.0178C4.88923 21.4289 5 22.9719 5 22.9719H3L2.98535 17.9866C2.98535 14.5365 5.54281 13.9426 7.98828 13.9426C9.59504 13.9427 10.7688 14.9346 12 14.9417C13.2526 14.9488 14.7489 14.0058 16 13.9426C16.0026 13.9425 16.0052 13.9418 16.0078 13.9417V15.9641ZM21 22.9719H20V20.9446H21V22.9719ZM20 15.6223C20.367 16.0219 20.6529 16.4744 20.8232 16.9602H20V15.6223Z" fill="#4A4A4A"/>
<rect x="7" y="19.9771" width="1" height="3" rx="0.5" transform="rotate(-0.14064 7 19.9771)" fill="#4A4A4A"/>
<path d="M18 14.9719C18.5523 14.9719 19 15.4196 19 15.9719V17.9719H21C21.5523 17.9719 22 18.4196 22 18.9719C22 19.5242 21.5523 19.9719 21 19.9719H19V21.9719C19 22.5242 18.5523 22.9719 18 22.9719C17.4477 22.9719 17 22.5242 17 21.9719V19.9719H15C14.4477 19.9719 14 19.5242 14 18.9719C14 18.4196 14.4477 17.9719 15 17.9719H17V15.9719C17 15.4196 17.4477 14.9719 18 14.9719Z" fill="#158AC1"/>
</svg>
