<svg width="24" height="25" viewBox="0 0 24 25" fill="none" xmlns="http://www.w3.org/2000/svg">
<path d="M9.9879 4.3819C10.6312 4.89777 10.2665 5.93579 9.44184 5.93579C9.23596 5.93579 9.03671 5.86302 8.87929 5.73033L8.25875 5.2073C8.0784 5.05529 7.85013 4.97192 7.61427 4.97192H3.99414C3.44186 4.97192 2.99414 5.41964 2.99414 5.97192V19.9719C2.99414 20.5242 3.44186 20.9719 3.99414 20.9719H4.875C5.42728 20.9719 5.875 21.4196 5.875 21.9719C5.875 22.5242 5.42728 22.9719 4.875 22.9719H2C1.44772 22.9719 1 22.5242 1 21.9719V3.97192C1 3.41964 1.44772 2.97192 2 2.97192H7.87808C8.10554 2.97192 8.3262 3.04947 8.50365 3.19176L9.9879 4.3819Z" fill="#4A4A4A"/>
<path d="M16 10.9583H23V21.9719H7V6.97192H16V10.9583ZM16 13.9719H18V14.9719H16V16.9719H18V17.9719H16V19.9983H21.0371V12.9719H16V13.9719ZM9 19.9719H11V17.9719H9V19.9719ZM12 19.9719H14V17.9719H12V19.9719ZM20 17.9719H19V16.9719H20V17.9719ZM9 16.9719H11V14.9719H9V16.9719ZM12 16.9719H14V14.9719H12V16.9719ZM20 14.9719H19V13.9719H20V14.9719ZM9 13.9719H11V11.9719H9V13.9719ZM12 13.9719H14V11.9719H12V13.9719ZM9 10.9719H11V8.97192H9V10.9719ZM12 10.9719H14V8.97192H12V10.9719Z" fill="#158AC1"/>
</svg>
