<svg width="24" height="25" viewBox="0 0 24 25" fill="none" xmlns="http://www.w3.org/2000/svg">
<g clip-path="url(#clip0_163_148)">
<path d="M12 1.97168C16.4182 1.97168 19.9998 5.55358 20 9.97168C20 10.8072 19.8714 11.613 19.6338 12.3701C18.9951 12.1047 18.3915 11.7724 17.832 11.3809C17.9408 10.9291 18 10.4578 18 9.97266C18 6.65895 15.3137 3.97266 12 3.97266C8.68646 3.97285 6 6.65907 6 9.97266C6.00003 10.3982 6.04464 10.8134 6.12891 11.2139C5.57473 11.6273 4.97394 11.9813 4.33594 12.2676C4.11844 11.5403 4 10.7697 4 9.97168C4.0002 5.5537 7.58202 1.97188 12 1.97168Z" fill="#158AC1"/>
<path d="M14.2334 5.97119C15.0953 9.16713 17.5788 11.695 20.748 12.6206C19.8406 15.0141 18.7651 17.5094 17.7217 19.0747C16.4606 21.5961 12.0674 24.118 12.0117 24.1499C11.9805 24.132 7.56735 21.6032 6.30273 19.0747C5.25859 17.5085 4.17716 15.0118 3.26465 12.6167C6.42801 11.6881 8.90679 9.16296 9.76758 5.97119H14.2334ZM10.3711 7.97217C9.88045 10.5416 7.841 12.5584 5.26074 13.0181C5.61045 14.3246 5.98062 15.6207 6.30176 16.5376C6.72447 17.7886 12 21.9722 12 21.9722C12.0261 21.9518 17.3414 17.8036 17.7217 16.5376C18.0419 15.6215 18.4066 14.3288 18.752 13.0259C16.1519 12.5808 14.0929 10.5555 13.5996 7.97217H10.3711Z" fill="#4A4A4A"/>
<path d="M11.9989 11.4626C13.05 11.4627 13.9022 12.3149 13.9022 13.366C13.9022 14.3114 13.2121 15.0929 12.3085 15.241L13.2675 19.0759H10.6219L11.663 15.2371C10.7723 15.0783 10.0956 14.3023 10.0956 13.366C10.0956 12.3148 10.9478 11.4626 11.9989 11.4626Z" fill="#158AC1"/>
</g>
<defs>
<clipPath id="clip0_163_148">
<rect width="24" height="24" fill="white" transform="translate(0 0.971924)"/>
</clipPath>
</defs>
</svg>
