<svg width="16" height="17" viewBox="0 0 16 17" fill="none" xmlns="http://www.w3.org/2000/svg">
<g clip-path="url(#clip0_163_128)">
<path d="M7.99609 1.97192C8.76427 1.97218 10.1745 6.97192 11 6.97192C11.7111 6.97192 14.9995 5.2099 15 5.97192C15.0004 6.55992 14.4051 10.4036 14.1328 12.1321C14.0564 12.6172 13.6386 12.9719 13.1475 12.9719H2.85254C2.36136 12.9719 1.94359 12.6173 1.86719 12.1321C1.595 10.4036 0.999982 6.55992 1 5.97192C1.00012 5.20991 4.23494 6.97192 5 6.97192C5.76506 6.97192 7.22756 1.97192 7.99609 1.97192ZM8 3.97192C8 3.97192 6.83565 9.04712 6.00684 9.04712C5.2963 9.01697 3 7.97192 3 7.97192L3.81641 11.9358C3.92577 12.4666 3.52047 12.9641 2.97852 12.9641H13.0537C12.5106 12.9641 12.1029 12.4674 12.209 11.9348L13 7.97192C12.9908 7.97604 10.8265 8.94211 10 8.97192C9.28978 8.94189 8 3.97192 8 3.97192Z" fill="#158AC1"/>
<rect x="2" y="14.0181" width="12" height="2" rx="1" fill="#4A4A4A"/>
</g>
<defs>
<clipPath id="clip0_163_128">
<rect width="16" height="16" fill="white" transform="translate(0 0.971924)"/>
</clipPath>
</defs>
</svg>
