<svg width="16" height="17" viewBox="0 0 16 17" fill="none" xmlns="http://www.w3.org/2000/svg">
<circle cx="1" cy="1" r="1" transform="matrix(-1 0 0 1 10.9849 7.97192)" fill="#4A4A4A"/>
<circle cx="1.5" cy="1.5" r="1.5" transform="matrix(-1 0 0 1 14.9849 7.47192)" fill="#4A4A4A"/>
<path d="M10.9849 3.29077C10.9849 3.05683 10.7287 2.91246 10.5288 3.03394L1.14404 8.73706C0.951607 8.85399 0.951517 9.13308 1.14404 9.24976L10.5298 14.9285C10.7297 15.0492 10.9849 14.9052 10.9849 14.6716V12.9978C10.9713 12.9863 10.9576 12.9746 10.9419 12.9656L3.99854 8.98218L10.8618 5.05249C10.9178 5.02046 10.9593 4.97096 10.9849 4.91382V3.29077Z" fill="#158AC1"/>
</svg>
