<svg width="16" height="17" viewBox="0 0 16 17" fill="none" xmlns="http://www.w3.org/2000/svg">
<g clip-path="url(#clip0_96_286)">
<circle cx="10.9999" cy="3.97192" r="1" fill="#4A4A4A"/>
<circle cx="12.4999" cy="12.4719" r="1.5" fill="#4A4A4A"/>
<path d="M13.6192 2.04029C13.8012 1.89842 14.069 2.00654 14.1011 2.23512L14.9992 8.62705C15.0313 8.85573 14.8039 9.03338 14.5898 8.94691L8.60502 6.52912C8.39089 6.44261 8.35057 6.15661 8.53255 6.01443L9.03583 5.62123L9.16571 5.52099C9.24998 5.45594 9.36213 5.44023 9.46086 5.48001L12.675 6.77839C13.0319 6.92258 13.4111 6.62625 13.3576 6.2451L12.8747 2.81157C12.8599 2.70553 12.9031 2.59987 12.9874 2.5339L13.6192 2.04029Z" fill="#158AC1"/>
<path d="M8.00793 1.97998C8.68882 1.97998 9.34658 2.07873 9.96887 2.26025C9.49839 2.54421 9.15243 3.01464 9.03918 3.5708C8.70267 3.50644 8.35538 3.47218 8.00012 3.47217C4.96256 3.47217 2.50012 5.9346 2.50012 8.97217C2.50019 12.0097 4.9626 14.4722 8.00012 14.4722C8.87961 14.4721 9.71012 14.2641 10.4474 13.897C10.7642 14.3525 11.2278 14.6974 11.7706 14.8628C10.6839 15.5584 9.39385 15.9644 8.00793 15.9644C4.14656 15.9643 1.01581 12.8335 1.01575 8.97217C1.01575 5.11073 4.14651 1.98005 8.00793 1.97998Z" fill="#4A4A4A"/>
</g>
<defs>
<clipPath id="clip0_96_286">
<rect width="16" height="16" fill="white" transform="translate(0 0.971924)"/>
</clipPath>
</defs>
</svg>
