<svg width="24" height="24" viewBox="0 0 24 24" fill="none" xmlns="http://www.w3.org/2000/svg">
<circle cx="1.5" cy="1.5" r="1.5" transform="matrix(-1 0 0 1 15.5057 10.4998)" fill="#4A4A4A"/>
<circle cx="2" cy="2" r="2" transform="matrix(-1 0 0 1 20.5044 9.99976)" fill="#4A4A4A"/>
<path d="M20.9282 3.08301C20.8446 2.97757 20.6943 2.93205 20.5591 3L3.1792 11.7324C2.95878 11.8432 2.95878 12.1578 3.1792 12.2686L20.5591 21.001C20.7586 21.1012 20.9937 20.9557 20.9937 20.7324V20.4492L20.7671 19.3408C20.7488 19.2515 20.691 19.1753 20.6099 19.1338L6.6167 11.9883L20.5942 4.84668C20.6839 4.80085 20.7451 4.71338 20.7563 4.61328L20.9282 3.08301Z" fill="#158AC1"/>
</svg>
