<svg width="17" height="16" viewBox="0 0 17 16" fill="none" xmlns="http://www.w3.org/2000/svg">
<path d="M6.77494 2.75526C7.23369 3.21506 6.90803 4 6.25852 4C6.05355 4 5.85803 3.91376 5.71981 3.76239L5.32109 3.32571C5.13162 3.11821 4.8636 3 4.58262 3H4.0272C3.47354 3 3.02526 3.44986 3.02721 4.00351L3.05534 12.0064C3.05727 12.5574 3.50442 13.0029 4.05533 13.0029H12.5359C12.8128 13.0029 13.0374 12.7784 13.0374 12.5015C13.0374 12.2245 13.2619 12 13.5388 12H14.0369C14.5889 12 15.0364 12.4475 15.0364 12.9995V14.0029C15.0364 14.5552 14.5887 15.0029 14.0364 15.0029H2.02564C1.47335 15.0029 1.02563 14.5552 1.02563 14.0029V2C1.02563 1.44772 1.47335 1 2.02563 1H4.6088C4.87441 1 5.12911 1.10567 5.31671 1.2937L6.77494 2.75526Z" fill="#4A4A4A"/>
<path d="M10.5234 2.99976C11.0232 2.99976 11.5234 6.00155 12.0605 6.00269C12.5233 6.00269 15.0224 4.50035 15.0234 4.99976C15.0238 5.4982 14.0296 10.9657 14.0234 10.9998H7.02344C7.0179 10.9693 6.02336 5.49836 6.02344 4.99976C6.02418 4.50048 8.52671 6.00193 9.02539 6.00269C9.52319 6.00269 10.0234 3.00052 10.5234 2.99976ZM14.0049 5.99976C14.0049 5.99976 12.0618 7.98033 11.5234 7.99976C11.0619 7.9796 10.5234 5.99976 10.5234 5.99976C10.5234 5.99976 10.0622 7.99976 9.52344 7.99976C9.0613 7.9796 7.02344 5.99976 7.02344 5.99976L8.52344 9.99976H12.5234L14.0049 5.99976Z" fill="#158AC1"/>
</svg>
