<svg width="17" height="16" viewBox="0 0 17 16" fill="none" xmlns="http://www.w3.org/2000/svg">
<path d="M7.95671 2.94733C8.00109 2.98436 8.05704 3.00464 8.11484 3.00464C8.32804 3.00464 8.44647 3.262 8.32491 3.43716C8.18856 3.63364 8.06749 3.84149 7.96338 4.05903C7.77795 4.44649 7.25898 4.60766 6.93709 4.32324L5.74946 3.27383C5.5667 3.11233 5.33121 3.02319 5.08731 3.02319H4.08008C3.52779 3.02319 3.08008 3.47091 3.08008 4.02319V11.9763C3.08008 12.5286 3.52779 12.9763 4.08008 12.9763H12.0762C12.6285 12.9763 13.0762 12.5286 13.0762 11.9763V10.9544C13.0762 10.6145 13.3197 10.3225 13.637 10.2007C14.2307 9.97267 15.0273 10.3608 15.0273 10.9967V14.0134C15.0273 14.5657 14.5796 15.0134 14.0273 15.0134H2.02344C1.47115 15.0134 1.02344 14.5657 1.02344 14.0134V2.00171C1.02344 1.44942 1.47115 1.00171 2.02344 1.00171H5.26259C5.49674 1.00171 5.72348 1.08388 5.90326 1.2339L7.95671 2.94733Z" fill="#4A4A4A"/>
<path d="M12.0236 2.99951C13.6803 2.99951 15.0236 4.34346 15.0236 6.00049C15.0235 7.65744 13.6803 9.00049 12.0236 9.00049C10.3669 9.00049 9.02365 7.65744 9.02356 6.00049C9.02356 4.34346 10.3668 2.99951 12.0236 2.99951ZM12.0236 4.50049C11.1951 4.50049 10.5236 5.17206 10.5236 6.00049C10.5238 6.82869 11.1953 7.50049 12.0236 7.50049C12.8518 7.50049 13.5233 6.82869 13.5236 6.00049C13.5236 5.17206 12.852 4.50049 12.0236 4.50049Z" fill="#158AC1"/>
<rect x="6.02374" y="10.8962" width="4.09602" height="2" rx="1" transform="rotate(-45 6.02374 10.8962)" fill="#158AC1"/>
</svg>
