<svg width="16" height="17" viewBox="0 0 16 17" fill="none" xmlns="http://www.w3.org/2000/svg">
<path d="M7.72344 3.74437C7.90323 3.89439 8.12996 3.97656 8.36412 3.97656H9.20731C9.6853 3.97656 10.0998 4.31417 10.1888 4.7838C10.1938 4.81002 10.1988 4.83654 10.2038 4.86338C10.3159 5.46265 9.84768 6.00391 9.238 6.00391H8.09408C7.85019 6.00391 7.6147 5.91477 7.43194 5.75328L5.72578 4.24574C5.54301 4.08425 5.30753 3.99512 5.06364 3.99512H4.0564C3.50411 3.99512 3.0564 4.44283 3.0564 4.99512V12.9482C3.0564 13.5005 3.50411 13.9482 4.0564 13.9482H12.1098C12.6304 13.9482 13.0525 13.5262 13.0525 13.0056V12.8606C13.0525 12.5331 13.2743 12.2469 13.5746 12.116C14.1741 11.8544 15.0037 12.2451 15.0037 12.8991V14.9854C15.0037 15.5376 14.5559 15.9854 14.0037 15.9854H1.99976C1.44747 15.9854 0.999756 15.5376 0.999756 14.9854V2.97363C0.999756 2.42135 1.44747 1.97363 1.99976 1.97363H5.23891C5.47306 1.97363 5.69979 2.0558 5.87958 2.20582L7.72344 3.74437Z" fill="#4A4A4A"/>
<path d="M10.6365 5.45532C10.7671 5.43391 10.9005 5.4202 11.0369 5.42017C11.2404 5.42017 11.438 5.4467 11.6277 5.49341L12.3728 4.12817L13.8484 4.97974L13.0486 6.44458C13.1802 6.62076 13.2925 6.81319 13.3777 7.02075L14.9861 7.00415L15.0037 8.75122L13.4763 8.76782C13.3872 9.08747 13.2411 9.38098 13.0496 9.63794L13.0808 9.62036L13.8992 11.1428L12.4158 11.9993L11.6541 10.5833C11.4562 10.6343 11.25 10.6653 11.0369 10.6653C10.8573 10.6652 10.6824 10.6443 10.5134 10.6077L9.75659 11.9993L8.28101 11.1467L9.06909 9.69946C8.87116 9.44922 8.71793 9.16052 8.61987 8.84595H7.00366V7.0979H8.66968C8.78114 6.80046 8.94285 6.52974 9.14526 6.29614L8.34058 4.80005L9.82397 3.9436L10.6365 5.45532ZM11.0369 6.73169C10.3356 6.73193 9.76735 7.31839 9.76733 8.04224C9.76752 8.76594 10.3357 9.35254 11.0369 9.35278C11.7383 9.35278 12.3072 8.76609 12.3074 8.04224C12.3074 7.31825 11.7384 6.73169 11.0369 6.73169Z" fill="#158AC1"/>
</svg>
