<svg width="17" height="16" viewBox="0 0 17 16" fill="none" xmlns="http://www.w3.org/2000/svg">
<path d="M1.02136 1.99951C1.02153 1.44737 1.46918 0.999512 2.02136 0.999512H14.0194C14.5715 0.999646 15.0192 1.44745 15.0194 1.99951V2.646C14.2233 1.93376 13.1726 1.49951 12.0204 1.49951C10.6897 1.49958 9.49361 2.07741 8.6698 2.99561H4.02527C3.47309 2.99561 3.02544 3.44346 3.02527 3.99561L3.02527 11.9956C3.02527 12.5479 3.47298 12.9956 4.02527 12.9956H12.0272C12.5794 12.9955 13.0272 12.5478 13.0272 11.9956V10.3853C13.7811 10.2129 14.4625 9.85226 15.0194 9.354V14.0005C15.0194 14.5527 14.5716 15.0004 14.0194 15.0005H2.02136C1.46908 15.0005 1.02136 14.5528 1.02136 14.0005L1.02136 1.99951Z" fill="#4A4A4A"/>
<path d="M4.02051 4.50024C4.02052 4.22421 4.24452 4.00041 4.52051 4.00024H7.98926C7.83304 4.31457 7.71239 4.64951 7.63281 5.00024H4.52051C4.24459 5.00008 4.02064 4.77617 4.02051 4.50024ZM4.02051 6.50024C4.02052 6.22421 4.24452 6.00041 4.52051 6.00024H7.52051C7.52053 6.34399 7.5598 6.67859 7.63281 7.00024H4.52051C4.24459 7.00008 4.02064 6.77617 4.02051 6.50024ZM4.02051 8.50024C4.02052 8.22421 4.24452 8.00041 4.52051 8.00024H7.34668L6.34668 9.00024H4.52051C4.24459 9.00008 4.02064 8.77617 4.02051 8.50024ZM4.02051 10.5002C4.02052 10.2242 4.24452 10.0004 4.52051 10.0002H5.34668L5.19238 10.1555C4.96195 10.386 4.86859 10.7005 4.91016 11.0002H4.52051C4.24459 11.0001 4.02064 10.7762 4.02051 10.5002Z" fill="#4A4A4A"/>
<path d="M12.0206 3C13.6774 3 15.0206 4.34297 15.0206 6C15.0205 7.65695 13.6773 9 12.0206 9C10.3639 9 9.02072 7.65695 9.02063 6C9.02063 4.34297 10.3639 3 12.0206 3ZM12.0206 4.5C11.1922 4.5 10.5206 5.17157 10.5206 6C10.5209 6.8282 11.1924 7.5 12.0206 7.5C12.8489 7.5 13.5204 6.8282 13.5206 6C13.5206 5.17157 12.8491 4.5 12.0206 4.5Z" fill="#158AC1"/>
<rect x="6.02063" y="10.8962" width="4.09602" height="2" rx="1" transform="rotate(-45 6.02063 10.8962)" fill="#158AC1"/>
</svg>
