<svg width="17" height="16" viewBox="0 0 17 16" fill="none" xmlns="http://www.w3.org/2000/svg">
<path d="M8.01831 5.91406H10.0183V6.95703H9.01831V7.95801H10.0183V8.95801H9.01831V9.95801H10.0183V10.958H9.01831V11.957H10.0183L10.0232 12.0596C10.0744 12.5638 10.5006 12.957 11.0183 12.957H13.0183C13.5704 12.9567 14.0183 12.5091 14.0183 11.957V5.91406H15.0125V13.9814H8.01733V13.9805L1.02319 13.957V3H8.01831V5.91406ZM2.01831 11.957H4.01831V10.958H2.01831V11.957ZM5.01831 11.957H7.01831V10.958H5.01831V11.957ZM2.01831 9.95801H4.01831V8.95801H2.01831V9.95801ZM5.01831 9.95801H7.01831V8.95801H5.01831V9.95801ZM2.01831 7.96094L4.01831 7.95996V7.00391H2.01831V7.96094ZM5.01831 7.95898L7.01831 7.95801V7.00391H5.01831V7.95898ZM2.01831 6.00391H4.01831V5H2.01831V6.00391ZM5.01831 6.00391H7.01831V5H5.01831V6.00391Z" fill="#4A4A4A"/>
<path d="M12.0232 12C11.4709 12 11.0232 11.5523 11.0232 11V5C11.0232 4.44772 11.4709 4 12.0232 4C12.5755 4 13.0232 4.44772 13.0232 5V11C13.0232 11.5523 12.5755 12 12.0232 12Z" fill="#158AC1"/>
<path d="M11.3149 2.70625C11.5133 2.90208 11.7494 3 12.0232 3C12.297 3 12.5311 2.90208 12.7256 2.70625C12.924 2.51042 13.0232 2.275 13.0232 2C13.0232 1.725 12.924 1.48958 12.7256 1.29375C12.5311 1.09792 12.297 1 12.0232 1C11.7494 1 11.5133 1.09792 11.3149 1.29375C11.1204 1.48958 11.0232 1.725 11.0232 2C11.0232 2.275 11.1204 2.51042 11.3149 2.70625Z" fill="#158AC1"/>
</svg>
