<svg width="16" height="17" viewBox="0 0 16 17" fill="none" xmlns="http://www.w3.org/2000/svg">
<path d="M12.1765 15.9724C12.4796 15.6345 12.6657 15.1896 12.6658 14.7C12.6658 14.3966 12.5924 14.1109 12.4666 13.8562C12.7873 13.6897 13.0066 13.3539 13.0066 12.9675V11.0427C13.0539 10.9869 13.1043 10.9304 13.1599 10.8748C13.7578 10.2665 14.3873 9.7159 14.9988 9.12769V14.9724C14.9988 15.5246 14.5509 15.9723 13.9988 15.9724H12.1765ZM1.00073 2.97144C1.0009 2.41929 1.44855 1.97144 2.00073 1.97144H7.64136C6.85049 2.46958 6.26178 3.1876 6.03394 3.96753H4.00464C3.45246 3.96753 3.00481 4.41539 3.00464 4.96753L3.00464 12.9675C3.00464 13.5198 3.45235 13.9675 4.00464 13.9675H8.99292C8.89923 14.193 8.84741 14.4406 8.84741 14.7C8.84747 15.1895 9.03367 15.6346 9.33667 15.9724H2.00073C1.44845 15.9724 1.00073 15.5247 1.00073 14.9724L1.00073 2.97144Z" fill="#4A4A4A"/>
<path d="M3.99988 7.47217C3.99989 7.19614 4.22389 6.97234 4.49988 6.97217H9.49988C9.7759 6.97231 9.99987 7.19612 9.99988 7.47217C9.99975 7.74811 9.77582 7.97203 9.49988 7.97217H4.49988C4.22396 7.972 4.00001 7.74809 3.99988 7.47217ZM3.99988 9.47217C3.99989 9.19614 4.22389 8.97234 4.49988 8.97217H9.49207C9.3072 9.24802 9.13703 9.5696 8.97546 9.97217H4.49988C4.22396 9.972 4.00001 9.74809 3.99988 9.47217ZM3.99988 11.4722C3.99989 11.1961 4.22389 10.9723 4.49988 10.9722H8.82605C8.83649 11.3587 8.92525 11.6946 9.07117 11.9722H4.49988C4.22396 11.972 4.00001 11.7481 3.99988 11.4722ZM3.99988 5.47217C3.99989 5.19614 4.22389 4.97234 4.49988 4.97217H6.08386C6.09356 5.3563 6.19402 5.70308 6.40125 5.97217H4.49988C4.22396 5.972 4.00001 5.74809 3.99988 5.47217Z" fill="#4A4A4A"/>
<path d="M10.6891 12.0104C10.2456 12.0104 9.87939 11.6502 9.91112 11.2078C9.94315 10.7611 10.0124 10.3159 10.1537 9.89551C10.3233 9.39133 10.5642 8.98308 10.8765 8.67076C11.1889 8.35843 11.5636 8.07065 12.0009 7.80741C12.2641 7.64678 12.5006 7.45716 12.7103 7.23853C12.92 7.01545 13.0851 6.75889 13.2056 6.46888C13.3305 6.17887 13.393 5.85762 13.393 5.50514C13.393 5.06789 13.2903 4.68864 13.0851 4.3674C12.8799 4.04615 12.6055 3.79852 12.2619 3.62451C11.9184 3.45051 11.5369 3.3635 11.1175 3.3635C10.7516 3.3635 10.3991 3.43935 10.06 3.59105C9.72094 3.74275 9.43762 3.98145 9.21007 4.30716C9.10795 4.45334 9.02514 4.61974 8.96166 4.80635C8.81756 5.22998 8.46774 5.58545 8.02028 5.58545C7.53478 5.58545 7.13613 5.17507 7.25443 4.7042C7.35323 4.31094 7.50763 3.9555 7.71761 3.6379C8.07902 3.09803 8.55419 2.68532 9.14314 2.39976C9.73656 2.11421 10.3947 1.97144 11.1175 1.97144C11.9027 1.97144 12.5854 2.1276 13.1654 2.43992C13.7499 2.75224 14.2005 3.18057 14.5173 3.7249C14.8386 4.26924 14.9992 4.88942 14.9992 5.58545C14.9992 6.07625 14.9233 6.52019 14.7716 6.91729C14.6244 7.31438 14.4102 7.66909 14.1291 7.98142C13.8525 8.29374 13.5179 8.57037 13.1253 8.8113C12.7326 9.0567 12.4181 9.31548 12.1816 9.58765C11.9451 9.85535 11.7733 10.1744 11.6663 10.5447C11.6037 10.7612 11.5619 10.984 11.535 11.2089C11.4824 11.6493 11.1327 12.0104 10.6891 12.0104ZM10.7427 15.9724C10.4125 15.9724 10.1292 15.8542 9.89272 15.6177C9.65624 15.3812 9.53801 15.0979 9.53801 14.7677C9.53801 14.4376 9.65624 14.1542 9.89272 13.9178C10.1292 13.6813 10.4125 13.5631 10.7427 13.5631C11.0729 13.5631 11.3562 13.6813 11.5926 13.9178C11.8291 14.1542 11.9474 14.4376 11.9474 14.7677C11.9474 14.9864 11.8916 15.1871 11.78 15.3701C11.673 15.553 11.5279 15.7002 11.345 15.8118C11.1665 15.9189 10.9658 15.9724 10.7427 15.9724Z" fill="#158AC1"/>
</svg>
