<svg width="17" height="16" viewBox="0 0 17 16" fill="none" xmlns="http://www.w3.org/2000/svg">
<rect width="16" height="16" transform="translate(0.020752)" fill="white"/>
<path d="M12.1973 15.0005C12.5003 14.6626 12.6865 14.2176 12.6865 13.728C12.6865 13.4247 12.6132 13.139 12.4873 12.8843C12.8081 12.7178 13.0273 12.382 13.0273 11.9956V10.0708C13.0747 10.015 13.125 9.95853 13.1807 9.90283C13.7785 9.29457 14.408 8.74397 15.0195 8.15576V14.0005C15.0195 14.5527 14.5717 15.0004 14.0195 15.0005H12.1973ZM1.02148 1.99951C1.02165 1.44737 1.4693 0.999512 2.02148 0.999512H7.66211C6.87124 1.49766 6.28253 2.21568 6.05469 2.99561H4.02539C3.47321 2.99561 3.02556 3.44346 3.02539 3.99561L3.02539 11.9956C3.02539 12.5479 3.47311 12.9956 4.02539 12.9956H9.01367C8.91998 13.2211 8.86816 13.4687 8.86816 13.728C8.86823 14.2176 9.05442 14.6626 9.35742 15.0005H2.02148C1.4692 15.0005 1.02148 14.5528 1.02148 14.0005L1.02148 1.99951Z" fill="#4A4A4A"/>
<path d="M4.02063 6.50024C4.02064 6.22421 4.24464 6.00041 4.52063 6.00024H9.52063C9.79665 6.00038 10.0206 6.2242 10.0206 6.50024C10.0205 6.77619 9.79657 7.00011 9.52063 7.00024H4.52063C4.24471 7.00008 4.02076 6.77617 4.02063 6.50024ZM4.02063 8.50024C4.02064 8.22421 4.24464 8.00041 4.52063 8.00024H9.51282C9.32795 8.27609 9.15778 8.59767 8.99622 9.00024H4.52063C4.24471 9.00008 4.02076 8.77617 4.02063 8.50024ZM4.02063 10.5002C4.02064 10.2242 4.24464 10.0004 4.52063 10.0002H8.8468C8.85724 10.3868 8.946 10.7227 9.09192 11.0002H4.52063C4.24471 11.0001 4.02076 10.7762 4.02063 10.5002ZM4.02063 4.50024C4.02064 4.22421 4.24464 4.00041 4.52063 4.00024H6.10461C6.11431 4.38437 6.21477 4.73116 6.422 5.00024H4.52063C4.24471 5.00008 4.02076 4.77617 4.02063 4.50024Z" fill="#4A4A4A"/>
<path d="M10.7099 11.0385C10.2663 11.0385 9.90014 10.6783 9.93187 10.2359C9.9639 9.78916 10.0331 9.34399 10.1745 8.92358C10.344 8.41941 10.585 8.01115 10.8973 7.69883C11.2096 7.38651 11.5844 7.09873 12.0216 6.83548C12.2849 6.67486 12.5214 6.48524 12.7311 6.26661C12.9408 6.04352 13.1059 5.78697 13.2263 5.49696C13.3512 5.20694 13.4137 4.8857 13.4137 4.53322C13.4137 4.09597 13.3111 3.71672 13.1059 3.39547C12.9006 3.07423 12.6262 2.8266 12.2827 2.65259C11.9391 2.47858 11.5576 2.39158 11.1382 2.39158C10.7724 2.39158 10.4199 2.46743 10.0808 2.61913C9.74169 2.77083 9.45837 3.00953 9.23082 3.33524C9.1287 3.48142 9.0459 3.64781 8.98242 3.83443C8.83831 4.25806 8.48849 4.61353 8.04103 4.61353V4.61353C7.55553 4.61353 7.15688 4.20314 7.27518 3.73228C7.37398 3.33901 7.52838 2.98358 7.73837 2.66598C8.09977 2.1261 8.57494 1.71339 9.16389 1.42784C9.75731 1.14229 10.4154 0.999512 11.1382 0.999512C11.9235 0.999512 12.6061 1.15567 13.1862 1.468C13.7707 1.78032 14.2213 2.20865 14.5381 2.75298C14.8593 3.29731 15.0199 3.9175 15.0199 4.61353C15.0199 5.10432 14.9441 5.54827 14.7924 5.94536C14.6452 6.34246 14.431 6.69717 14.1499 7.00949C13.8733 7.32181 13.5386 7.59844 13.146 7.83938C12.7534 8.08477 12.4388 8.34356 12.2023 8.61572C11.9659 8.88343 11.7941 9.20244 11.687 9.57277C11.6244 9.78931 11.5826 10.012 11.5558 10.2369C11.5032 10.6774 11.1534 11.0385 10.7099 11.0385V11.0385ZM10.7634 15.0005C10.4333 15.0005 10.1499 14.8823 9.91347 14.6458C9.677 14.4093 9.55876 14.126 9.55876 13.7958C9.55876 13.4656 9.677 13.1823 9.91347 12.9459C10.1499 12.7094 10.4333 12.5911 10.7634 12.5911C11.0936 12.5911 11.3769 12.7094 11.6134 12.9459C11.8499 13.1823 11.9681 13.4656 11.9681 13.7958C11.9681 14.0144 11.9123 14.2152 11.8008 14.3982C11.6937 14.5811 11.5487 14.7283 11.3658 14.8399C11.1873 14.9469 10.9865 15.0005 10.7634 15.0005Z" fill="#158AC1"/>
</svg>
