<svg width="17" height="16" viewBox="0 0 17 16" fill="none" xmlns="http://www.w3.org/2000/svg">
<rect width="16" height="16" transform="translate(0.0236816)" fill="white"/>
<circle cx="1" cy="1" r="1" transform="matrix(-1 0 0 1 11.0085 7)" fill="#4A4A4A"/>
<circle cx="1.5" cy="1.5" r="1.5" transform="matrix(-1 0 0 1 15.0085 6.5)" fill="#4A4A4A"/>
<path d="M11.0085 2.31885C11.0085 2.08491 10.7524 1.94053 10.5525 2.06201L1.16772 7.76514C0.975289 7.88207 0.975198 8.16116 1.16772 8.27783L10.5535 13.9565C10.7534 14.0773 11.0085 13.9333 11.0085 13.6997V12.0259C10.9949 12.0144 10.9813 12.0027 10.9656 11.9937L4.02222 8.01025L10.8855 4.08057C10.9414 4.04853 10.983 3.99904 11.0085 3.94189V2.31885Z" fill="#158AC1"/>
</svg>
