<svg width="17" height="16" viewBox="0 0 17 16" fill="none" xmlns="http://www.w3.org/2000/svg">
<g clip-path="url(#clip0_131_394)">
<rect width="16" height="16" transform="translate(0.0236816)" fill="white"/>
<circle cx="11.0237" cy="3" r="1" fill="#4A4A4A"/>
<circle cx="12.5237" cy="11.5" r="1.5" fill="#4A4A4A"/>
<path d="M13.6426 1.06872C13.8246 0.926543 14.0923 1.03486 14.1245 1.26356L15.0226 7.65548C15.0547 7.88418 14.8273 8.06185 14.6132 7.97534L8.62842 5.55755C8.4143 5.47104 8.37397 5.18505 8.55595 5.04287L9.05923 4.64966L9.18911 4.54942C9.27345 4.48431 9.38624 4.46793 9.48503 4.50784L12.6984 5.80682C13.0553 5.95101 13.4345 5.65468 13.381 5.27353L12.8989 1.8394C12.8841 1.73341 12.9272 1.62763 13.0116 1.56173L13.6426 1.06872Z" fill="#158AC1"/>
<path d="M8.03162 1.00781C8.71251 1.00781 9.37026 1.10656 9.99255 1.28809C9.52208 1.57204 9.17611 2.04248 9.06287 2.59863C8.72635 2.53427 8.37906 2.50002 8.0238 2.5C4.98624 2.5 2.5238 4.96243 2.5238 8C2.52387 11.0375 4.98628 13.5 8.0238 13.5C8.90329 13.5 9.7338 13.2919 10.4711 12.9248C10.7879 13.3804 11.2515 13.7252 11.7943 13.8906C10.7076 14.5863 9.41753 14.9922 8.03162 14.9922C4.17024 14.9921 1.04047 11.8614 1.04041 8C1.04041 4.13856 4.1702 1.00788 8.03162 1.00781Z" fill="#4A4A4A"/>
</g>
<defs>
<clipPath id="clip0_131_394">
<rect width="16" height="16" fill="white" transform="translate(0.0236816)"/>
</clipPath>
</defs>
</svg>
