<svg width="16" height="16" viewBox="0 0 16 16" fill="none" xmlns="http://www.w3.org/2000/svg">
<circle cx="12" cy="4.00146" r="3" fill="white"/>
<path d="M12 1.00146C10.3431 1.00146 9.00012 2.34462 9 4.00146C9 5.65842 10.343 7.00146 12 7.00146C13.6569 7.00142 15 5.65839 15 4.00146C14.9999 2.34464 13.6568 1.0015 12 1.00146ZM12.8604 5.80518C12.5995 5.92982 12.3083 6.00143 12 6.00146C10.8954 6.00146 10 5.1061 10 4.00146C10 3.69297 10.0725 3.40204 10.1973 3.14111L12.8604 5.80518ZM12 2.00146C13.1045 2.00159 13.9999 2.897 14 4.00146C14 4.30983 13.9284 4.601 13.8037 4.86182L11.1396 2.19775C11.4005 2.07311 11.6916 2.00146 12 2.00146Z" fill="#F57C00"/>
</svg>
