<svg width="16" height="16" viewBox="0 0 16 16" fill="none" xmlns="http://www.w3.org/2000/svg">
<g clip-path="url(#clip0_170_18)">
<path d="M7.72387 2.76757C7.90366 2.91759 8.13039 2.99976 8.36455 2.99976H14.006C14.5572 2.99976 15.0041 3.4466 15.0041 3.9978C15.0041 4.54901 14.5572 4.99585 14.006 4.99585H9.01581C9.00718 4.99585 9.00018 5.00285 9.00018 5.01147C9.00018 5.0201 8.99319 5.0271 8.98456 5.0271H8.06861C7.8414 5.0271 7.62203 4.94407 7.45177 4.79363L5.72621 3.26893C5.54344 3.10744 5.30796 3.01831 5.06406 3.01831H4.05682C3.50454 3.01831 3.05682 3.46603 3.05682 4.01831V11.9714C3.05682 12.5237 3.50454 12.9714 4.05682 12.9714H12.5729C12.838 12.9714 13.0529 12.7565 13.0529 12.4915C13.0529 12.2264 13.2678 12.0115 13.5329 12.0115H14.0285C14.5673 12.0115 15.0041 12.4483 15.0041 12.9871V14.0085C15.0041 14.5608 14.5564 15.0085 14.0041 15.0085H2.00018C1.4479 15.0085 1.00018 14.5608 1.00018 14.0085V1.99683C1.00018 1.44454 1.4479 0.996826 2.00018 0.996826H5.23933C5.47349 0.996826 5.70022 1.079 5.88001 1.22901L7.72387 2.76757Z" fill="#555555"/>
<path d="M9.99579 8.58089V6.19049C9.99579 6.05533 10.1186 5.98975 10.3299 5.98975L11.7733 5.99406C11.9847 5.99406 12 6.06784 12 6.203V8.71411C12 8.71411 12 8.99536 12.5072 8.98396C13 8.99536 13 8.71411 13 8.71411V6.20953C13 6.07438 13.0432 6.00059 13.2545 6.00059L14.6866 5.99041C14.8979 5.99041 15.0036 6.05798 15.0036 6.19314V8.58288C15.0036 9.44297 14.7792 10.1289 14.3323 10.4754C13.8855 10.8194 13.2771 10.9915 12.5072 10.9915C11.7374 10.9915 11.129 10.8194 10.6821 10.4754C10.2353 10.1289 9.99579 9.44098 9.99579 8.58089Z" fill="#037CB4"/>
<path d="M4.01123 8.29234C4.01123 7.46573 4.2304 6.80923 4.66875 6.32284C5.10709 5.83645 5.73259 5.59326 6.54525 5.59326C7.35791 5.59326 7.98342 5.83645 8.42176 6.32284C8.86011 6.80923 9.00091 7.49064 9.00091 8.29234C9.00091 9.09405 8.86011 9.77546 8.42176 10.2618C7.98342 10.7482 7.35791 10.9914 6.54525 10.9914C5.73259 10.9914 5.10709 10.7482 4.66875 10.2618C4.2304 9.77546 4.01123 9.11896 4.01123 8.29234ZM5.70645 8.29234C5.70878 8.85143 5.95046 9.449 6.54412 9.45193C7.13992 9.45488 7.38852 8.81596 7.39168 8.29234C7.39485 7.76625 7.14324 7.12972 6.54742 7.1307C5.95231 7.13168 5.70411 7.72832 5.70645 8.29234Z" fill="#037CB4"/>
<circle cx="13" cy="2.99536" r="3" fill="white"/>
<path d="M13 -0.00463867C11.3431 -0.00463867 10.0001 1.33851 10 2.99536C10 4.65231 11.343 5.99536 13 5.99536C14.6569 5.99532 16 4.65229 16 2.99536C15.9999 1.33854 14.6568 -0.00459857 13 -0.00463867ZM13.8604 4.79907C13.5995 4.92371 13.3083 4.99533 13 4.99536C11.8954 4.99536 11 4.1 11 2.99536C11 2.68686 11.0725 2.39593 11.1973 2.13501L13.8604 4.79907ZM13 0.995361C14.1045 0.995491 14.9999 1.89089 15 2.99536C15 3.30372 14.9284 3.59489 14.8037 3.85571L12.1396 1.19165C12.4005 1.06701 12.6916 0.995361 13 0.995361Z" fill="#F57C00"/>
</g>
<defs>
<clipPath id="clip0_170_18">
<rect width="16" height="16" fill="white" transform="translate(0 -0.00463867)"/>
</clipPath>
</defs>
</svg>
