<svg width="16" height="16" viewBox="0 0 16 16" fill="none" xmlns="http://www.w3.org/2000/svg">
<g clip-path="url(#clip0_170_69)">
<path d="M7.70013 3.70166C7.88773 3.88969 8.14243 3.99536 8.40805 3.99536H14.0127C14.565 3.99536 15.0127 4.44308 15.0127 4.99536V6.79126C15.0127 7.34354 14.565 7.79126 14.0127 7.79126H13.9019C13.4056 7.79126 13.003 7.38955 13.002 6.89331C13.0009 6.39707 12.5983 5.99536 12.102 5.99536H8.41421C8.149 5.99536 7.89464 5.89 7.70711 5.70247L5.29289 3.28825C5.10536 3.10072 4.851 2.99536 4.58579 2.99536H4.00347C3.44983 2.99536 3.00156 3.44519 3.00347 3.99882L3.01657 7.78294C3.01659 7.78753 3.01287 7.79126 3.00828 7.79126C3.00371 7.79126 3 7.79497 3 7.79954L2.99663 14.0015C2.99634 14.5521 2.5499 14.9983 1.99929 14.9983C1.44848 14.9983 1.00195 14.5518 1.00195 14.001V1.99536C1.00195 1.44308 1.44967 0.995361 2.00195 0.995361H4.58512C4.85073 0.995361 5.10543 1.10103 5.29303 1.28906L7.70013 3.70166Z" fill="#555555"/>
<path d="M10 6.99634H15V14.9993H10V14.9954H4V4.99536H10V6.99634ZM11.001 7.99927H10V8.99731H11.001V9.99731H10V10.9954H11.001V11.9954H10V13.9963H14V7.99634H11.001V7.99927ZM5 12.9954H6.50098V11.9954H5V12.9954ZM7.50098 12.9954H9V11.9954H7.50098V12.9954ZM13 11.9954H12V10.9954H13V11.9954ZM5 10.9954H6.50098V9.99731H5V10.9954ZM7.50098 10.9954H9V9.99731H7.50098V10.9954ZM13 9.99536H12V8.99536H13V9.99536ZM5 8.99731H6.50098V7.99927H5V8.99731ZM7.50098 8.99731H9V7.99927H7.50098V8.99731ZM5 6.99927H6.50098V5.99536H5V6.99927ZM7.50098 6.99927H9V5.99536H7.50098V6.99927Z" fill="#037CB4"/>
<circle cx="13" cy="2.99536" r="3" fill="white"/>
<path d="M13 -0.00463867C11.3431 -0.00463867 10.0001 1.33851 10 2.99536C10 4.65231 11.343 5.99536 13 5.99536C14.6569 5.99532 16 4.65229 16 2.99536C15.9999 1.33854 14.6568 -0.00459857 13 -0.00463867ZM13.8604 4.79907C13.5995 4.92371 13.3083 4.99533 13 4.99536C11.8954 4.99536 11 4.1 11 2.99536C11 2.68686 11.0725 2.39593 11.1973 2.13501L13.8604 4.79907ZM13 0.995361C14.1045 0.995491 14.9999 1.89089 15 2.99536C15 3.30372 14.9284 3.59489 14.8037 3.85571L12.1396 1.19165C12.4005 1.06701 12.6916 0.995361 13 0.995361Z" fill="#F57C00"/>
</g>
<defs>
<clipPath id="clip0_170_69">
<rect width="16" height="16" fill="white" transform="translate(0 -0.00463867)"/>
</clipPath>
</defs>
</svg>
