<svg width="16" height="17" viewBox="0 0 16 17" fill="none" xmlns="http://www.w3.org/2000/svg">
<path d="M7.72393 3.74413C7.90372 3.89415 8.13045 3.97632 8.36461 3.97632H14.0061C14.5573 3.97632 15.0042 4.42316 15.0042 4.97437C15.0042 5.52557 14.5573 5.97241 14.0061 5.97241H9.01587C9.00724 5.97241 9.00024 5.97941 9.00024 5.98804C9.00024 5.99667 8.99325 6.00366 8.98462 6.00366H8.06867C7.84146 6.00366 7.62209 5.92063 7.45183 5.77019L5.72627 4.2455C5.5435 4.084 5.30802 3.99487 5.06412 3.99487H4.05688C3.5046 3.99487 3.05688 4.44259 3.05688 4.99487V12.948C3.05688 13.5003 3.5046 13.948 4.05688 13.948H12.573C12.8381 13.948 13.053 13.7331 13.053 13.468C13.053 13.2029 13.2679 12.988 13.533 12.988H14.0286C14.5674 12.988 15.0042 13.4248 15.0042 13.9636V14.9851C15.0042 15.5374 14.5564 15.9851 14.0042 15.9851H2.00024C1.44796 15.9851 1.00024 15.5374 1.00024 14.9851V2.97339C1.00024 2.4211 1.44796 1.97339 2.00024 1.97339H5.23939C5.47355 1.97339 5.70028 2.05556 5.88007 2.20558L7.72393 3.74413Z" fill="#4A4A4A"/>
<path d="M9.99585 9.55746V7.16705C9.99585 7.0319 10.1186 6.96631 10.33 6.96631L11.7734 6.97062C11.9847 6.97062 12.0001 7.04441 12.0001 7.17956V9.69067C12.0001 9.69067 12.0001 9.97192 12.5073 9.96053C13.0001 9.97192 13.0001 9.69067 13.0001 9.69067V7.1861C13.0001 7.05094 13.0433 6.97715 13.2546 6.97715L14.6866 6.96697C14.898 6.96697 15.0037 7.03455 15.0037 7.1697V9.55945C15.0037 10.4195 14.7792 11.1055 14.3324 11.452C13.8856 11.796 13.2772 11.968 12.5073 11.968C11.7374 11.968 11.129 11.796 10.6822 11.452C10.2354 11.1055 9.99585 10.4175 9.99585 9.55746Z" fill="#158AC1"/>
<path d="M4.01123 9.26891C4.01123 8.44229 4.2304 7.78579 4.66875 7.2994C5.10709 6.81302 5.73259 6.56982 6.54525 6.56982C7.35791 6.56982 7.98342 6.81302 8.42176 7.2994C8.86011 7.78579 9.00091 8.4672 9.00091 9.26891C9.00091 10.0706 8.86011 10.752 8.42176 11.2384C7.98342 11.7248 7.35791 11.968 6.54525 11.968C5.73259 11.968 5.10709 11.7248 4.66875 11.2384C4.2304 10.752 4.01123 10.0955 4.01123 9.26891ZM5.70645 9.26891C5.70878 9.82799 5.95046 10.4256 6.54412 10.4285C7.13992 10.4314 7.38852 9.79252 7.39168 9.26891C7.39485 8.74281 7.14324 8.10628 6.54742 8.10726C5.95231 8.10824 5.70411 8.70489 5.70645 9.26891Z" fill="#158AC1"/>
</svg>
