<svg width="16" height="17" viewBox="0 0 16 17" fill="none" xmlns="http://www.w3.org/2000/svg">
<path d="M7.70013 4.67822C7.88773 4.86625 8.14243 4.97192 8.40805 4.97192H14.0127C14.565 4.97192 15.0127 5.41964 15.0127 5.97192V7.76782C15.0127 8.32011 14.565 8.76782 14.0127 8.76782H13.9019C13.4056 8.76782 13.003 8.36611 13.002 7.86987C13.0009 7.37363 12.5983 6.97192 12.102 6.97192H8.41421C8.149 6.97192 7.89464 6.86657 7.70711 6.67903L5.29289 4.26482C5.10536 4.07728 4.851 3.97192 4.58579 3.97192H4.00347C3.44983 3.97192 3.00156 4.42175 3.00347 4.97539L3.01657 8.7595C3.01659 8.76409 3.01287 8.76782 3.00828 8.76782C3.00371 8.76782 3 8.77153 3 8.77611L2.99663 14.9781C2.99634 15.5287 2.5499 15.9749 1.99929 15.9749C1.44848 15.9749 1.00195 15.5283 1.00195 14.9775V2.97192C1.00195 2.41964 1.44967 1.97192 2.00195 1.97192H4.58512C4.85073 1.97192 5.10543 2.07759 5.29303 2.26562L7.70013 4.67822Z" fill="#4A4A4A"/>
<path d="M10 7.9729H15V15.9758H10V15.9719H4V5.97192H10V7.9729ZM11.001 8.97583H10V9.97388H11.001V10.9739H10V11.9719H11.001V12.9719H10V14.9729H14V8.9729H11.001V8.97583ZM5 13.9719H6.50098V12.9719H5.00098V11.9719H6.50098V10.9739H5.00098V9.97388H6.50098V8.97583H5.00098V7.97583H6.50098V6.97192H5V13.9719ZM7.50098 13.9719H9V12.9719H7.50098V13.9719ZM13 12.9719H12V11.9719H13V12.9719ZM7.50098 11.9719H9V10.9739H7.50098V11.9719ZM13 10.9719H12V9.97192H13V10.9719ZM7.50098 9.97388H9V8.97583H7.50098V9.97388ZM7.50098 7.97583H9V6.97192H7.50098V7.97583Z" fill="#158AC1"/>
</svg>
