<svg width="17" height="16" viewBox="0 0 17 16" fill="none" xmlns="http://www.w3.org/2000/svg">
<path d="M8.01543 3.99858C8.01634 3.99949 8.01757 4 8.01885 4C8.02152 4 8.02368 4.00216 8.02368 4.00483V5.89245C8.02368 5.97666 7.95542 6.04492 7.87121 6.04492C7.82836 6.04492 7.7875 6.0269 7.75861 5.99526L5.32109 3.32571C5.13162 3.11821 4.8636 3 4.58262 3H4.0272C3.47354 3 3.02526 3.44986 3.02721 4.00351L3.05534 12.0064C3.05727 12.5574 3.50442 13.0029 4.05533 13.0029H8.85148C9.31572 13.0029 9.62817 13.5358 9.62817 14C9.62819 14.4664 9.31483 15.0029 8.84847 15.0029H2.02564C1.47335 15.0029 1.02563 14.5552 1.02563 14.0029V2C1.02563 1.44772 1.47335 1 2.02563 1H4.6088C4.87441 1 5.12911 1.10567 5.31671 1.2937L8.01543 3.99858ZM15.0364 14.3895C15.0364 14.7283 14.7562 15.0029 14.4174 15.0029C13.951 15.0029 13.6282 14.4664 13.6282 14C13.6282 13.5948 13.5075 13.2177 13.3003 12.9027C13.1539 12.6801 13.0374 12.4312 13.0374 12.1649V11.9995C13.0374 11.4475 13.4848 11 14.0369 11C14.5889 11 15.0364 11.4475 15.0364 11.9995V14.3895Z" fill="#4A4A4A"/>
<path d="M11.5359 11.7851C11.1756 11.7851 10.8782 11.4926 10.904 11.1333C10.93 10.7705 10.9862 10.4089 11.101 10.0675C11.2387 9.65801 11.4344 9.32644 11.6881 9.07279C11.9417 8.81913 12.2461 8.5854 12.6012 8.3716C12.815 8.24115 13.0071 8.08714 13.1774 7.90958C13.3477 7.7284 13.4818 7.52004 13.5796 7.2845C13.6811 7.04896 13.7318 6.78806 13.7318 6.50179C13.7318 6.14667 13.6485 5.83865 13.4818 5.57775C13.3151 5.31685 13.0922 5.11573 12.8132 4.97441C12.5342 4.83308 12.2244 4.76242 11.8837 4.76242C11.5866 4.76242 11.3003 4.82403 11.0249 4.94723C10.7495 5.07044 10.5194 5.2643 10.3346 5.52883C10.2517 5.64755 10.1844 5.78269 10.1329 5.93425C10.0158 6.27831 9.73172 6.56701 9.3683 6.56701C8.974 6.56701 8.65023 6.23371 8.74631 5.85129C8.82655 5.5319 8.95195 5.24322 9.12249 4.98528C9.41601 4.54681 9.80193 4.21162 10.2803 3.97971C10.7622 3.74779 11.2967 3.63184 11.8837 3.63184C12.5215 3.63184 13.0759 3.75866 13.547 4.01232C14.0217 4.26598 14.3877 4.61385 14.645 5.05594C14.9059 5.49803 15.0363 6.00172 15.0363 6.56701C15.0363 6.96562 14.9747 7.32617 14.8515 7.64868C14.7319 7.97119 14.558 8.25927 14.3297 8.51293C14.105 8.76658 13.8333 8.99125 13.5144 9.18693C13.1955 9.38623 12.94 9.59641 12.748 9.81745C12.5559 10.0349 12.4164 10.294 12.3294 10.5947C12.2786 10.7706 12.2447 10.9515 12.2229 11.1342C12.1801 11.4918 11.8961 11.7851 11.5359 11.7851ZM11.5793 15.0029C11.3112 15.0029 11.0811 14.9069 10.889 14.7148C10.697 14.5228 10.6009 14.2927 10.6009 14.0245C10.6009 13.7564 10.697 13.5263 10.889 13.3342C11.0811 13.1422 11.3112 13.0461 11.5793 13.0461C11.8475 13.0461 12.0776 13.1422 12.2697 13.3342C12.4617 13.5263 12.5577 13.7564 12.5577 14.0245C12.5577 14.2021 12.5124 14.3652 12.4218 14.5137C12.3349 14.6623 12.2171 14.7819 12.0685 14.8725C11.9236 14.9594 11.7605 15.0029 11.5793 15.0029Z" fill="#158AC1"/>
</svg>
