<svg width="16" height="17" viewBox="0 0 16 17" fill="none" xmlns="http://www.w3.org/2000/svg">
<path d="M6.7381 3.7135C6.87454 3.85022 6.95117 4.03548 6.95117 4.22863C6.95117 4.89438 6.13237 5.21198 5.68345 4.72036L5.28503 4.28406C5.10345 4.08521 4.84659 3.97192 4.5773 3.97192H4.00352C3.44986 3.97192 3.00158 4.42178 3.00353 4.97544L3.03165 12.9784C3.03359 13.5293 3.48074 13.9749 4.03165 13.9749H12.0137C12.566 13.9749 13.0137 13.5254 13.0137 12.9731C13.0137 12.4211 13.4612 11.9719 14.0132 11.9719C14.5652 11.9719 15.0127 12.4194 15.0127 12.9714V14.9749C15.0127 15.5271 14.565 15.9749 14.0127 15.9749H2.00195C1.44967 15.9749 1.00195 15.5271 1.00195 14.9749V2.97192C1.00195 2.41964 1.44967 1.97192 2.00195 1.97192H4.5852C4.85076 1.97192 5.10542 2.07756 5.29301 2.26552L6.7381 3.7135Z" fill="#4A4A4A"/>
<path d="M10.0021 1.97192C12.1771 1.97192 13.9413 3.7354 13.9415 5.9104C13.9415 6.39804 13.8516 6.86512 13.6896 7.29614C13.3078 7.13673 12.9518 6.93207 12.631 6.68579C12.7033 6.44003 12.7442 6.18055 12.7443 5.91138C12.7443 4.39702 11.5164 3.16919 10.0021 3.16919C8.48784 3.16934 7.25989 4.39711 7.25989 5.91138C7.25992 6.14843 7.29412 6.37753 7.35071 6.59692C7.03316 6.85672 6.67839 7.07459 6.29602 7.24634C6.14575 6.82934 6.0636 6.37918 6.0636 5.9104C6.06386 3.73556 7.82723 1.97218 10.0021 1.97192Z" fill="#158AC1"/>
<path d="M11.3302 4.97241C12.0363 6.27261 13.3406 7.19901 14.8732 7.38745C14.3343 8.48808 13.6856 9.73419 13.1154 10.5896C12.4932 11.8335 10.0213 12.9627 10.0001 12.9724C9.98144 12.964 7.47147 11.8341 6.84875 10.5896C6.27769 9.73301 5.63559 8.48432 5.10461 7.38257C6.61782 7.18163 7.90355 6.25999 8.60266 4.97241H11.3302ZM8.82434 5.97241C8.49139 6.91233 7.706 7.63437 6.72766 7.87866C7.00664 8.61696 7.30451 9.41673 7.49915 9.97241L9.99915 11.3718L12.4991 9.97241C12.6937 9.41604 12.9918 8.61651 13.2706 7.87866C12.2927 7.63407 11.5067 6.91214 11.174 5.97241H8.82434Z" fill="#158AC1"/>
<path d="M10.0029 6.9729C10.555 6.9731 11.0029 7.42171 11.0029 7.97388C11.0027 8.35781 10.7854 8.69024 10.4678 8.85767L11.0029 9.97388H9.00293L9.57422 8.87524C9.23681 8.7147 9.00312 8.37236 9.00293 7.97388C9.00293 7.42159 9.45064 6.9729 10.0029 6.9729Z" fill="#4A4A4A"/>
</svg>
