<svg width="16" height="17" viewBox="0 0 16 17" fill="none" xmlns="http://www.w3.org/2000/svg">
<path d="M8.02734 1.97192C10.8037 1.97192 13.0545 4.22291 13.0547 6.99927C13.0547 7.62177 12.9402 8.21761 12.7334 8.76782C12.2468 8.56454 11.7938 8.30241 11.3848 7.98853C11.477 7.67501 11.5273 7.34359 11.5273 7.00024C11.5273 5.06725 9.96034 3.50024 8.02734 3.50024C6.09453 3.50046 4.52734 5.06738 4.52734 7.00024C4.52738 7.30375 4.56602 7.59834 4.63867 7.87915C4.23455 8.20902 3.78395 8.48695 3.29785 8.70532C3.10574 8.17269 3 7.59812 3 6.99927C3.00022 4.22304 5.25112 1.97214 8.02734 1.97192Z" fill="#158AC1"/>
<path d="M9.35156 4.97095C10.0561 6.9351 11.7589 8.42364 13.8486 8.82446C13.3308 10.3347 12.6835 11.948 12.001 12.9719C11.2063 14.5607 8.02122 15.9627 7.99805 15.9729C7.98143 15.9656 4.79668 14.5623 4.00098 12.9719C3.31754 11.9465 2.67044 10.3295 2.15234 8.81763C4.2247 8.40619 5.91099 6.92316 6.61133 4.97095H9.35156ZM6.65723 6.9729C6.15869 8.18599 5.07978 9.09986 3.76562 9.36646C3.98595 10.0308 4.21845 10.73 4.42188 11.3108C4.6888 12.0977 7.98242 14.9729 7.98242 14.9729C8.00066 14.9574 11.3579 12.1072 11.5986 11.3108C11.8008 10.7326 12.0241 10.0377 12.2344 9.3772C10.8921 9.12717 9.78665 8.20513 9.28027 6.9729H6.65723Z" fill="#4A4A4A"/>
<path d="M8.00012 7.97144C8.82849 7.9715 9.50012 8.64403 9.50012 9.47241C9.49991 10.1257 9.08113 10.6789 8.49817 10.8845L9.50012 12.9724H6.50012L7.57336 10.9089C6.95312 10.7251 6.50034 10.1523 6.50012 9.47241C6.50012 8.64398 7.17169 7.97144 8.00012 7.97144Z" fill="#158AC1"/>
</svg>
