<svg width="16" height="17" viewBox="0 0 16 17" fill="none" xmlns="http://www.w3.org/2000/svg">
<path d="M8.00024 1.97217C9.93317 1.97225 11.5002 3.53922 11.5002 5.47217C11.5002 7.40506 9.93313 8.97208 8.00024 8.97217C6.06729 8.97217 4.50031 7.40511 4.50024 5.47217C4.50024 3.53917 6.06725 1.97217 8.00024 1.97217ZM8.00024 3.47217C6.89567 3.47217 6.00024 4.3676 6.00024 5.47217C6.00024 6.57674 6.89567 7.47217 8.00024 7.47217C9.10481 7.47217 10.0002 6.57674 10.0002 5.47217C10.0002 4.3676 9.10481 3.47217 8.00024 3.47217Z" fill="#158AC1"/>
<path d="M3 15.9723H1V12.9724C1 10.9753 3.31853 9.95092 5.02711 9.95099C6.14971 9.95103 7.13977 10.9704 7.99997 10.9753C8.87513 10.9803 10.138 9.9951 11.0121 9.95099C12.6767 9.86698 15 10.975 15 12.9723V15.9723H13V13.9724C13 12.0561 12.1497 11.9723 11 11.9723H7.99997H4.99997C3.99906 11.9723 3.02776 11.8442 3 13.9724C2.95056 14.9583 3 15.9723 3 15.9723Z" fill="#4A4A4A"/>
<rect x="3.99756" y="13.9719" width="1" height="2" rx="0.5" transform="rotate(-0.14064 3.99756 13.9719)" fill="#4A4A4A"/>
<rect x="10.9976" y="13.9719" width="1" height="2" rx="0.5" transform="rotate(-0.14064 10.9976 13.9719)" fill="#4A4A4A"/>
</svg>
