<svg width="16" height="17" viewBox="0 0 16 17" fill="none" xmlns="http://www.w3.org/2000/svg">
<path d="M7.85817 3.89168C7.95094 3.95402 8.06018 3.9873 8.17195 3.9873C8.6423 3.9873 8.95114 4.58349 8.91039 5.05208C8.90539 5.10957 8.90283 5.16776 8.90283 5.22656C8.90283 5.54693 8.64312 5.80664 8.32275 5.80664H7.99374C7.81229 5.80664 7.635 5.75234 7.48467 5.65073L5.25422 4.14318C5.08886 4.03141 4.89383 3.97168 4.69424 3.97168H4.00204C3.44915 3.97168 3.00118 4.42034 3.00204 4.97323L3.01535 13.5551C3.01577 13.8268 3.23618 14.0469 3.50792 14.0469C3.77996 14.0469 4.00049 14.2674 4.00049 14.5394V14.9814C4.00057 15.4251 3.6993 15.9229 3.2556 15.9229H2.02043C1.46875 15.9229 1.02128 15.4761 1.02044 14.9244L1.00203 2.97322C1.00118 2.42033 1.44914 1.97168 2.00203 1.97168H4.69575C4.8944 1.97168 5.08855 2.03084 5.25344 2.14163L7.85817 3.89168Z" fill="#4A4A4A"/>
<circle cx="14.0265" cy="5.48281" r="0.951562" fill="#4A4A4A"/>
<path d="M11.0092 3.97971C11.6008 3.98048 12.0275 4.89127 12.0275 5.48291C12.0275 5.73342 11.8461 5.97119 11.5956 5.97119H8.00012C7.44785 5.97119 7.00015 6.41893 7.00012 6.97119V12.9683C7.00012 13.5205 7.44784 13.9683 8.00012 13.9683H12.0753C12.6275 13.9681 13.0753 13.5204 13.0753 12.9683V8.23414C13.0753 7.78634 13.5797 7.48291 14.0275 7.48291C14.4839 7.48283 15.0031 7.79029 15.0031 8.24674V14.9302C15.003 15.4806 14.5574 15.9276 14.007 15.9302L6.00403 15.9673C5.45013 15.9696 5.00012 15.5212 5.00012 14.9673V4.97314C5.0003 4.42052 5.44843 3.97244 6.0011 3.97314L11.0092 3.97971Z" fill="#158AC1"/>
<ellipse cx="14.0271" cy="5.48306" rx="0.950997" ry="0.951562" fill="#158AC1"/>
<rect x="8" y="6.97583" width="4" height="0.996094" fill="#158AC1"/>
<rect x="8" y="8.97192" width="4" height="1" fill="#158AC1"/>
<rect x="8" y="10.9741" width="4" height="0.993774" fill="#158AC1"/>
</svg>
