<svg width="17" height="16" viewBox="0 0 17 16" fill="none" xmlns="http://www.w3.org/2000/svg">
<path d="M5.81827 1.79614C5.94918 1.92731 6.02271 2.10506 6.02271 2.29037V2.82882C6.02271 3.27681 5.47175 3.49055 5.16962 3.15978C5.07665 3.05799 4.94514 3 4.80728 3H4.0272C3.47354 3 3.02526 3.44986 3.02721 4.00351L3.05534 12.0064C3.05727 12.5574 3.50442 13.0029 4.05533 13.0029H12.0374C12.5896 13.0029 13.0374 12.5552 13.0374 12.0029V10.9995C13.0374 10.4475 13.4848 10 14.0369 10C14.5889 10 15.0364 10.4475 15.0364 10.9995V14.0029C15.0364 14.5552 14.5887 15.0029 14.0364 15.0029H2.02564C1.47335 15.0029 1.02563 14.5552 1.02563 14.0029V2C1.02563 1.44772 1.47335 1 2.02563 1H4.6089C4.87445 1 5.1291 1.10563 5.31669 1.29358L5.81827 1.79614Z" fill="#4A4A4A"/>
<path d="M11.4407 1C12.0838 2.47151 13.4143 3.57403 15.0266 3.90039C14.7254 5.74269 14.25 7.96006 13.594 8.94434C12.381 10.7638 10.5654 11.9819 10.5383 12C10.5145 11.984 8.69682 10.7656 7.48267 8.94434C6.82547 7.95824 6.35647 5.7349 6.06274 3.89062C7.65598 3.55369 8.96917 2.45852 9.60669 1H11.4407ZM10.0881 2.98633C9.60963 3.89384 8.79263 4.59417 7.80493 4.9209C8.03521 6.11391 8.36202 7.52077 8.71509 8.08398C9.37242 9.13205 10.5012 9.98313 10.5237 10C10.5442 9.98503 11.7055 9.1334 12.3635 8.08398C12.7171 7.51981 13.0441 6.10928 13.2747 4.91504C12.2948 4.58589 11.4847 3.8884 11.009 2.98633H10.0881Z" fill="#158AC1"/>
<path d="M10.5447 4.62598C11.097 4.62598 11.5447 5.07369 11.5447 5.62598C11.5447 6.08545 11.2344 6.47076 10.8123 6.58789L11.8435 8.37402H9.24585L10.2761 6.58789C9.85453 6.47038 9.54468 6.08504 9.54468 5.62598C9.54468 5.07373 9.99245 4.62604 10.5447 4.62598Z" fill="#158AC1"/>
</svg>
