<svg width="17" height="16" viewBox="0 0 17 16" fill="none" xmlns="http://www.w3.org/2000/svg">
<path d="M6.52064 2.50062C6.70467 2.6851 6.57401 3 6.31343 3C6.15179 3 6.02075 3.13104 6.02075 3.29268V3.30515C6.02075 3.58373 5.67814 3.71663 5.49028 3.51092L5.16934 3.15949C5.07655 3.05789 4.94529 3 4.80769 3H4.0272C3.47354 3 3.02526 3.44986 3.02721 4.00351L3.05534 12.0064C3.05727 12.5574 3.50442 13.0029 4.05533 13.0029H12.0374C12.5896 13.0029 13.0374 12.5552 13.0374 12.0029V10.4663C13.0374 9.91429 13.4848 9.4668 14.0369 9.4668C14.5889 9.4668 15.0364 9.91429 15.0364 10.4663V14.0029C15.0364 14.5552 14.5887 15.0029 14.0364 15.0029H2.02564C1.47335 15.0029 1.02563 14.5552 1.02563 14.0029V2C1.02563 1.44772 1.47335 1 2.02563 1H4.60875C4.87439 1 5.12912 1.10569 5.31672 1.29376L6.52064 2.50062Z" fill="#4A4A4A"/>
<path d="M11.8432 7.32602L8.88324 11.3125C7.9459 12.2498 6.35827 11.009 7.46903 9.89828L11.8432 7.32602Z" fill="#158AC1"/>
<path d="M13.2581 5.96704C14.0303 6.62622 14.6443 7.46546 15.0364 8.41919H12.2629C12.0905 8.2061 11.9031 8.00602 11.7053 7.81665L13.2581 5.96704ZM10.9456 4.70435C11.5956 4.90034 12.2021 5.19604 12.7473 5.57446L11.22 7.39478C10.9036 7.14706 10.5633 6.92914 10.2034 6.74341L10.9456 4.70435ZM7.6731 6.04321C7.53714 6.03462 7.40009 6.02955 7.26196 6.02954C6.07942 6.02954 4.97175 6.34955 4.01978 6.90649C4.91873 5.75607 6.20026 4.92044 7.6731 4.58911V6.04321ZM9.08813 4.43091C9.50863 4.43091 9.91972 4.47099 10.3176 4.5481L9.61548 6.47681C9.20128 6.3136 8.76675 6.1909 8.31567 6.11646V4.47681C8.56891 4.44644 8.82669 4.43091 9.08813 4.43091Z" fill="#158AC1"/>
</svg>
