<svg width="17" height="16" viewBox="0 0 17 16" fill="none" xmlns="http://www.w3.org/2000/svg">
<rect width="16" height="16" transform="translate(0.0236816)" fill="white"/>
<path d="M8.0238 1C9.95673 1.00009 11.5238 2.56706 11.5238 4.5C11.5237 6.43289 9.95669 7.99991 8.0238 8C6.09085 8 4.52387 6.43294 4.5238 4.5C4.5238 2.567 6.09081 1 8.0238 1ZM8.0238 2.5C6.91923 2.5 6.0238 3.39543 6.0238 4.5C6.0238 5.60457 6.91923 6.5 8.0238 6.5C9.12837 6.5 10.0238 5.60457 10.0238 4.5C10.0238 3.39543 9.12837 2.5 8.0238 2.5Z" fill="#158AC1"/>
<path d="M3.02368 15.0004H1.02368V12.0004C1.02368 10.0034 3.34221 8.979 5.0508 8.97906C6.17339 8.9791 7.16345 9.9985 8.02365 10.0034C8.89881 10.0084 10.1617 9.02317 11.0357 8.97906C12.7004 8.89506 15.0237 10.0031 15.0237 12.0004V15.0004H13.0237V13.0004C13.0237 11.0842 12.1733 11.0004 11.0236 11.0004H8.02365H5.02365C4.02274 11.0004 3.05144 10.8723 3.02368 13.0004C2.97424 13.9864 3.02368 15.0004 3.02368 15.0004Z" fill="#4A4A4A"/>
<rect x="4.02136" y="13" width="1" height="2" rx="0.5" transform="rotate(-0.14064 4.02136 13)" fill="#4A4A4A"/>
<rect x="11.0214" y="13" width="1" height="2" rx="0.5" transform="rotate(-0.14064 11.0214 13)" fill="#4A4A4A"/>
</svg>
