<svg width="16" height="17" viewBox="0 0 16 17" fill="none" xmlns="http://www.w3.org/2000/svg">
<path d="M15 10.9719C15 11.5242 14.5523 11.9719 14 11.9719H2C1.44772 11.9719 1 11.5242 1 10.9719V3.97192C1 3.41964 1.44772 2.97192 2 2.97192H14C14.5523 2.97192 15 3.41964 15 3.97192V10.9719ZM4 4.97192C3.44772 4.97192 3 5.41964 3 5.97192V8.97192C3 9.52421 3.44772 9.97192 4 9.97192H11.9951C12.5474 9.97192 12.9951 9.52421 12.9951 8.97192V5.97192C12.9951 5.41964 12.5474 4.97192 11.9951 4.97192H4Z" fill="#158AC1"/>
<path d="M12.0004 13.9719C12.5525 13.9721 13.0004 14.4198 13.0004 14.9719C13.0004 15.5241 12.5525 15.9717 12.0004 15.9719H4.00037C3.44808 15.9719 3.00037 15.5242 3.00037 14.9719C3.00037 14.4196 3.44808 13.9719 4.00037 13.9719H7.00037V11.9719H9.00037V13.9719H12.0004Z" fill="#4A4A4A"/>
</svg>
