<svg width="16" height="17" viewBox="0 0 16 17" fill="none" xmlns="http://www.w3.org/2000/svg">
<path d="M7.76164 3.77629C7.91671 3.90569 8.11227 3.97656 8.31424 3.97656H12.0859C12.3576 3.97656 12.638 4.71056 12.5515 4.96817C12.5149 5.07705 12.4168 5.16296 12.302 5.16278L8.09344 5.15625C7.97699 5.15605 7.86294 5.16593 7.75203 5.185C7.32444 5.25853 6.85258 5.24092 6.5274 4.95371L5.72568 4.24561C5.54294 4.0842 5.30751 3.99512 5.06369 3.99512H4.05634C3.50405 3.99512 3.05634 4.44283 3.05634 4.99512V12.9482C3.05634 13.5005 3.50405 13.9482 4.05634 13.9482H5.09052C5.6428 13.9482 6.09052 14.396 6.09052 14.9482V14.959C6.09052 15.4336 5.77191 15.9854 5.29729 15.9854H1.99969C1.44741 15.9854 0.999695 15.5376 0.999695 14.9854V2.97363C0.999695 2.42135 1.44741 1.97363 1.99969 1.97363H5.23885C5.473 1.97363 5.69973 2.0558 5.87952 2.20582L7.76164 3.77629ZM15.0036 4.08759C15.0036 4.13976 14.9439 4.17053 14.9001 4.14233C14.8401 4.10378 14.8686 3.97656 14.9399 3.97656C14.9749 3.97656 15.0036 4.00495 15.0036 4.03996V4.08759Z" fill="#4A4A4A"/>
<path d="M11.0004 12.9717H14.0004V15.9717H13.0004V13.9717H11.0004V15.9717H10.0004V13.9717H8.00037V15.9717H7.00037V12.9717H10.0004V11.9717H11.0004V12.9717Z" fill="#158AC1"/>
<path d="M14.9974 5.96704H5.99744V3.96704H14.9974V5.96704Z" fill="#158AC1"/>
<path d="M14.9974 8.97192H5.99744V6.97192H14.9974V8.97192Z" fill="#158AC1"/>
<path d="M14.9974 11.9719H5.99744V9.97192H14.9974V11.9719Z" fill="#158AC1"/>
</svg>
