<svg width="17" height="16" viewBox="0 0 17 16" fill="none" xmlns="http://www.w3.org/2000/svg">
<rect width="16" height="16" transform="translate(0.0236816)" fill="white"/>
<path d="M6.02319 4.33691C7.31074 4.33691 8.35505 5.38047 8.35522 6.66797C8.35522 7.95562 7.31084 9 6.02319 9C4.73567 8.99985 3.69214 7.95552 3.69214 6.66797C3.69231 5.38056 4.73578 4.33707 6.02319 4.33691ZM6.02417 5.66895C5.47189 5.66895 5.02417 6.11666 5.02417 6.66895C5.02442 7.22102 5.47204 7.66895 6.02417 7.66895C6.57608 7.66869 7.02392 7.22086 7.02417 6.66895C7.02417 6.11682 6.57624 5.6692 6.02417 5.66895Z" fill="#4A4A4A"/>
<path d="M11.0232 1.3374C12.3107 1.3374 13.3551 2.38095 13.3552 3.66846C13.3552 4.95611 12.3108 6.00049 11.0232 6.00049C9.73567 6.00034 8.69214 4.95601 8.69214 3.66846C8.69231 2.38105 9.73578 1.33755 11.0232 1.3374ZM11.0242 2.66943C10.4719 2.66943 10.0242 3.11715 10.0242 3.66943C10.0244 4.2215 10.472 4.66943 11.0242 4.66943C11.5761 4.66918 12.0239 4.22135 12.0242 3.66943C12.0242 3.1173 11.5762 2.66969 11.0242 2.66943Z" fill="#4A4A4A"/>
<path d="M3.02368 8.99976C4.03447 8.9998 4.41298 9.99976 6.0188 9.99976C6.02043 9.99976 6.02205 9.99878 6.02368 9.99878V10.9871H4.03442C3.3678 10.9871 3.04225 11.5116 3.02368 12.9988C2.99105 13.6818 3.0231 14.9765 3.02368 14.9998H1.02368V11.4998C1.02381 10.1039 1.88561 8.99971 3.02368 8.99976ZM13.0569 6.6687C14.1502 6.62901 15.0236 7.36535 15.0237 8.68237V9.00073H13.0569V6.6687Z" fill="#4A4A4A"/>
<path d="M11.0238 7C11.576 7.00006 12.0238 7.44775 12.0238 8V10H14.0238C14.576 10.0001 15.0238 10.4477 15.0238 11C15.0238 11.5523 14.576 11.9999 14.0238 12H12.0238V14C12.0238 14.5523 11.576 14.9999 11.0238 15C10.4715 15 10.0238 14.5523 10.0238 14V12H8.0238C7.47152 12 7.0238 11.5523 7.0238 11C7.0238 10.4477 7.47152 10 8.0238 10H10.0238V8C10.0238 7.44772 10.4715 7 11.0238 7Z" fill="#158AC1"/>
</svg>
