<svg width="17" height="16" viewBox="0 0 17 16" fill="none" xmlns="http://www.w3.org/2000/svg">
<path d="M1.7373 8.00024C1.47165 8.00024 1.33679 7.6804 1.52246 7.49048L7.82227 1.05396C7.9401 0.933807 8.13346 0.934413 8.25098 1.05493L14.5273 7.49048C14.7125 7.68045 14.5777 7.99995 14.3125 8.00024H13.0498C13.0194 7.98606 12.991 7.96815 12.9668 7.94458L8.02539 3.12915L3.09766 7.92798C3.06299 7.96174 3.02043 7.98641 2.97461 8.00024H1.7373Z" fill="#158AC1"/>
<path d="M13.024 14.9983L3.02405 14.9973V8.00024H13.024V14.9983ZM5.02405 9.00024V12.9993H7.02405V10.0002H9.02405V12.9993H11.024V9.00024H5.02405Z" fill="#4A4A4A"/>
<circle cx="8.02368" cy="6" r="1" transform="rotate(-90 8.02368 6)" fill="#4A4A4A"/>
</svg>
