<svg width="16" height="17" viewBox="0 0 16 17" fill="none" xmlns="http://www.w3.org/2000/svg">
<path d="M8.00024 1.97217C9.93317 1.97225 11.5002 3.53922 11.5002 5.47217C11.5002 7.40506 9.93313 8.97208 8.00024 8.97217C6.06729 8.97217 4.50031 7.40511 4.50024 5.47217C4.50024 3.53917 6.06725 1.97217 8.00024 1.97217ZM8.00024 3.47217C6.89567 3.47217 6.00024 4.3676 6.00024 5.47217C6.00024 6.57674 6.89567 7.47217 8.00024 7.47217C9.10481 7.47217 10.0002 6.57674 10.0002 5.47217C10.0002 4.3676 9.10481 3.47217 8.00024 3.47217Z" fill="#4A4A4A"/>
<path d="M5.02734 9.95142C5.398 9.95148 5.75384 10.0631 6.0957 10.2122H6V11.9719H5C3.99917 11.9719 3.02789 11.8442 3 13.9719C2.95112 14.9468 2.99892 15.9496 3 15.9719H1V12.9719C1.00035 10.9752 3.31888 9.95135 5.02734 9.95142ZM15 15.9719H13V14.2122H15V15.9719Z" fill="#4A4A4A"/>
<rect x="3.99756" y="13.9719" width="1" height="2" rx="0.5" transform="rotate(-0.14064 3.99756 13.9719)" fill="#4A4A4A"/>
<path d="M11 7.97192C11.5523 7.97192 12 8.41964 12 8.97192V10.9719H14C14.5523 10.9719 15 11.4196 15 11.9719C15 12.5242 14.5523 12.9719 14 12.9719H12V14.9719C12 15.5242 11.5523 15.9719 11 15.9719C10.4477 15.9719 10 15.5242 10 14.9719V12.9719H8C7.44772 12.9719 7 12.5242 7 11.9719C7 11.4196 7.44772 10.9719 8 10.9719H10V8.97192C10 8.41964 10.4477 7.97192 11 7.97192Z" fill="#158AC1"/>
</svg>
