<svg width="16" height="17" viewBox="0 0 16 17" fill="none" xmlns="http://www.w3.org/2000/svg">
<path d="M7.70015 4.67761C7.88774 4.86557 8.1424 4.97119 8.40795 4.97119H11.2342C11.6999 4.97119 12.0127 5.50648 12.0127 5.97217C12.0127 6.45324 11.6904 7.01709 11.2093 7.01709H8.22134C7.94035 7.01709 7.67233 6.89888 7.48287 6.69138L5.2974 4.29788C5.10794 4.09038 4.83992 3.97217 4.55893 3.97217H4.00352C3.44986 3.97217 3.00158 4.42203 3.00353 4.97568L3.03165 12.9786C3.03359 13.5295 3.48074 13.9751 4.03165 13.9751H12.0137C12.566 13.9751 13.0137 13.5274 13.0137 12.9751V8.7494C13.0137 8.28441 13.5477 7.97217 14.0127 7.97217C14.4781 7.97217 15.0127 8.2843 15.0127 8.74967V14.9751C15.0127 15.5274 14.565 15.9751 14.0127 15.9751H2.00195C1.44967 15.9751 1.00195 15.5274 1.00195 14.9751V2.97217C1.00195 2.41988 1.44967 1.97217 2.00195 1.97217H4.58521C4.85077 1.97217 5.10542 2.07779 5.29301 2.26575L7.70015 4.67761Z" fill="#4A4A4A"/>
<circle cx="14.0127" cy="5.97192" r="1" fill="#4A4A4A"/>
</svg>
