<svg width="17" height="16" viewBox="0 0 17 16" fill="none" xmlns="http://www.w3.org/2000/svg">
<rect width="16" height="16" transform="translate(0.0236816)" fill="white"/>
<path d="M8.0238 1C9.95673 1.00009 11.5238 2.56706 11.5238 4.5C11.5237 6.43289 9.95669 7.99991 8.0238 8C6.09085 8 4.52387 6.43294 4.5238 4.5C4.5238 2.567 6.09081 1 8.0238 1ZM8.0238 2.5C6.91923 2.5 6.0238 3.39543 6.0238 4.5C6.0238 5.60457 6.91923 6.5 8.0238 6.5C9.12837 6.5 10.0238 5.60457 10.0238 4.5C10.0238 3.39543 9.12837 2.5 8.0238 2.5Z" fill="#4A4A4A"/>
<path d="M5.05103 8.97949C5.42169 8.97955 5.77753 9.09115 6.11938 9.24023H6.02368V11H5.02368C4.02285 11 3.05157 10.8723 3.02368 13C2.9748 13.9749 3.02261 14.9777 3.02368 15H1.02368V12C1.02403 10.0033 3.34257 8.97943 5.05103 8.97949ZM15.0237 15H13.0237V13.2402H15.0237V15Z" fill="#4A4A4A"/>
<rect x="4.02136" y="13" width="1" height="2" rx="0.5" transform="rotate(-0.14064 4.02136 13)" fill="#4A4A4A"/>
<path d="M11.0237 7C11.576 7 12.0237 7.44772 12.0237 8V10H14.0237C14.576 10 15.0237 10.4477 15.0237 11C15.0237 11.5523 14.576 12 14.0237 12H12.0237V14C12.0237 14.5523 11.576 15 11.0237 15C10.4714 15 10.0237 14.5523 10.0237 14V12H8.02368C7.4714 12 7.02368 11.5523 7.02368 11C7.02368 10.4477 7.4714 10 8.02368 10H10.0237V8C10.0237 7.44772 10.4714 7 11.0237 7Z" fill="#158AC1"/>
</svg>
