<svg width="16" height="17" viewBox="0 0 16 17" fill="none" xmlns="http://www.w3.org/2000/svg">
<path d="M6.78937 3.76478C6.92612 3.9018 7.00293 4.08749 7.00293 4.28108C7.00293 4.94831 6.1823 5.26663 5.73237 4.77392L5.29259 4.29234C5.10619 4.08821 4.84252 3.97192 4.56609 3.97192H4.00352C3.44986 3.97192 3.00158 4.42178 3.00353 4.97544L3.03165 12.9784C3.03359 13.5293 3.48074 13.9749 4.03165 13.9749H12.0137C12.566 13.9749 13.0137 13.5271 13.0137 12.9749V10.9714C13.0137 10.4194 13.4612 9.97192 14.0132 9.97192C14.5652 9.97192 15.0127 10.4194 15.0127 10.9714V14.9749C15.0127 15.5271 14.565 15.9749 14.0127 15.9749H2.00195C1.44967 15.9749 1.00195 15.5271 1.00195 14.9749V2.97192C1.00195 2.41964 1.44967 1.97192 2.00195 1.97192H4.58522C4.85077 1.97192 5.10542 2.07755 5.29301 2.26551L6.78937 3.76478Z" fill="#4A4A4A"/>
<path d="M10.417 1.97192C11.1886 3.73749 12.95 4.97181 15 4.97192C15.0037 4.97188 15.008 4.971 15.0117 4.97095C14.2876 6.79297 13.3709 8.94956 12.7266 9.91626C11.5132 11.7362 9.5286 12.9544 9.5 12.9719C9.49106 12.9653 7.83413 11.7446 6.61523 9.91626C5.9704 8.94886 5.04567 6.78987 4.31348 4.96704C6.29591 4.90566 7.98739 3.69205 8.73926 1.97192H10.417ZM8.33301 3.97192C7.63168 4.76426 6.69502 5.33249 5.63672 5.56372C6.00455 6.71418 6.52677 8.19767 7 8.97192C7.19195 9.41012 9.46951 10.9513 9.5 10.9719C9.52051 10.9564 11.5654 9.41057 12 8.97192C12.4722 8.19949 13.0909 6.72095 13.5449 5.57153C12.4735 5.34488 11.5248 4.77222 10.8164 3.97192H8.33301Z" fill="#158AC1"/>
<path d="M9.5 9.97217L7.00293 5.97217H8L9.49609 7.97217L11 5.97217H12L9.5 9.97217Z" fill="#158AC1"/>
</svg>
