<svg width="17" height="16" viewBox="0 0 17 16" fill="none" xmlns="http://www.w3.org/2000/svg">
<path d="M5.81615 1.79428C6.07903 2.05775 6.05103 2.4901 5.7876 2.75302C5.68458 2.85584 5.58528 2.96239 5.48989 3.07245C5.3876 3.19048 5.20412 3.19765 5.09881 3.0823C5.05095 3.02987 4.98324 3 4.91225 3H4.0272C3.47354 3 3.02526 3.44986 3.02721 4.00351L3.05534 12.0064C3.05727 12.5574 3.50442 13.0029 4.05533 13.0029H12.5196C12.8055 13.0029 13.0374 12.7711 13.0374 12.4852C13.0374 12.3009 13.1363 12.1319 13.2908 12.0314C13.3217 12.0113 13.3524 11.9909 13.3829 11.9703C13.9663 11.5753 15.0364 11.9597 15.0364 12.6643V14.0029C15.0364 14.5552 14.5887 15.0029 14.0364 15.0029H2.02564C1.47335 15.0029 1.02563 14.5552 1.02563 14.0029V2C1.02563 1.44772 1.47335 1 2.02563 1H4.6088C4.87441 1 5.12911 1.10567 5.31671 1.2937L5.81615 1.79428Z" fill="#4A4A4A"/>
<path d="M10.0237 2C12.7851 2 15.0237 4.23858 15.0237 7C15.0236 9.76132 12.785 12 10.0237 12C7.26237 12 5.0238 9.76129 5.02368 7C5.02368 4.23861 7.2623 2.00005 10.0237 2ZM8.35864 10.0781C8.85392 10.3466 9.42074 10.5 10.0237 10.5C11.9567 10.5 13.5237 8.933 13.5237 7C13.5237 6.39706 13.3703 5.83024 13.1018 5.33496L8.35864 10.0781ZM10.0237 3.5C8.09069 3.5 6.52368 5.06701 6.52368 7C6.52368 7.60247 6.6765 8.16906 6.94458 8.66406L11.6877 3.9209C11.1927 3.65282 10.6261 3.5 10.0237 3.5Z" fill="#158AC1"/>
</svg>
