<svg width="16" height="17" viewBox="0 0 16 17" fill="none" xmlns="http://www.w3.org/2000/svg">
<path d="M4.93286 3.05688C4.93286 3.57492 4.51291 3.99487 3.99487 3.99487C3.47684 3.99487 3.05688 4.41482 3.05688 4.93286V13.01C3.05688 13.528 3.47684 13.948 3.99487 13.948H4.93091C4.93199 13.948 4.93286 13.9489 4.93286 13.95C4.93286 13.951 4.93373 13.9519 4.93481 13.9519L8.00583 13.9571C8.55746 13.958 9.00415 14.4126 9.00415 14.9642C9.00415 15.5165 8.55644 15.9714 8.00415 15.9714H2.00024C1.44796 15.9714 1.00024 15.5237 1.00024 14.9714V2.97339C1.00024 2.4211 1.44796 1.97339 2.00024 1.97339H3.93286C4.48515 1.97339 4.93286 2.4211 4.93286 2.97339V3.05688ZM14.0061 13.9685C14.5576 13.9696 15.0042 14.4184 15.0042 14.97C15.0042 15.5223 14.5564 15.9714 14.0042 15.9714C13.4519 15.9714 13.0042 15.5223 13.0042 14.97C13.0042 14.4169 13.4531 13.9674 14.0061 13.9685ZM15.0042 9.06226C15.0042 9.60106 14.5674 10.0378 14.0286 10.0378C13.4898 10.0378 13.053 9.60106 13.053 9.06226V9.01147C13.053 8.47267 13.4898 8.03589 14.0286 8.03589C14.5674 8.03589 15.0042 8.47267 15.0042 9.01147V9.06226Z" fill="#4A4A4A"/>
<path d="M11.9999 4.97217C12.0008 4.98918 12.032 5.50476 12.4911 5.49463C12.9367 5.50467 12.9979 4.98985 12.9999 4.97217V2.2251H15.0038V4.97217C15.0037 5.76381 14.797 6.20886 14.3856 6.52783C13.9742 6.84431 13.1996 6.97213 12.4911 6.97217C11.7825 6.97216 11.1974 6.93715 10.786 6.62061C10.3747 6.30163 10 5.76385 9.99988 4.97217V2.2251H11.9999V4.97217ZM7.49695 1.97217C8.24493 1.97225 8.82097 2.19637 9.22449 2.64404C9.62795 3.09181 9.75766 3.71955 9.75769 4.45752C9.75764 5.19537 9.62786 5.82326 9.22449 6.271C8.82098 6.7185 8.24479 6.94279 7.49695 6.94287C6.74888 6.94282 6.17199 6.7187 5.76843 6.271C5.36508 5.82328 5.16304 5.21825 5.16296 4.45752C5.16302 3.69677 5.3651 3.09178 5.76843 2.64404C6.17199 2.19629 6.74884 1.97222 7.49695 1.97217ZM7.4989 3.80811C7.16747 3.79705 6.97313 4.12663 6.95007 4.45752C6.92519 4.81891 7.13694 5.21814 7.4989 5.20654C7.85253 5.19475 8.03354 4.81067 8.00964 4.45752C7.98762 4.13567 7.8212 3.81925 7.4989 3.80811Z" fill="#4A4A4A"/>
<path d="M11.0042 7.96802C11.5564 7.96802 12.0042 8.41573 12.0042 8.96802V10.968H14.0042C14.5564 10.968 15.0042 11.4157 15.0042 11.968C15.0042 12.5203 14.5564 12.968 14.0042 12.968H12.0042V14.968C12.0042 15.5203 11.5564 15.968 11.0042 15.968C10.4519 15.968 10.0042 15.5203 10.0042 14.968V12.968H8.00415C7.45187 12.968 7.00415 12.5203 7.00415 11.968C7.00415 11.4157 7.45187 10.968 8.00415 10.968H10.0042V8.96802C10.0042 8.41573 10.4519 7.96802 11.0042 7.96802Z" fill="#158AC1"/>
</svg>
