<svg width="17" height="16" viewBox="0 0 17 16" fill="none" xmlns="http://www.w3.org/2000/svg">
<path d="M5.81827 1.79614C5.94918 1.92731 6.02271 2.10506 6.02271 2.29037V2.82882C6.02271 3.27681 5.47175 3.49055 5.16962 3.15978V3.15978C5.07665 3.05799 4.94514 3 4.80728 3H4.0272C3.47354 3 3.02526 3.44986 3.02721 4.00351L3.05534 12.0064C3.05727 12.5574 3.50442 13.0029 4.05533 13.0029H12.0374C12.5896 13.0029 13.0374 12.5552 13.0374 12.0029V9.99951C13.0374 9.4475 13.4849 9 14.0369 9V9C14.5889 9 15.0364 9.4475 15.0364 9.99951V14.0029C15.0364 14.5552 14.5887 15.0029 14.0364 15.0029H2.02563C1.47335 15.0029 1.02563 14.5552 1.02563 14.0029V2C1.02563 1.44772 1.47335 1 2.02563 1H4.6089C4.87445 1 5.1291 1.10563 5.31669 1.29358L5.81827 1.79614Z" fill="#4A4A4A"/>
<path d="M10.4407 1C11.2123 2.76556 12.9737 3.99989 15.0237 4C15.0274 3.99996 15.0317 3.99907 15.0354 3.99902C14.3113 5.82104 13.3946 7.97763 12.7502 8.94434C11.5369 10.7642 9.55228 11.9825 9.52368 12C9.51474 11.9934 7.85781 10.7727 6.63892 8.94434C5.99408 7.97693 5.06935 5.81794 4.33716 3.99512C6.31959 3.93374 8.01107 2.72013 8.76294 1H10.4407ZM8.35669 3C7.65536 3.79234 6.7187 4.36057 5.6604 4.5918C6.02823 5.74226 6.55045 7.22575 7.02368 8C7.21563 8.4382 9.49319 9.97939 9.52368 10C9.54419 9.9845 11.589 8.43865 12.0237 8C12.4958 7.22757 13.1146 5.74902 13.5686 4.59961C12.4972 4.37296 11.5485 3.8003 10.8401 3H8.35669Z" fill="#158AC1"/>
<path d="M9.52368 9.00024L7.02661 5.00024H8.02368L9.51978 7.00024L11.0237 5.00024H12.0237L9.52368 9.00024Z" fill="#158AC1"/>
</svg>
