<svg width="17" height="16" viewBox="0 0 17 16" fill="none" xmlns="http://www.w3.org/2000/svg">
<path d="M5.81827 1.79614C5.94918 1.92731 6.02271 2.10506 6.02271 2.29037V2.82882C6.02271 3.27681 5.47175 3.49055 5.16962 3.15978C5.07665 3.05799 4.94514 3 4.80728 3H4.0272C3.47354 3 3.02526 3.44986 3.02721 4.00351L3.05534 12.0064C3.05727 12.5574 3.50442 13.0029 4.05533 13.0029H12.0374C12.5896 13.0029 13.0374 12.5552 13.0374 12.0029V10.9995C13.0374 10.4475 13.4848 10 14.0369 10C14.5889 10 15.0364 10.4475 15.0364 10.9995V14.0029C15.0364 14.5552 14.5887 15.0029 14.0364 15.0029H2.02564C1.47335 15.0029 1.02563 14.5552 1.02563 14.0029V2C1.02563 1.44772 1.47335 1 2.02563 1H4.6089C4.87445 1 5.1291 1.10563 5.31669 1.29358L5.81827 1.79614Z" fill="#4A4A4A"/>
<path d="M11.4016 2C12.0447 3.20387 13.3753 4.10502 14.9875 4.37207C14.6864 5.87953 14.211 7.69453 13.5549 8.5C12.3421 9.98835 10.5269 10.9849 10.4993 11C10.4728 10.9855 8.65687 9.98902 7.4436 8.5C6.78629 7.69309 6.3174 5.87337 6.02368 4.36426C7.61682 4.08859 8.93008 3.19324 9.56763 2H11.4016ZM10.0491 3.625C9.57051 4.36749 8.7536 4.94074 7.76587 5.20801C7.99613 6.18393 8.32305 7.33508 8.67603 7.7959C9.332 8.65155 10.4576 9.34666 10.4846 9.36328C10.507 9.3499 11.667 8.65375 12.3245 7.7959C12.678 7.3343 13.0051 6.18008 13.2356 5.20312C12.2558 4.93386 11.4457 4.36297 10.97 3.625H10.0491Z" fill="#158AC1"/>
</svg>
