<svg width="17" height="16" viewBox="0 0 17 16" fill="none" xmlns="http://www.w3.org/2000/svg">
<path d="M5.81923 1.79711C5.95015 1.92828 6.02368 2.10604 6.02368 2.29137V2.82862C6.02368 3.27704 5.4722 3.49101 5.16977 3.15992C5.0767 3.05804 4.94507 3 4.80708 3H4.0272C3.47354 3 3.02526 3.44986 3.02721 4.00351L3.05534 12.0064C3.05727 12.5574 3.50442 13.0029 4.05533 13.0029H6.02271C6.02324 13.0029 6.02368 13.0034 6.02368 13.0039C6.02368 13.0044 6.02412 13.0049 6.02466 13.0049H14.0374C14.5891 13.0049 15.0364 13.4522 15.0364 14.0039C15.0364 14.5557 14.5891 15.0029 14.0374 15.0029H2.02564C1.47335 15.0029 1.02563 14.5552 1.02563 14.0029V2C1.02563 1.44772 1.47335 1 2.02563 1H4.6089C4.87445 1 5.1291 1.10562 5.31669 1.29358L5.81923 1.79711ZM14.03 4C14.5823 4 15.0364 4.44772 15.0364 5V5.04492C15.0364 5.59721 14.5823 6.04492 14.03 6.04492C13.4777 6.04492 13.0237 5.59721 13.0237 5.04492V5C13.0237 4.44772 13.4777 4 14.03 4Z" fill="#4A4A4A"/>
<path d="M9.52368 5C9.79982 5 10.0237 5.22386 10.0237 5.5V7.5C10.0237 7.77614 9.79982 8 9.52368 8C9.24754 8 9.02368 7.77614 9.02368 7.5V5.5C9.02368 5.22386 9.24754 5 9.52368 5Z" fill="#158AC1"/>
<path d="M14.9178 10.494C15.2965 11.1607 14.815 11.988 14.0483 11.988H5.20039C4.44083 11.988 3.95857 11.1746 4.32304 10.5082L8.66272 2.57349C9.03854 1.88634 10.0226 1.87837 10.4095 2.55934L14.9178 10.494ZM6.21471 9.56556C5.89469 10.2295 6.37848 10.9998 7.11553 10.9998H11.9313C12.6684 10.9998 13.1522 10.2295 12.8322 9.56556L10.4243 4.56987C10.0606 3.81545 8.98624 3.81546 8.62262 4.56987L6.21471 9.56556Z" fill="#158AC1"/>
<path d="M9.1709 9.85278C9.26905 9.95093 9.38664 10 9.52368 10C9.61627 10 9.69961 9.97778 9.77368 9.93333C9.84961 9.88704 9.90979 9.82593 9.95424 9.75C10.0005 9.67407 10.0237 9.59074 10.0237 9.5C10.0237 9.36296 9.97461 9.24537 9.87646 9.14722C9.77831 9.04907 9.66072 9 9.52368 9C9.38664 9 9.26905 9.04907 9.1709 9.14722C9.07276 9.24537 9.02368 9.36296 9.02368 9.5C9.02368 9.63704 9.07276 9.75463 9.1709 9.85278Z" fill="#158AC1"/>
</svg>
