<svg width="16" height="17" viewBox="0 0 16 17" fill="none" xmlns="http://www.w3.org/2000/svg">
<path d="M5.99951 5.30884C7.28705 5.30884 8.33137 6.35239 8.33154 7.63989C8.33154 8.92754 7.28716 9.97192 5.99951 9.97192C4.71199 9.97177 3.66846 8.92745 3.66846 7.63989C3.66863 6.35248 4.7121 5.30899 5.99951 5.30884ZM6.00049 6.64087C5.4482 6.64087 5.00049 7.08858 5.00049 7.64087C5.00074 8.19294 5.44836 8.64087 6.00049 8.64087C6.5524 8.64062 7.00024 8.19278 7.00049 7.64087C7.00049 7.08874 6.55256 6.64112 6.00049 6.64087Z" fill="#4A4A4A"/>
<path d="M10.9995 2.30933C12.2871 2.30933 13.3314 3.35288 13.3315 4.64038C13.3315 5.92803 12.2872 6.97241 10.9995 6.97241C9.71199 6.97226 8.66846 5.92794 8.66846 4.64038C8.66863 3.35297 9.7121 2.30948 10.9995 2.30933ZM11.0005 3.64136C10.4482 3.64136 10.0005 4.08907 10.0005 4.64136C10.0007 5.19343 10.4484 5.64136 11.0005 5.64136C11.5524 5.64111 12.0002 5.19327 12.0005 4.64136C12.0005 4.08923 11.5526 3.64161 11.0005 3.64136Z" fill="#158AC1"/>
<path d="M3 15.972H1V12.472C1 11.076 1.86184 9.97188 3 9.97192C4.01079 9.97196 4.3893 10.9719 5.99512 10.9719C7.29171 10.9719 7.9941 9.97191 9 9.97192C10.5737 9.97194 11 11.0758 11 12.472V15.972L9 15.9719C9 15.9719 9.02824 15.3108 9.02824 13.9713C9.02824 12.6317 8.46985 11.9588 7.70399 11.9588H6.03476H4.01079C3.34405 11.9588 3.01849 12.4836 3 13.9713C2.96707 14.6605 3 15.972 3 15.972Z" fill="#4A4A4A"/>
<path d="M10.3704 8.98789H9.02837L9.02832 7.64139C9.02832 7.64139 9.98062 7.9718 11 7.9718C12.0194 7.9718 12.4177 7.67078 13 7.64139C14.1089 7.58544 15.0334 8.32356 15.0334 9.65404C15.0334 9.71221 15.0236 12.9676 15.0236 12.9676H13V9.9718C13 9.31564 12.8044 8.98789 12.0385 8.98789H10.3704Z" fill="#158AC1"/>
</svg>
