<svg width="17" height="16" viewBox="0 0 17 16" fill="none" xmlns="http://www.w3.org/2000/svg">
<rect width="16" height="16" transform="translate(0.0236816)" fill="white"/>
<path d="M6.02319 4.33691C7.31074 4.33691 8.35505 5.38047 8.35522 6.66797C8.35522 7.95562 7.31084 9 6.02319 9C4.73567 8.99985 3.69214 7.95552 3.69214 6.66797C3.69231 5.38056 4.73578 4.33707 6.02319 4.33691ZM6.02417 5.66895C5.47189 5.66895 5.02417 6.11666 5.02417 6.66895C5.02442 7.22102 5.47204 7.66895 6.02417 7.66895C6.57608 7.66869 7.02392 7.22086 7.02417 6.66895C7.02417 6.11682 6.57624 5.6692 6.02417 5.66895Z" fill="#4A4A4A"/>
<path d="M11.0232 1.3374C12.3107 1.3374 13.3551 2.38095 13.3552 3.66846C13.3552 4.95611 12.3108 6.00049 11.0232 6.00049C9.73567 6.00034 8.69214 4.95601 8.69214 3.66846C8.69231 2.38105 9.73578 1.33755 11.0232 1.3374ZM11.0242 2.66943C10.4719 2.66943 10.0242 3.11715 10.0242 3.66943C10.0244 4.2215 10.472 4.66943 11.0242 4.66943C11.5761 4.66918 12.0239 4.22135 12.0242 3.66943C12.0242 3.1173 11.5762 2.66969 11.0242 2.66943Z" fill="#158AC1"/>
<path d="M3.02368 15H1.02368V11.5C1.02368 10.1041 1.88552 8.99995 3.02368 9C4.03447 9.00004 4.41298 10 6.0188 10C7.31539 10 8.01778 8.99999 9.02368 9C10.5973 9.00002 11.0237 10.1039 11.0237 11.5V15L9.02368 15C9.02368 15 9.05192 14.3389 9.05192 12.9993C9.05192 11.6598 8.49354 10.9869 7.72767 10.9869H6.05844H4.03447C3.36773 10.9869 3.04218 11.5117 3.02368 12.9993C2.99075 13.6885 3.02368 15 3.02368 15Z" fill="#4A4A4A"/>
<path d="M10.3941 8.01596H9.05205L9.052 6.66947C9.052 6.66947 10.0043 6.99988 11.0237 6.99988C12.0431 6.99988 12.4414 6.69885 13.0237 6.66947C14.1326 6.61351 15.0571 7.35164 15.0571 8.68211C15.0571 8.74029 15.0473 11.9956 15.0473 11.9956H13.0237V8.99988C13.0237 8.34372 12.8281 8.01596 12.0622 8.01596H10.3941Z" fill="#158AC1"/>
</svg>
