<svg width="17" height="16" viewBox="0 0 17 16" fill="none" xmlns="http://www.w3.org/2000/svg">
<path d="M7.88216 2.9198C7.97489 2.98211 8.08408 3.01538 8.19579 3.01538C8.66586 3.01538 8.97502 3.6113 8.93433 4.07961C8.92932 4.13728 8.92676 4.19566 8.92676 4.25464C8.92676 4.57501 8.66705 4.83472 8.34668 4.83472H8.01767C7.83622 4.83472 7.65892 4.78042 7.50859 4.67881L5.27815 3.17125C5.11278 3.05948 4.91775 2.99976 4.71816 2.99976H4.02597C3.47308 2.99976 3.02511 3.44842 3.02597 4.00131L3.03849 12.0765C3.03935 12.6282 3.48681 13.075 4.03849 13.075H5.05469C5.58971 13.075 6.02344 13.5087 6.02344 14.0437C6.02353 14.4746 5.73186 14.9509 5.30094 14.9509H2.04436C1.49268 14.9509 1.04521 14.5042 1.04436 13.9525L1.02596 2.00129C1.0251 1.44841 1.47307 0.999756 2.02596 0.999756H4.71967C4.91832 0.999756 5.11247 1.05892 5.27736 1.16971L7.88216 2.9198Z" fill="#4A4A4A"/>
<circle cx="14.0503" cy="4.51089" r="0.951562" fill="#4A4A4A"/>
<path d="M11.0342 3.01318C11.6248 3.01318 12.0512 3.9206 12.0512 4.51123C12.0512 4.76174 11.8698 4.99951 11.6193 4.99951H10.0239C9.47169 4.99951 9.02405 5.44738 9.02386 5.99951V11.9956C9.02386 12.5479 9.47158 12.9956 10.0239 12.9956H12.0991C12.6513 12.9956 13.0991 12.5479 13.0991 11.9956V7.26246C13.0991 6.81465 13.6034 6.51123 14.0512 6.51123C14.5077 6.51115 15.0268 6.81859 15.0268 7.27506V13.9536C15.0268 14.5059 14.5791 14.9536 14.0268 14.9536H8.05121C7.49892 14.9536 7.05121 14.5059 7.05121 13.9536V4.01318C7.05139 3.46106 7.49904 3.01318 8.05121 3.01318H11.0342Z" fill="#158AC1"/>
<ellipse cx="14.0508" cy="4.51113" rx="0.950997" ry="0.951562" fill="#158AC1"/>
<rect x="10.0316" y="7.00391" width="1.99219" height="0.996094" fill="#158AC1"/>
<rect x="10.0316" y="9" width="1.99219" height="1" fill="#158AC1"/>
<rect x="10.0316" y="11.0024" width="1.99219" height="0.993774" fill="#158AC1"/>
</svg>
