<svg width="16" height="17" viewBox="0 0 16 17" fill="none" xmlns="http://www.w3.org/2000/svg">
<path d="M7.85823 3.89169C7.951 3.95402 8.06024 3.9873 8.172 3.9873C8.64235 3.9873 8.95119 4.5835 8.91045 5.05208C8.90545 5.10957 8.90289 5.16776 8.90289 5.22656C8.90289 5.54693 8.64318 5.80664 8.32281 5.80664H7.9938C7.81236 5.80664 7.63506 5.75234 7.48473 5.65073L5.25428 4.14318C5.08892 4.03141 4.89389 3.97168 4.6943 3.97168H4.0021C3.44921 3.97168 3.00125 4.42034 3.0021 4.97323L3.01541 13.5536C3.01583 13.8262 3.23689 14.0469 3.50944 14.0469C3.78229 14.0469 4.00348 14.2681 4.00348 14.5409V15.0146C4.00348 15.4459 3.71131 15.9229 3.28001 15.9229H2.02049C1.46881 15.9229 1.02135 15.4761 1.0205 14.9244L1.00209 2.97322C1.00124 2.42033 1.4492 1.97168 2.00209 1.97168H4.69581C4.89446 1.97168 5.08861 2.03084 5.2535 2.14163L7.85823 3.89169Z" fill="#4A4A4A"/>
<circle cx="14.0265" cy="5.48281" r="0.951562" fill="#4A4A4A"/>
<path d="M6 13.9719C6.55217 13.9719 6.99982 14.4198 7 14.9719C7 15.5242 6.55228 15.9719 6 15.9719C5.44772 15.9719 5 15.5242 5 14.9719C5.00018 14.4198 5.44783 13.9719 6 13.9719ZM10.0186 14.0042C10.5617 14.0044 11.002 14.4453 11.002 14.9885C11.0019 15.5317 10.5617 15.9717 10.0186 15.9719H9.98047C9.43736 15.9717 8.99715 15.5317 8.99707 14.9885C8.99707 14.4453 9.43731 14.0044 9.98047 14.0042H10.0186ZM15 14.9729C15 15.5246 14.5449 15.9719 13.9932 15.9719C13.4499 15.9718 13.002 15.5318 13.002 14.9885V14.0403C13.0021 14.0205 13.0182 14.0042 13.0381 14.0042C13.058 14.0042 13.0742 13.988 13.0742 13.968V8.23649C13.0742 7.78958 13.5785 7.48755 14.0254 7.48755C14.481 7.48753 15 7.79352 15 8.24911V14.9729ZM6.00391 9.97192C6.55585 9.97219 7.00665 10.42 7.00684 10.9719C7.00684 11.524 6.55597 11.9717 6.00391 11.9719C5.45162 11.9719 5 11.5242 5 10.9719C5.00019 10.4198 5.45174 9.97192 6.00391 9.97192ZM11.0038 3.97192C11.5985 3.97192 12.0283 4.88311 12.0283 5.47778C12.0284 5.72942 11.8462 5.96802 11.5945 5.96802H8.00684C7.45467 5.96802 7.00702 6.41784 7.00684 6.96997C7.00684 7.52209 6.55597 7.97166 6.00391 7.97192C5.45162 7.97192 5 7.52421 5 6.97192V4.97192C5.00018 4.4198 5.44783 3.97192 6 3.97192H11.0038Z" fill="#158AC1"/>
<ellipse cx="14.0253" cy="5.47731" rx="0.949791" ry="0.95631" fill="#158AC1"/>
<rect x="8.0058" y="6.97754" width="3.99493" height="1.00106" fill="#158AC1"/>
<rect x="8.0058" y="8.98364" width="3.99493" height="1.00499" fill="#158AC1"/>
<rect x="8.0058" y="10.9937" width="3.99493" height="1.00499" fill="#158AC1"/>
</svg>
