<svg width="16" height="17" viewBox="0 0 16 17" fill="none" xmlns="http://www.w3.org/2000/svg">
<path d="M7.70834 4.68645C7.89069 4.86921 8.13825 4.97192 8.39642 4.97192C8.76404 4.97192 9.1002 5.17932 9.26511 5.50787L9.99546 6.96288C9.99843 6.9688 9.99977 6.97541 9.99934 6.98202C9.99806 7.00161 9.9818 7.01685 9.96217 7.01685H8.22134C7.94035 7.01685 7.67233 6.89863 7.48287 6.69113L5.2974 4.29764C5.10794 4.09014 4.83992 3.97192 4.55893 3.97192H4.00352C3.44986 3.97192 3.00158 4.42178 3.00353 4.97544L3.03165 12.9784C3.03359 13.5293 3.48074 13.9749 4.03165 13.9749H13.0122C13.013 13.9749 13.0137 13.9742 13.0137 13.9734C13.0137 13.9726 13.0143 13.9719 13.0151 13.9719H14.0132C14.5652 13.9719 15.0127 14.4211 15.0127 14.9731C15.0127 15.5254 14.565 15.9749 14.0127 15.9749H2.00195C1.44967 15.9749 1.00195 15.5271 1.00195 14.9749V2.97192C1.00195 2.41964 1.44967 1.97192 2.00195 1.97192H4.58512C4.85073 1.97192 5.10543 2.07759 5.29303 2.26562L7.70834 4.68645Z" fill="#4A4A4A"/>
<path d="M13.0127 8.97192C14.1172 8.97202 15.0127 9.86741 15.0127 10.9719C15.0127 12.0765 14.1172 12.9718 13.0127 12.9719H6C4.89543 12.9719 4 12.0765 4 10.9719C4.00003 9.86737 4.89544 8.97196 6 8.97192H13.0127ZM6.07617 10.0745C5.56503 10.0747 5.14618 10.4796 5.12891 10.9905C5.111 11.5263 5.54015 11.9707 6.07617 11.9709H12.873C13.3844 11.9708 13.8032 11.5651 13.8203 11.054C13.8381 10.5182 13.4091 10.0746 12.873 10.0745H6.07617ZM12 10.4719C12.2761 10.4719 12.5 10.6958 12.5 10.9719C12.5 11.2481 12.2761 11.4719 12 11.4719C11.7239 11.4719 11.5 11.2481 11.5 10.9719C11.5 10.6958 11.7239 10.4719 12 10.4719Z" fill="#158AC1"/>
<path d="M9.0127 4.97388C9.50342 5.45644 10.2528 5.76497 11.0703 5.90063C11.2 6.73961 11.5168 7.49967 12.0225 7.97095H12.0518C12.0388 7.97111 12.0257 7.97192 12.0127 7.97192C10.3565 7.97192 9.01375 6.62983 9.0127 4.97388ZM15.0127 4.97192C15.0127 6.32069 14.1223 7.46048 12.8975 7.83813C12.4497 7.33743 12.1619 6.68636 12.0312 5.98071C13.1341 5.98297 14.2283 5.68559 14.8867 5.08521L15.0127 4.96216C15.0127 4.96541 15.0127 4.96867 15.0127 4.97192ZM12.9111 2.10864C13.85 2.40293 14.5899 3.14642 14.8799 4.08716C14.1318 4.75473 13.048 5.06581 11.9492 5.03149C11.9583 3.98875 12.2818 2.92231 12.9111 2.10864ZM12.0205 1.97192C11.3609 2.6324 11.0214 3.77293 11.0039 4.91528C10.3283 4.76963 9.68292 4.49113 9.14648 4.07935C9.52636 2.8582 10.6665 1.97192 12.0127 1.97192C12.0153 1.97192 12.0179 1.97192 12.0205 1.97192Z" fill="#158AC1"/>
</svg>
