<svg width="17" height="16" viewBox="0 0 17 16" fill="none" xmlns="http://www.w3.org/2000/svg">
<path d="M1.49258 3.93411C1.32916 3.96998 1.12588 3.97797 1.05953 3.82438C0.996898 3.67937 1.04461 3.48754 1.23279 3.42041L7.92322 1.03564C7.98821 1.01251 8.05938 1.01256 8.12439 1.03564L14.8392 3.42041C15.0275 3.48725 15.0756 3.67885 15.0133 3.8239C14.9473 3.9778 14.7437 3.97002 14.5801 3.93424L8.23881 2.5473C8.0978 2.51646 7.95178 2.51651 7.81078 2.54745L1.49258 3.93411Z" fill="#158AC1"/>
<path d="M4.02344 15.0024H2.02344V5.06982H4.02344V15.0024ZM14.0234 15.0024H12.0234V5.06982H14.0234V15.0024Z" fill="#4A4A4A"/>
<rect x="9.02026" y="5.99902" width="2" height="2" fill="#158AC1"/>
<rect x="9.02026" y="9" width="2" height="2" fill="#158AC1"/>
<rect x="9.02026" y="12.0007" width="2" height="3.00171" fill="#158AC1"/>
<rect x="5.02368" y="5.99902" width="2" height="2" fill="#158AC1"/>
<rect x="5.02368" y="9" width="2" height="2" fill="#158AC1"/>
</svg>
